<svg width="167" height="106" viewBox="0 0 167 106" fill="none" xmlns="http://www.w3.org/2000/svg">
<g clip-path="url(#clip0_12_537)">
<path style="mix-blend-mode:multiply" opacity="0.14" d="M49.4528 106.003C63.2439 106.003 74.4239 104.656 74.4239 102.995C74.4239 101.333 63.2439 99.9858 49.4528 99.9858C35.6616 99.9858 24.4817 101.333 24.4817 102.995C24.4817 104.656 35.6616 106.003 49.4528 106.003Z" fill="url(#paint0_linear_12_537)"/>
<path style="mix-blend-mode:multiply" opacity="0.14" d="M74.5462 91.0128C101.858 91.0128 123.999 89.6657 123.999 88.0041C123.999 86.3424 101.858 84.9954 74.5462 84.9954C47.2342 84.9954 25.0935 86.3424 25.0935 88.0041C25.0935 89.6657 47.2342 91.0128 74.5462 91.0128Z" fill="url(#paint1_linear_12_537)"/>
<path d="M138.32 17.7707C139.522 17.4764 140.852 17.4858 142.001 17.0224C142.375 16.8894 142.717 16.6765 143.001 16.3986C143.285 16.1207 143.504 15.7844 143.645 15.4132C144.112 13.9417 143.08 11.675 142.798 10.1628C142.456 8.33441 141.922 5.64817 143.369 4.12346C144.31 3.13099 145.86 3.08716 147.213 3.27188C148.873 3.45146 150.468 4.02002 151.866 4.93121C155.71 7.62684 154.841 12.8804 153.972 16.8283C153.272 20.0092 149.892 28.5282 156.796 25.5664C160.58 23.9415 165.208 21.2459 166.523 27.0817C168.553 35.9983 164.49 60.4468 145.402 55.1777C137.658 53.0393 127.134 46.0357 129.085 36.5305C129.427 34.8712 130.34 33.1649 132.129 32.736C133.776 32.3352 136.952 33.2557 137.526 30.8982C137.614 30.4258 137.575 29.9386 137.413 29.4862C136.616 26.8281 133.773 25.0404 133.503 22.229C133.384 20.9766 134.191 19.765 135.239 19.0512C136.183 18.4474 137.226 18.014 138.32 17.7707Z" fill="url(#paint2_linear_12_537)"/>
<path d="M147.515 19.9078L146.37 74.4753L147.182 74.4923L148.328 19.9248L147.515 19.9078Z" fill="url(#paint3_linear_12_537)"/>
<path d="M139.036 22.0174L138.533 22.6538L147.666 29.8508L148.17 29.2144L139.036 22.0174Z" fill="url(#paint4_linear_12_537)"/>
<path d="M160.626 29.2769L147.236 44.7766L147.851 45.306L161.242 29.8063L160.626 29.2769Z" fill="url(#paint5_linear_12_537)"/>
<path d="M134.594 39.0764L134.057 39.6858L147.015 51.0358L147.551 50.4265L134.594 39.0764Z" fill="url(#paint6_linear_12_537)"/>
<path d="M68.7254 42.8861C69.2902 42.7483 69.9146 42.7515 70.4544 42.5354C70.6302 42.4731 70.7903 42.3732 70.9236 42.243C71.0569 42.1127 71.1601 41.955 71.2263 41.7809C71.4428 41.089 70.9596 40.0277 70.8278 39.317C70.6677 38.4591 70.4167 37.2005 71.0945 36.4992C71.5338 36.0359 72.2649 36.014 72.8987 36.1016C73.6826 36.1838 74.4355 36.451 75.0953 36.8812C76.8964 38.1335 76.4885 40.61 76.0805 42.4572C75.7667 43.9474 74.1664 47.9455 77.4016 46.5554C79.1776 45.7946 81.349 44.5298 81.9703 47.2661C82.9117 51.4489 81.0289 62.9202 72.0641 60.4468C68.4304 59.4418 63.4946 56.1576 64.4077 51.6993C64.5646 50.9198 65.0008 50.1339 65.8323 49.9179C66.6073 49.73 68.0978 50.1621 68.3645 49.0569C68.406 48.8361 68.3887 48.6083 68.3143 48.3963C67.9378 47.144 66.6042 46.3112 66.4787 44.99C66.4724 44.6925 66.5441 44.3985 66.6867 44.1372C66.8292 43.8758 67.0377 43.6561 67.2914 43.4997C67.7301 43.2138 68.2153 43.0061 68.7254 42.8861Z" fill="url(#paint7_linear_12_537)"/>
<path d="M73.0413 43.8857L72.5039 69.4839L72.8835 69.4918L73.4209 43.8936L73.0413 43.8857Z" fill="url(#paint8_linear_12_537)"/>
<path d="M69.0667 44.8883L68.8313 45.1855L73.1155 48.5626L73.3509 48.2654L69.0667 44.8883Z" fill="url(#paint9_linear_12_537)"/>
<path d="M79.1926 48.2819L72.9114 55.5527L73.199 55.8001L79.4802 48.5292L79.1926 48.2819Z" fill="url(#paint10_linear_12_537)"/>
<path d="M66.9788 52.8826L66.7283 53.1672L72.8074 58.4922L73.0579 58.2075L66.9788 52.8826Z" fill="url(#paint11_linear_12_537)"/>
<path d="M104.042 20.3096C104.723 20.1436 105.473 20.1499 106.126 19.8869C106.339 19.8133 106.534 19.6938 106.697 19.537C106.86 19.3801 106.986 19.1897 107.067 18.979C107.331 18.1462 106.753 16.8657 106.587 16.0078C106.395 14.9747 106.094 13.4562 106.901 12.5921C107.431 12.0317 108.31 12.0067 109.075 12.1131C110.015 12.2136 110.917 12.5355 111.708 13.0523C113.882 14.5771 113.39 17.5482 112.897 19.7773C112.502 21.5776 110.588 26.3928 114.488 24.7178C116.628 23.8004 119.248 22.2757 119.998 25.5787C121.147 30.6194 118.85 44.445 108.055 41.4676C103.662 40.256 97.7224 36.2955 98.8207 30.9199C99.0152 29.9807 99.5361 29.0164 100.543 28.7753C101.485 28.5467 103.27 29.0696 103.593 27.7359C103.645 27.469 103.623 27.1932 103.531 26.9375C103.082 25.4316 101.472 24.4329 101.334 22.833C101.325 22.4742 101.411 22.1194 101.583 21.804C101.755 21.4886 102.007 21.2238 102.313 21.0359C102.843 20.6955 103.428 20.4497 104.042 20.3096Z" fill="url(#paint12_linear_12_537)"/>
<path d="M109.244 21.5204L108.596 52.3804L109.054 52.3899L109.702 21.53L109.244 21.5204Z" fill="url(#paint13_linear_12_537)"/>
<path d="M104.451 22.7195L104.167 23.0781L109.332 27.15L109.616 26.7913L104.451 22.7195Z" fill="url(#paint14_linear_12_537)"/>
<path d="M116.659 26.8204L109.085 35.5876L109.432 35.8861L117.006 27.1189L116.659 26.8204Z" fill="url(#paint15_linear_12_537)"/>
<path d="M101.935 32.3616L101.633 32.7051L108.962 39.1247L109.264 38.7812L101.935 32.3616Z" fill="url(#paint16_linear_12_537)"/>
<path d="M9.71183 13.7507C10.581 13.5378 11.5443 13.5472 12.379 13.2122C12.6502 13.1145 12.8971 12.9596 13.1029 12.7581C13.3087 12.5566 13.4685 12.3131 13.5714 12.0444C13.9071 10.9768 13.1603 9.33623 12.9438 8.24045C12.6959 6.91611 12.3162 4.96875 13.3549 3.85731C14.0358 3.14035 15.1623 3.10904 16.1413 3.23115C17.3565 3.36179 18.5227 3.78043 19.5427 4.45216C22.326 6.40266 21.6953 10.2097 21.0677 13.065C20.5594 15.3693 18.1087 21.5433 23.1073 19.3955C25.8498 18.2184 29.2011 16.2647 30.1644 20.4945C31.636 26.9565 28.6959 44.6706 14.8642 40.8448C9.25056 39.2981 1.62556 34.2231 3.03446 27.3353C3.27921 26.1331 3.95072 24.8964 5.23096 24.5833C6.42649 24.2953 8.72654 24.9621 9.14387 23.2527C9.20616 22.9112 9.17804 22.5594 9.06229 22.2321C8.48492 20.3035 6.42335 19.0105 6.23821 16.9723C6.15035 16.0581 6.73714 15.1877 7.49336 14.6711C8.17375 14.2383 8.92443 13.9268 9.71183 13.7507Z" fill="url(#paint17_linear_12_537)"/>
<path d="M16.3736 15.3023L15.5435 54.842L16.1332 54.8544L16.9634 15.3146L16.3736 15.3023Z" fill="url(#paint18_linear_12_537)"/>
<path d="M10.2373 16.8411L9.87158 17.303L16.4875 22.518L16.8532 22.0562L10.2373 16.8411Z" fill="url(#paint19_linear_12_537)"/>
<path d="M25.8749 22.0906L16.1724 33.3218L16.6192 33.7061L26.3218 22.4749L25.8749 22.0906Z" fill="url(#paint20_linear_12_537)"/>
<path d="M7.00857 29.1844L6.61938 29.6267L16.0093 37.8516L16.3985 37.4093L7.00857 29.1844Z" fill="url(#paint21_linear_12_537)"/>
<path d="M162.924 75.4715C162.645 73.8873 162.356 72.3094 162.042 70.7314C161.493 67.9513 160.859 65.1116 159.278 62.7072C157.696 60.3027 154.951 58.3804 151.96 58.4461C146.187 58.5682 142.861 65.3339 137.212 66.4203C132.308 67.3596 127.705 63.5838 125.389 59.4104C123.073 55.237 122.122 50.45 119.455 46.4676C116.132 41.5053 110.151 38.2085 103.926 37.9017C97.7004 37.5949 91.3745 40.2905 87.5306 44.8991C82.9557 50.3655 80.9411 58.7749 73.8245 60.6471C69.0361 61.8994 63.8743 59.2758 60.8871 55.5376C57.8998 51.7994 56.5976 47.1439 55.2578 42.6418C53.9179 38.1397 52.3929 33.5061 49.0887 30.0121C43.2586 23.8506 32.8629 22.8112 24.8362 26.1424C16.8096 29.4736 10.97 36.3394 7.20459 43.7845C2.14009 53.8031 0.615091 65.2369 2.37857 76.2041H162.924V75.4715Z" fill="url(#paint22_linear_12_537)"/>
<path d="M77.9069 76.2041H58.6719C60.0065 77.24 61.5213 78.0212 63.1402 78.5084C68.0321 79.9767 73.3414 78.5209 77.9069 76.2041Z" fill="url(#paint23_linear_12_537)"/>
<path d="M74.8757 65.9162C74.8757 65.9162 75.5817 59.4761 68.2077 55.9602H50.5259C50.5259 55.9602 58.1195 57.9608 57.6865 65.4278L74.8757 65.9162Z" fill="url(#paint24_linear_12_537)"/>
<g opacity="0.3">
<path d="M57.3068 58.1893H68.7317C68.7683 58.1893 68.8034 58.1748 68.8293 58.149C68.8552 58.1231 68.8698 58.0881 68.8698 58.0516C68.8698 58.015 68.8552 57.98 68.8293 57.9542C68.8034 57.9283 68.7683 57.9138 68.7317 57.9138H57.3068C57.2702 57.9138 57.235 57.9283 57.2091 57.9542C57.1832 57.98 57.1687 58.015 57.1687 58.0516C57.1687 58.0881 57.1832 58.1231 57.2091 58.149C57.235 58.1748 57.2702 58.1893 57.3068 58.1893Z" fill="black"/>
</g>
<g opacity="0.3">
<path d="M59.1143 60.0305H68.7319C68.7653 60.0254 68.7958 60.0086 68.8179 59.983C68.84 59.9575 68.8521 59.9249 68.8521 59.8911C68.8521 59.8574 68.84 59.8248 68.8179 59.7992C68.7958 59.7736 68.7653 59.7568 68.7319 59.7518H59.1143C59.0942 59.7488 59.0737 59.7501 59.0542 59.7558C59.0347 59.7614 59.0166 59.7711 59.0012 59.7844C58.9858 59.7976 58.9735 59.814 58.965 59.8324C58.9565 59.8508 58.9521 59.8709 58.9521 59.8911C58.9521 59.9114 58.9565 59.9314 58.965 59.9499C58.9735 59.9683 58.9858 59.9847 59.0012 59.9979C59.0166 60.0111 59.0347 60.0209 59.0542 60.0265C59.0737 60.0321 59.0942 60.0335 59.1143 60.0305Z" fill="black"/>
</g>
<g opacity="0.3">
<path d="M59.6195 61.1105H71.5873C71.6239 61.1105 71.659 61.096 71.6849 61.0701C71.7108 61.0443 71.7254 61.0093 71.7254 60.9727C71.7254 60.9362 71.7108 60.9011 71.6849 60.8753C71.659 60.8495 71.6239 60.835 71.5873 60.835H59.6195C59.5829 60.835 59.5478 60.8495 59.5219 60.8753C59.496 60.9011 59.4814 60.9362 59.4814 60.9727C59.4814 61.0093 59.496 61.0443 59.5219 61.0701C59.5478 61.096 59.5829 61.1105 59.6195 61.1105Z" fill="black"/>
</g>
<g opacity="0.3">
<path d="M60.2689 62.3033H72.2367C72.2701 62.2983 72.3006 62.2815 72.3227 62.2559C72.3448 62.2303 72.3569 62.1977 72.3569 62.164C72.3569 62.1302 72.3448 62.0976 72.3227 62.0721C72.3006 62.0465 72.2701 62.0297 72.2367 62.0247H60.2689C60.2355 62.0297 60.2049 62.0465 60.1829 62.0721C60.1608 62.0976 60.1487 62.1302 60.1487 62.164C60.1487 62.1977 60.1608 62.2303 60.1829 62.2559C60.2049 62.2815 60.2355 62.2983 60.2689 62.3033Z" fill="black"/>
</g>
<g opacity="0.3">
<path d="M60.7772 63.2769H72.745C72.7784 63.2719 72.8089 63.2551 72.831 63.2295C72.8531 63.204 72.8652 63.1714 72.8652 63.1376C72.8652 63.1039 72.8531 63.0713 72.831 63.0457C72.8089 63.0201 72.7784 63.0033 72.745 62.9983H60.7772C60.7438 63.0033 60.7132 63.0201 60.6912 63.0457C60.6691 63.0713 60.657 63.1039 60.657 63.1376C60.657 63.1714 60.6691 63.204 60.6912 63.2295C60.7132 63.2551 60.7438 63.2719 60.7772 63.2769Z" fill="black"/>
</g>
<path d="M78.1672 65.0835L111.971 80.1646V88.1733H106.006L83.6993 88.2797L80.7685 82.544L54.0151 65.1555L78.1672 65.0835Z" fill="url(#paint25_linear_12_537)"/>
<path d="M111.972 80.1646V88.1732H106.007L83.6995 88.2796L86.9158 80.3086L111.972 80.1646Z" fill="url(#paint26_linear_12_537)"/>
<g style="mix-blend-mode:multiply" opacity="0.6">
<path d="M89.8087 84.9985H109.693V83.4832H89.8087V84.9985Z" fill="black"/>
</g>
<path d="M89.8088 84.5667H109.078V83.4834H89.8088V84.5667Z" fill="url(#paint27_linear_12_537)"/>
<path d="M60.7773 66.4548L70.3196 70.6752H87.8382L78.5659 66.4548H60.7773Z" fill="url(#paint28_linear_12_537)"/>
<path style="mix-blend-mode:overlay" opacity="0.5" d="M60.7773 66.4641L70.3227 70.6845C70.3227 70.6845 70.4827 69.2912 72.3937 68.2236C74.5055 67.0464 78.5659 66.4641 78.5659 66.4641H60.7773Z" fill="url(#paint29_linear_12_537)"/>
<path d="M78.9204 74.8955L81.1985 75.8723H85.1679L85.1491 75.074L83.0279 74.8955L78.9455 74.1128L78.9204 74.8955Z" fill="url(#paint30_linear_12_537)"/>
<path d="M78.9204 74.1128L81.1985 75.0896H85.1679L83.0279 74.1128H78.9204Z" fill="url(#paint31_linear_12_537)"/>
<path d="M85.4661 74.8955L87.7442 75.8723H91.7104L91.6947 75.074L89.5704 74.8955L85.488 74.1128L85.4661 74.8955Z" fill="url(#paint32_linear_12_537)"/>
<path d="M85.4661 74.1128L87.7442 75.0896H91.7104L89.5704 74.1128H85.4661Z" fill="url(#paint33_linear_12_537)"/>
<path d="M91.3245 74.8955L93.6025 75.8723H97.5688L97.55 75.074L95.4288 74.8955L91.3464 74.1128L91.3245 74.8955Z" fill="url(#paint34_linear_12_537)"/>
<path d="M91.3245 74.1128L93.6025 75.0896H97.5688L95.4288 74.1128H91.3245Z" fill="url(#paint35_linear_12_537)"/>
<path d="M74.5461 72.6601L76.8242 73.6338H80.7936L80.7748 72.8354L78.6536 72.6601L74.5681 71.8743L74.5461 72.6601Z" fill="url(#paint36_linear_12_537)"/>
<path d="M74.5461 71.8774L76.8242 72.8511H80.7936L78.6536 71.8774H74.5461Z" fill="url(#paint37_linear_12_537)"/>
<path d="M81.0918 72.6601L83.3699 73.6338H87.3361L87.3173 72.8354L85.1961 72.6601L81.1138 71.8743L81.0918 72.6601Z" fill="url(#paint38_linear_12_537)"/>
<path d="M81.0918 71.8774L83.3699 72.8511H87.3361L85.1961 71.8774H81.0918Z" fill="url(#paint39_linear_12_537)"/>
<path d="M86.947 72.6601L89.2251 73.6338H93.1945L93.1757 72.8354L91.0545 72.6601L86.9721 71.8743L86.947 72.6601Z" fill="url(#paint40_linear_12_537)"/>
<path d="M86.947 71.8774L89.2251 72.8511H93.1945L91.0545 71.8774H86.947Z" fill="url(#paint41_linear_12_537)"/>
<path d="M83.5864 76.8459L85.8645 77.8196H89.8308L89.8151 77.0212L87.6907 76.8459L83.6084 76.0601L83.5864 76.8459Z" fill="url(#paint42_linear_12_537)"/>
<path d="M83.5864 76.0632L85.8645 77.0369H89.8308L87.6907 76.0632H83.5864Z" fill="url(#paint43_linear_12_537)"/>
<path d="M90.1289 76.8459L92.407 77.8196H96.3764L96.3575 77.0212L94.2364 76.8459L90.154 76.0601L90.1289 76.8459Z" fill="url(#paint44_linear_12_537)"/>
<path d="M90.1289 76.0632L92.407 77.0369H96.3764L94.2364 76.0632H90.1289Z" fill="url(#paint45_linear_12_537)"/>
<path d="M95.9873 76.8459L98.2654 77.8196H102.232L102.216 77.0212L100.092 76.8459L96.0093 76.0601L95.9873 76.8459Z" fill="url(#paint46_linear_12_537)"/>
<path d="M95.9873 76.0632L98.2654 77.0369H102.232L100.092 76.0632H95.9873Z" fill="url(#paint47_linear_12_537)"/>
<path d="M88.5222 79.0375L90.8003 80.0112H94.7666L94.7477 79.2129L92.6265 79.0375L88.5442 78.2517L88.5222 79.0375Z" fill="url(#paint48_linear_12_537)"/>
<path d="M88.5222 78.2549L90.8003 79.2286H94.7666L92.6265 78.2549H88.5222Z" fill="url(#paint49_linear_12_537)"/>
<path d="M95.0647 79.0375L97.3428 80.0112H101.309L101.293 79.2129L99.169 79.0375L95.0867 78.2517L95.0647 79.0375Z" fill="url(#paint50_linear_12_537)"/>
<path d="M95.0647 78.2549L97.3428 79.2286H101.309L99.169 78.2549H95.0647Z" fill="url(#paint51_linear_12_537)"/>
<path d="M100.923 79.0375L103.201 80.0112H107.167L107.149 79.2129L105.027 79.0375L100.945 78.2517L100.923 79.0375Z" fill="url(#paint52_linear_12_537)"/>
<path d="M100.923 78.2549L103.201 79.2286H107.167L105.027 78.2549H100.923Z" fill="url(#paint53_linear_12_537)"/>
<path d="M53.8708 65.0835L86.9877 80.1646L86.9909 88.2609L81.7099 88.2891L78.9611 85.5465L62.2583 85.4307L59.4028 88.2797H51.2664V66.5268L53.8708 65.0835Z" fill="url(#paint54_linear_12_537)"/>
<path d="M56.1083 54.567C56.1083 54.567 57.9439 53.2928 57.0496 51.8463C56.1553 50.3999 53.7455 48.6999 50.548 44.8208L49.3242 46.1076C49.3242 46.1076 54.1722 54.2039 56.1083 54.567Z" fill="#C17E14"/>
<path d="M50.9464 46.0919C51.0719 45.8039 51.1441 45.4658 51.2288 45.2435L51.7278 44.467L52.0416 43.9724C52.1878 43.7857 52.3773 43.6375 52.5938 43.5403C52.5938 43.5403 52.5122 43.1521 52.1922 43.3368C52.0604 43.4119 51.9317 43.4902 51.8031 43.5685L51.6242 43.6812C51.552 43.725 51.5332 43.7438 51.4767 43.6593C51.4659 43.6414 51.4533 43.6246 51.4391 43.6092L51.3857 41.2642C51.3857 41.2642 51.1441 41.0826 51.072 41.308C51.0092 41.4802 50.8868 42.5071 50.8366 42.9736L50.7864 42.9423C50.7017 42.886 50.5479 42.767 50.4538 42.8734C50.3597 42.9799 50.2906 43.0926 50.14 43.1208C49.9517 43.1615 49.8262 43.0362 49.6254 43.1208C49.4842 43.1897 49.2802 43.3431 49.2771 43.5153C49.2728 43.8933 49.2969 44.2711 49.3493 44.6455C49.4089 45.0807 49.365 45.5847 49.5219 46.0105C49.5834 46.1999 49.7083 46.3624 49.8758 46.4707C50.0432 46.579 50.2428 46.6266 50.4412 46.6054C50.5605 46.5663 50.6686 46.4993 50.7565 46.41C50.8444 46.3207 50.9095 46.2116 50.9464 46.0919Z" fill="url(#paint55_linear_12_537)"/>
<path d="M57.1405 30.7729C56.8931 30.8155 56.6496 30.8784 56.4125 30.9607C55.8715 31.132 55.402 31.4762 55.0765 31.9402C54.751 32.4042 54.5875 32.9621 54.6114 33.528C54.6114 34.104 54.9 34.7083 54.7494 35.2844C54.6145 35.8009 54.2693 36.208 54.0465 36.6776C53.7937 37.1732 53.6059 37.6994 53.488 38.243C53.3674 38.8035 53.4614 39.3887 53.7516 39.8835C53.9024 40.124 54.1233 40.3129 54.3846 40.4248C54.6459 40.5367 54.9352 40.5663 55.2138 40.5097C55.6343 40.397 56.0014 40.0401 56.4345 40.0902C56.7702 40.1246 57.0244 40.4032 57.3131 40.5692C57.5715 40.7225 57.8636 40.8103 58.1639 40.8251C58.4642 40.8398 58.7635 40.781 59.0357 40.6537C59.5315 40.4345 59.9363 39.9054 60.5137 39.9023C60.9341 39.9023 61.2887 40.1966 61.6778 40.35C62.1051 40.4877 62.5663 40.4776 62.9871 40.3213C63.4079 40.1651 63.7636 39.8719 63.9967 39.489C64.2166 39.0979 64.3321 38.657 64.3321 38.2085C64.3321 37.7601 64.2166 37.3192 63.9967 36.928C63.7739 36.5179 63.4601 36.161 63.2154 35.7602C62.7886 35.0527 62.8733 34.2105 62.7196 33.4215C62.6179 32.8877 62.4064 32.3806 62.0986 31.9323C61.7908 31.484 61.3932 31.1041 60.931 30.8167C59.9489 30.2782 58.8443 30.394 57.7931 30.5913C57.5716 30.6364 57.3535 30.6971 57.1405 30.7729Z" fill="url(#paint56_linear_12_537)"/>
<path d="M34.6357 81.6799C34.7402 81.4324 34.817 81.1741 34.8648 80.9097C34.8648 80.8377 35.097 80.1427 35.1377 80.0738C35.7371 79.1001 37.6637 76.5892 37.6637 76.5892L35.0562 74.8015C35.0562 74.8015 33.9108 77.3249 32.6463 78.4113C31.0523 78.2798 28.3976 77.757 28.3976 77.757C28.3976 77.757 25.7963 76.5736 25.6394 76.5454C25.289 76.4497 24.9224 76.4284 24.5632 76.4828C24.5632 76.4828 23.8822 76.9054 26.5055 79.3193C26.5055 79.3193 27.5849 80.4432 29.8316 81.4795L31.228 82.2466C31.7049 82.5096 33.0919 83.3705 33.3586 83.358C33.4444 83.3553 33.5288 83.3351 33.6065 83.2985C34.1179 83.0575 34.3941 82.1652 34.6357 81.6799Z" fill="url(#paint57_linear_12_537)"/>
<path d="M31.225 82.2528L29.8286 81.492C27.5819 80.4557 26.5025 79.3318 26.5025 79.3318C23.8792 76.9117 24.5633 76.4827 24.5633 76.4827C24.9243 76.4265 25.2932 76.4468 25.6458 76.5422C25.8027 76.5704 28.404 77.7539 28.404 77.7539H28.4197C28.2911 78.7463 28.517 79.4038 29.609 79.8265C31.3505 80.4996 33.1077 80.4964 34.6044 81.7425C34.3722 82.2403 34.0992 83.0575 33.6066 83.3079C33.5289 83.3445 33.4445 83.3647 33.3587 83.3674C33.0888 83.3705 31.7019 82.5158 31.225 82.2528Z" fill="url(#paint58_linear_12_537)"/>
<path d="M63.8148 58.4337C62.6192 58.3179 61.7093 57.9829 60.4918 58.1645C58.9605 58.393 53.259 58.7906 51.7497 59.1194C48.7091 59.8019 45.6089 60.5721 42.8037 61.959C42.7974 61.9762 42.7901 61.9929 42.7817 62.0091C42.3989 62.2954 42.0786 62.6565 41.8403 63.0704C41.0621 64.2758 36.3554 72.1498 34.1306 75.8911L36.7727 77.826C38.988 75.4779 43.221 70.5343 45.2449 66.2263C46.6067 66.4142 47.9748 66.5644 49.343 66.6928C53.658 67.0712 57.9527 65.7711 61.3296 63.0642C62.0682 62.5095 62.7051 61.8316 63.2123 61.0605C63.7152 60.2823 63.9284 59.3527 63.8148 58.4337Z" fill="url(#paint59_linear_12_537)"/>
<path d="M46.613 67.1748C48.2604 64.5199 50.4852 62.2281 52.7036 60.0459C53.8081 58.9658 58.4428 55.6315 59.6226 54.6265C61.8568 52.7292 61.8693 53.5526 63.7395 56.5895C63.9762 56.9723 64.1351 57.3978 64.207 57.8418C65.0668 63.0766 58.2953 65.9319 54.6711 67.7415C53.1021 68.5273 51.505 69.2818 49.8827 69.9675C46.9017 69.6951 46.613 67.1748 46.613 67.1748Z" fill="url(#paint60_linear_12_537)"/>
<path d="M47.1778 88.4206C47.1699 88.1525 47.1341 87.886 47.0711 87.6253C47.0554 87.5502 46.9644 86.8301 46.9738 86.7518C47.1182 85.6185 47.8368 82.5378 47.8368 82.5378L44.724 81.9805C44.724 81.9805 44.724 84.7512 44.018 86.2603C42.5118 86.7957 39.8791 87.4093 39.8791 87.4093C39.8791 87.4093 37.0205 87.4093 36.8637 87.4375C36.5023 87.4966 36.1572 87.6299 35.8501 87.8288C35.8501 87.8288 35.4046 88.4926 38.7934 89.6165C38.7934 89.6165 40.24 90.1957 42.7158 90.2176L44.3035 90.3429C44.8495 90.3836 46.4686 90.5996 46.704 90.4806C46.7818 90.4426 46.8512 90.3894 46.9079 90.3241C47.2751 89.8826 47.1558 88.9622 47.1778 88.4206Z" fill="url(#paint61_linear_12_537)"/>
<path d="M44.3067 90.346L42.7189 90.2208C40.2432 90.1988 38.7966 89.6196 38.7966 89.6196C35.4077 88.4957 35.8533 87.8319 35.8533 87.8319C36.1604 87.633 36.5055 87.4997 36.8668 87.4406C37.0237 87.403 39.8823 87.4124 39.8823 87.4124C40.1741 88.3673 40.6542 88.8745 41.8215 88.8119C43.6854 88.7086 45.2732 87.9854 47.1559 88.4988C47.1559 89.0467 47.2375 89.9014 46.8891 90.3272C46.8324 90.3925 46.763 90.4457 46.6852 90.4837C46.4718 90.6027 44.8527 90.3867 44.3067 90.346Z" fill="url(#paint62_linear_12_537)"/>
<path d="M47.5324 84.0312C48.7562 80.4809 51.0186 72.6007 50.3565 67.7698C50.3565 67.7698 49.7917 65.9915 47.0398 66.7867C47.0398 66.7867 46.3432 66.6333 46.067 68.5024C45.8536 69.9207 44.8119 79.0439 44.3318 83.355L47.5324 84.0312Z" fill="url(#paint63_linear_12_537)"/>
<path d="M53.9651 47.1001C54.0655 46.0388 56.2307 41.2111 56.2307 41.2111C56.5619 41.1521 56.8889 41.0715 57.2097 40.97C57.322 40.4557 57.3411 39.9256 57.2661 39.4046L59.5129 37.1692C59.2461 39.6175 60.2377 40.491 60.2377 40.491C60.5891 40.5098 61.7282 40.5661 62.2459 40.635C62.9051 40.7145 63.5078 41.0455 63.9278 41.5586C63.9278 41.5586 62.5817 46.5867 62.5032 49.154C62.4248 51.7212 63.9372 57.4099 63.9372 57.4099L54.6335 57.3849C55.0921 55.3336 55.4461 53.2604 55.6941 51.1733C55.942 49.2166 53.78 49.0287 53.9651 47.1001Z" fill="url(#paint64_linear_12_537)"/>
<path d="M53.7453 47.1002C53.8458 46.0388 56.2211 41.2111 56.2211 41.2111C56.3557 41.3944 56.5313 41.5439 56.7339 41.6477C56.9366 41.7515 57.1606 41.8068 57.3884 41.8091C58.0354 41.889 58.6921 41.8129 59.3036 41.5874C59.915 41.3619 60.4634 40.9935 60.9028 40.5129C61.2574 40.5317 61.7186 40.5662 62.2364 40.635C62.8956 40.7146 63.4983 41.0455 63.9183 41.5586C63.9183 41.5586 62.5721 46.5867 62.4937 49.154C62.4153 51.7213 64.9475 59.0849 64.9475 59.0849C64.9475 59.0849 62.3996 59.971 57.7963 59.6297C56.2805 59.4903 54.7813 59.2083 53.3186 58.7875C53.9462 56.2202 55.6845 51.1702 55.6845 51.1702C55.9418 49.2166 53.5696 49.0288 53.7453 47.1002Z" fill="url(#paint65_linear_12_537)"/>
<path opacity="0.1" d="M55.6939 51.17C55.8069 50.3278 55.1291 49.398 54.5518 48.9252C57.6896 49.5514 60.3568 49.6641 61.9194 49.9741C61.8692 49.9741 61.8002 48.2177 61.7845 48.0455C61.7218 47.3755 61.6559 46.7024 61.6025 46.0324C61.477 44.42 61.0565 42.2754 62.5031 41.0888C62.6011 41.0111 62.7166 40.9583 62.8395 40.9349C62.9625 40.9114 63.0893 40.9181 63.2091 40.9542C63.4861 41.1065 63.7303 41.3118 63.9277 41.5584C63.9277 41.5584 62.5815 46.5865 62.5031 49.1538C62.4686 50.259 62.729 51.9402 63.0397 53.4994C61.2103 53.4054 58.0034 52.3785 55.6155 51.5144C55.6307 51.3974 55.657 51.2821 55.6939 51.17Z" fill="url(#paint66_linear_12_537)"/>
<path d="M55.4146 33.1617C55.4146 33.1617 54.2567 37.9738 56.0233 39.5392C56.0233 39.5392 59.0357 39.9024 60.454 37.3821C61.8723 34.8618 59.9331 30.9576 55.4146 33.1617Z" fill="url(#paint67_linear_12_537)"/>
<path d="M55.7882 35.4753V37.4634H54.8374L55.7882 35.4753Z" fill="url(#paint68_linear_12_537)"/>
<path d="M56.6635 31.9375C56.4784 32.2287 56.3183 32.6544 56.5286 32.9394C56.6258 33.074 56.7294 33.2023 56.8423 33.3307C57.4441 34.0158 58.1353 34.6171 58.8977 35.1184C59.178 35.3062 59.4635 35.4847 59.7543 35.6538L61.4142 35.0996C61.477 35.0808 61.5178 34.5642 61.5272 34.5079C61.7092 33.2556 61.6025 31.6213 60.316 30.9669C59.5346 30.5725 58.496 30.6914 57.7272 31.0515C57.3442 31.2227 57.0092 31.485 56.7513 31.8154C56.7195 31.8542 56.6901 31.895 56.6635 31.9375Z" fill="url(#paint69_linear_12_537)"/>
<path d="M59.8455 35.5849C59.8455 35.5849 60.3475 34.511 60.9092 34.9994C61.4709 35.4878 61.0818 37.5041 59.8455 37.9142V35.5849Z" fill="url(#paint70_linear_12_537)"/>
<path d="M50.5949 50.6598L53.4629 50.353L50.7801 44.5422L47.9497 45.0964L50.5949 50.6598Z" fill="url(#paint71_linear_12_537)"/>
<path d="M53.7547 50.0336L53.4629 50.353L50.78 44.5422L51.075 44.2197L53.7547 50.0336Z" fill="url(#paint72_linear_12_537)"/>
<path d="M51.075 44.2197L48.2447 44.7739L47.9497 45.0964L50.7801 44.5422L51.075 44.2197Z" fill="url(#paint73_linear_12_537)"/>
<path d="M50.9212 49.11C50.8929 48.9693 50.9071 48.8233 50.962 48.6905C50.9757 48.5563 50.9376 48.4219 50.8553 48.3148C50.7612 48.127 50.9149 48.0393 51.0279 47.8734C51.053 47.8358 50.871 47.5603 50.8522 47.5071C50.7732 47.3881 50.7049 47.2624 50.6482 47.1314C50.5949 46.9467 50.7643 46.8527 50.9275 46.7776L52.236 47.6073C52.2109 47.4319 52.1638 47.0938 52.1387 46.8308C52.1042 46.4614 52.5341 46.5177 52.5341 46.5177C52.528 46.7551 52.5889 46.9894 52.7098 47.194L53.0549 47.673C53.2118 47.889 53.3687 48.1113 53.5225 48.3211C53.7704 48.6342 54.15 48.9128 54.15 49.348C54.1486 49.4948 54.1084 49.6387 54.0334 49.7651C53.9585 49.8915 53.8516 49.996 53.7233 50.0681C53.3763 50.2208 52.9866 50.2474 52.6219 50.1432L51.7904 49.8928C51.6182 49.847 51.4666 49.7444 51.3605 49.6016C51.2089 49.4624 51.0674 49.3128 50.9369 49.1539C50.9308 49.1396 50.9256 49.1249 50.9212 49.11Z" fill="url(#paint74_linear_12_537)"/>
<path d="M65.7633 47.842C65.639 46.7101 65.4292 45.5892 65.1357 44.4889C64.8753 43.5277 64.1756 40.2591 62.5941 41.5208C62.4133 41.6903 62.2678 41.8936 62.1661 42.1193C62.0643 42.3449 62.0082 42.5884 62.001 42.8358C61.8724 44.2353 62.3744 47.7574 62.7447 50.0899C60.8306 49.7267 57.9406 49.5107 53.7516 48.4619L53.5068 50.4186C53.5068 50.4186 63.1965 54.4699 65.1703 53.5213L65.1954 53.443L65.2581 53.4618C65.2581 53.4618 65.7445 52.0842 65.7539 52.006C65.9327 50.6239 65.9359 49.2248 65.7633 47.842Z" fill="#C17E14"/>
<path d="M125.649 98.3234C125.593 98.0454 125.505 97.7745 125.389 97.5156C125.361 97.4405 125.132 96.7047 125.125 96.6233C125.066 95.4148 125.238 92.0742 125.238 92.0742L122.373 92.0054C122.373 92.0054 122.405 94.9546 121.953 96.6609C120.481 97.4968 117.855 98.6239 117.855 98.6239C117.855 98.6239 114.874 99.1436 114.717 99.2156C114.352 99.3417 114.017 99.5433 113.735 99.8074C113.735 99.8074 113.402 100.59 117.13 101.125C117.13 101.125 118.749 101.46 121.329 101.025L123.007 100.859C123.582 100.803 125.31 100.728 125.533 100.546C125.608 100.493 125.67 100.425 125.715 100.346C126.023 99.8293 125.731 98.8932 125.649 98.3234Z" fill="url(#paint75_linear_12_537)"/>
<path d="M125.455 97.4405C125.455 97.3966 125.354 97.1274 125.282 96.8926C125.154 96.9646 125.025 97.0335 124.899 97.0961C123.45 97.8443 121.871 97.788 120.309 97.4749L120.224 97.4561C118.969 98.0572 117.758 98.577 117.758 98.577C117.758 98.577 114.711 99.1092 114.551 99.1781C114.177 99.3088 113.835 99.5156 113.547 99.7854C113.547 99.7854 113.201 100.578 117.023 101.132C117.023 101.132 118.677 101.476 121.316 101.032L123.032 100.862C123.619 100.803 125.386 100.728 125.615 100.549C125.691 100.496 125.754 100.426 125.8 100.346C126.114 99.8042 125.8 98.8462 125.725 98.267C125.665 97.9827 125.574 97.7056 125.455 97.4405Z" fill="url(#paint76_linear_12_537)"/>
<path d="M121.727 73.4397C121.727 73.4397 120.924 73.4053 120.977 75.5374C121.03 77.6695 122.082 94.9328 122.082 94.9328L125.26 95.2678C125.26 95.2678 127.884 82.6819 125.524 75.3088C125.524 75.3057 124.633 72.0246 121.727 73.4397Z" fill="url(#paint77_linear_12_537)"/>
<path d="M127.799 59.3759C127.614 59.2499 127.417 59.1449 127.209 59.0628C126.324 58.6996 125.367 59.0472 124.413 59.116C121.862 59.3039 121.2 64.9049 121.131 67.9763C121.056 71.2699 120.447 73.9248 121.664 76.993C122.025 77.8947 122.637 78.8433 123.6 78.9999C123.976 79.0354 124.354 78.974 124.698 78.8216C125.043 78.6691 125.342 78.4308 125.568 78.1295C126.012 77.5232 126.339 76.8393 126.531 76.1132C127.513 73.0857 128.232 69.9831 128.985 66.893C129.33 65.4685 129.688 64.0095 129.525 62.5537C129.393 61.3139 128.803 60.0678 127.799 59.3759Z" fill="url(#paint78_linear_12_537)"/>
<path d="M134.702 98.8868C134.616 98.6162 134.5 98.3558 134.357 98.1103C134.319 98.0383 134.012 97.3307 133.999 97.2493C133.811 96.0502 133.629 92.7065 133.629 92.7065L130.293 93.0572C130.293 93.0572 131.112 95.8749 130.846 97.6219C129.471 98.6113 126.974 100.011 126.974 100.011C126.974 100.011 124.062 100.844 123.914 100.931C123.563 101.095 123.25 101.332 122.998 101.626C122.998 101.626 122.744 102.431 126.522 102.565C126.522 102.565 128.169 102.728 130.692 102.021L132.349 101.679C132.914 101.56 134.624 101.304 134.831 101.11C134.899 101.05 134.954 100.976 134.991 100.894C135.226 100.346 134.837 99.4441 134.702 98.8868Z" fill="url(#paint79_linear_12_537)"/>
<path d="M134.366 98.0667C134.344 98.0229 134.231 97.7536 134.134 97.5376L133.776 97.7818C132.415 98.6772 130.836 98.7899 129.252 98.6459H129.164C127.984 99.3754 126.832 100.02 126.832 100.02C126.832 100.02 123.858 100.872 123.695 100.96C123.334 101.128 123.013 101.37 122.753 101.67C122.753 101.67 122.493 102.494 126.352 102.641C126.352 102.641 128.034 102.807 130.61 102.087L132.299 101.736C132.879 101.617 134.627 101.354 134.834 101.157C134.903 101.094 134.96 101.019 135 100.935C135.242 100.365 134.843 99.4411 134.686 98.8745C134.61 98.5942 134.503 98.3233 134.366 98.0667Z" fill="url(#paint80_linear_12_537)"/>
<path d="M133.428 73.5649C133.742 71.7866 134.012 69.9957 134.354 68.2174C134.668 66.508 134.922 64.664 134.564 62.9389C134.455 62.3604 134.228 61.8104 133.897 61.323C133.566 60.8356 133.139 60.4212 132.641 60.1055C132.067 59.7778 131.411 59.6199 130.75 59.6504C130.089 59.6809 129.451 59.8985 128.91 60.2777C128.168 60.7783 127.55 61.439 127.099 62.2108C126.649 62.9826 126.379 63.8457 126.308 64.736C126.123 67.2216 126.208 69.72 126.563 72.1873C126.736 73.5124 127.017 74.8212 127.404 76.1008C127.469 76.3137 127.529 76.5454 127.592 76.7802C127.887 78.9718 130.73 95.9283 130.73 95.9283H133.927C133.927 95.9283 135.035 84.7575 132.628 77.5128C132.7 77.2342 132.757 76.9524 132.804 76.6863C133.011 75.6437 133.237 74.6043 133.428 73.5649Z" fill="url(#paint81_linear_12_537)"/>
<path d="M120.083 60.3778C120.353 60.5469 121.865 57.3503 122.01 57.0404C122.637 55.666 125.593 45.5127 121.646 46.4614C121.369 46.5439 121.113 46.6855 120.896 46.8763C120.68 47.0671 120.507 47.3026 120.39 47.5665C119.258 49.7581 117.369 57.4161 117.369 57.4161L120.083 60.3778Z" fill="url(#paint82_linear_12_537)"/>
<path d="M119.559 60.5156C119.559 60.5156 119.298 57.053 117.221 56.9371L117.322 56.4706C117.85 56.3223 118.413 56.3576 118.919 56.5708C119.346 56.7587 120.974 57.7167 121.285 59.4261C121.307 59.5576 120.158 60.4029 120.158 60.4029L119.559 60.5156Z" fill="url(#paint83_linear_12_537)"/>
<path d="M112.066 48.1206C111.935 48.261 111.842 48.4323 111.796 48.6184C111.774 48.6904 111.661 48.9973 111.708 49.0567L111.476 48.7656C111.366 48.6278 111.25 48.4525 111.046 48.5245C110.954 48.5688 110.874 48.633 110.81 48.7124C110.746 48.7907 110.665 48.8529 110.572 48.8939C110.478 48.9315 110.371 48.919 110.274 48.9472C110.038 49.0129 109.913 49.2602 109.718 49.4074C109.524 49.5545 109.361 49.5796 109.257 49.7393C109.211 49.82 109.183 49.9097 109.176 50.0022C109.144 50.2746 109.132 50.7349 109.336 50.9415L112.301 53.7154C112.69 54.0786 113.007 54.7173 113.302 55.1587C113.631 55.6471 113.951 56.1386 114.271 56.6333C115.047 57.8418 117.927 62.5224 119.756 60.2369C120.149 59.7453 119.882 58.7278 119.669 58.0985C119.163 56.6145 113.634 52.2345 113.634 52.2345L113.038 51.0041L112.674 49.6673C112.554 49.3205 112.491 48.957 112.486 48.5902C112.511 48.4317 112.482 48.2692 112.401 48.13C112.382 48.1001 112.356 48.0754 112.324 48.0584C112.293 48.0415 112.258 48.0327 112.222 48.033C112.162 48.0434 112.106 48.0744 112.066 48.1206Z" fill="url(#paint84_linear_12_537)"/>
<path d="M134.768 62.7261C134.369 60.7912 133.764 59.0161 133.874 57.0124C133.983 55.0086 134.081 52.9673 134.235 50.948C134.297 50.0901 134.47 49.2041 134.492 48.3494C134.52 47.2004 133.864 46.2924 133.07 45.5317C132.356 44.9011 131.575 44.349 130.742 43.8848L130.645 43.8254C130.338 43.6292 130.015 43.4605 129.678 43.3213C128.926 43.0499 128.126 42.9375 127.328 42.9914C126.53 43.0453 125.752 43.2643 125.044 43.6344L122.533 45.0996C122.083 45.3759 121.717 45.7693 121.474 46.2375C121.23 46.7058 121.119 47.2313 121.153 47.7577C121.263 50.1559 121.388 52.5541 121.554 54.9585C121.642 56.2109 121.89 57.4162 121.771 58.6748C121.617 60.3185 121.04 62.1187 121.489 63.7687C121.708 64.5764 122.304 64.7956 123.01 64.9333C124.827 65.2871 126.641 65.7692 128.483 65.9477C130.297 66.0757 132.116 65.8098 133.817 65.1681C134.875 64.7893 134.997 63.8375 134.768 62.7261Z" fill="url(#paint85_linear_12_537)"/>
<path d="M125.254 47.1751L127.247 45.0305L125.104 44.78L125.254 47.1751Z" fill="url(#paint86_linear_12_537)"/>
<path d="M128.894 40.6631L129.001 43.2397C129.001 43.2397 128.539 46.3706 125.166 44.8584L125.104 40.8322L128.894 40.6631Z" fill="url(#paint87_linear_12_537)"/>
<path d="M128.426 36.5242L128.549 41.1359L128.627 41.762C127.24 44.2228 124.862 44.5234 124.087 43.7282C123.312 42.933 122.38 36.7966 122.38 36.7966L128.426 36.5242Z" fill="url(#paint88_linear_12_537)"/>
<path d="M123.745 40.0996L124.234 42.0219L123.136 42.3006L123.745 40.0996Z" fill="#FFB5BE"/>
<path d="M126.516 36.9657C126.613 37.5827 126.876 38.1617 127.278 38.6407C127.997 39.6081 127.749 41.4992 127.749 41.4992L128.913 39.3765C128.913 39.6551 128.929 39.9337 128.935 40.2124C128.935 40.3188 128.954 40.4253 128.954 40.5255C128.954 40.6257 128.903 40.7697 128.891 40.8855C128.858 41.1286 128.858 41.375 128.891 41.6181C128.891 41.6344 128.895 41.6504 128.902 41.665C128.909 41.6796 128.919 41.6925 128.932 41.7027C128.982 41.734 129.038 41.6432 129.073 41.615C129.125 41.5681 129.174 41.5179 129.22 41.4647C129.313 41.3559 129.393 41.2372 129.459 41.1109C129.589 40.8573 129.702 40.5947 129.795 40.3251C129.981 39.7486 130.039 39.1385 129.964 38.5374C129.935 37.5417 129.672 36.5667 129.195 35.6915C128.851 35.115 128.339 34.6572 127.727 34.3797C127.099 34.1167 126.368 34.1637 125.715 34.2075C125.041 34.2359 124.379 34.3965 123.767 34.6802C123.153 34.9686 122.655 35.4565 122.355 36.0641C122.183 36.4292 122.115 36.834 122.157 37.235C122.179 37.4333 122.229 37.6275 122.308 37.8111C122.331 37.8854 122.365 37.9561 122.408 38.0208C122.424 38.0396 122.537 38.096 122.54 38.1147C122.543 38.1335 122.493 37.1943 122.493 37.1943C122.493 37.1943 124.953 38.6 126.516 36.9657Z" fill="url(#paint89_linear_12_537)"/>
<path d="M129.258 38.819C129.76 39.2918 129.638 40.5347 128.542 41.1358L128.285 39.0601C128.323 38.9709 128.382 38.8917 128.455 38.8288C128.529 38.7659 128.617 38.721 128.711 38.6977C128.806 38.6743 128.904 38.6731 128.999 38.6942C129.094 38.7152 129.182 38.758 129.258 38.819Z" fill="url(#paint90_linear_12_537)"/>
<path d="M125.254 47.0531L124.294 46.3048L125.157 44.2729C125.157 44.2729 125.289 46.9936 125.254 47.0531Z" fill="url(#paint91_linear_12_537)"/>
<path d="M125.157 44.2604L124.294 46.2892L122.697 46.5991L125.157 44.0757V44.2604Z" fill="url(#paint92_linear_12_537)"/>
<path d="M129.955 43.4714L127.388 47.4475L125.74 46.0574L129.126 42.8264L129.955 43.4714Z" fill="url(#paint93_linear_12_537)"/>
<path d="M125.74 46.0576L125.254 47.0407L126.252 46.4709L125.74 46.0576Z" fill="url(#paint94_linear_12_537)"/>
<path d="M89.0706 47.8995L89.0525 62.6487C89.0517 63.3283 89.6031 63.8798 90.2842 63.8807L114.345 63.91C115.026 63.9108 115.579 63.3606 115.58 62.6811L115.598 47.9318C115.599 47.2523 115.047 46.7007 114.366 46.6999L90.3053 46.6706C89.6242 46.6697 89.0714 47.2199 89.0706 47.8995Z" fill="url(#paint95_linear_12_537)"/>
<path d="M111.689 50.7036C111.689 51.0654 111.581 51.419 111.38 51.7198C111.178 52.0205 110.892 52.2549 110.557 52.3932C110.222 52.5315 109.853 52.5675 109.498 52.4967C109.142 52.4259 108.816 52.2514 108.56 51.9954C108.303 51.7394 108.129 51.4133 108.059 51.0584C107.988 50.7035 108.025 50.3358 108.164 50.0018C108.304 49.6677 108.539 49.3824 108.841 49.1819C109.142 48.9813 109.497 48.8746 109.86 48.8752C110.345 48.8761 110.81 49.0691 111.153 49.4119C111.496 49.7547 111.689 50.2193 111.689 50.7036Z" fill="url(#paint96_linear_12_537)"/>
<path d="M112.2 52.6072H112.062C111.556 52.5891 111.077 52.3734 110.729 52.0065C110.38 51.6396 110.19 51.1508 110.199 50.6454C110.208 50.1399 110.415 49.6582 110.777 49.304C111.138 48.9497 111.625 48.7512 112.131 48.7512C112.638 48.7512 113.124 48.9497 113.486 49.304C113.847 49.6582 114.055 50.1399 114.064 50.6454C114.073 51.1508 113.883 51.6396 113.534 52.0065C113.186 52.3734 112.707 52.5891 112.2 52.6072ZM111.937 48.9629C111.473 48.9797 111.035 49.1774 110.716 49.5134C110.397 49.8494 110.223 50.2969 110.232 50.7596C110.24 51.2223 110.43 51.6632 110.761 51.9874C111.092 52.3116 111.537 52.4933 112.001 52.4933C112.465 52.4933 112.91 52.3116 113.241 51.9874C113.572 51.6632 113.762 51.2223 113.771 50.7596C113.779 50.2969 113.605 49.8494 113.286 49.5134C112.967 49.1774 112.529 48.9797 112.066 48.9629H111.937Z" fill="white"/>
<path d="M91.4154 57.698V59.1664H91.2648V57.8326H90.9165V57.698H91.4154Z" fill="white"/>
<path d="M92.9278 59.0191V59.1537H91.8955V59.0473L92.5074 58.4493C92.6737 58.2865 92.7051 58.1863 92.7051 58.0861C92.7051 57.9171 92.5858 57.8106 92.363 57.8106C92.2881 57.8061 92.2132 57.8184 92.1437 57.8465C92.0742 57.8747 92.0119 57.9181 91.9614 57.9734L91.8516 57.8826C91.9183 57.8116 91.9998 57.7561 92.0903 57.7198C92.1808 57.6836 92.2782 57.6676 92.3756 57.6729C92.6737 57.6729 92.862 57.8263 92.862 58.0705C92.8583 58.1602 92.8347 58.2481 92.793 58.3277C92.7512 58.4072 92.6922 58.4766 92.6203 58.5307L92.1183 59.0191H92.9278Z" fill="white"/>
<path d="M94.4778 58.7686H94.1828V59.1537H94.0322V58.7686H93.2007V58.659L93.982 57.6885H94.1515L93.3984 58.6277H94.0259V58.2927H94.1703V58.6371H94.4652L94.4778 58.7686Z" fill="white"/>
<path d="M96.7341 58.7718H96.4392V59.1569H96.2886V58.7718H95.457V58.6622L96.2384 57.6917H96.4204L95.6673 58.6309H96.2948V58.2896H96.4423V58.6372H96.7341V58.7718Z" fill="white"/>
<path d="M98.0237 58.7248C98.0237 58.9752 97.848 59.1693 97.4871 59.1693C97.2937 59.1766 97.105 59.1094 96.96 58.9815L97.0321 58.8625C97.1554 58.9747 97.3172 59.0352 97.484 59.0316C97.735 59.0316 97.8699 58.9095 97.8699 58.7185C97.8699 58.5275 97.7507 58.4054 97.3773 58.4054H97.0635L97.1388 57.6697H97.9452V57.8043H97.2737L97.2204 58.2708H97.4118C97.8543 58.2927 98.0237 58.4649 98.0237 58.7248Z" fill="white"/>
<path d="M99.4766 58.7217C99.476 58.785 99.4622 58.8476 99.4361 58.9054C99.41 58.9632 99.3722 59.0149 99.325 59.0573C99.2777 59.0997 99.2222 59.1318 99.1619 59.1517C99.1016 59.1715 99.0378 59.1786 98.9745 59.1725C98.5823 59.1725 98.3721 58.9001 98.3721 58.4368C98.3721 57.9734 98.6451 57.6791 99.0467 57.6791C99.1677 57.6738 99.288 57.7009 99.395 57.7574L99.3323 57.8795C99.2458 57.8293 99.1466 57.8054 99.0467 57.8106C98.7329 57.8106 98.5258 58.0141 98.5258 58.4117C98.5229 58.4513 98.5229 58.4911 98.5258 58.5307C98.5682 58.45 98.6332 58.3834 98.7129 58.3389C98.7925 58.2945 98.8835 58.2741 98.9745 58.2802C99.0374 58.2722 99.1011 58.2777 99.1617 58.2962C99.2222 58.3147 99.2781 58.3459 99.3256 58.3877C99.3731 58.4294 99.4112 58.4808 99.4372 58.5384C99.4632 58.596 99.4767 58.6585 99.4766 58.7217ZM99.3291 58.7217C99.3291 58.5307 99.1848 58.4086 98.9588 58.4086C98.9132 58.4034 98.8669 58.4075 98.8228 58.4205C98.7787 58.4336 98.7378 58.4554 98.7023 58.4846C98.6669 58.5138 98.6377 58.5499 98.6165 58.5906C98.5954 58.6314 98.5827 58.6759 98.5792 58.7217C98.5792 58.8845 98.7141 59.0348 98.9683 59.0348C99.013 59.0415 99.0586 59.0386 99.1021 59.0261C99.1455 59.0136 99.1858 58.9919 99.2201 58.9625C99.2543 58.9331 99.2818 58.8966 99.3006 58.8556C99.3195 58.8145 99.3292 58.7699 99.3291 58.7248V58.7217Z" fill="white"/>
<path d="M101.491 58.7406C101.491 58.9879 101.312 59.1757 100.958 59.1757C100.763 59.182 100.573 59.1137 100.427 58.9848L100.503 58.8658C100.563 58.9227 100.635 58.967 100.713 58.996C100.791 59.025 100.874 59.0382 100.958 59.0349C101.202 59.0349 101.337 58.9221 101.337 58.7406C101.337 58.559 101.212 58.4494 100.939 58.4494H100.835V58.3242L101.243 57.817H100.499V57.698H101.441V57.8044L101.02 58.3242C101.334 58.3398 101.494 58.5057 101.491 58.7406Z" fill="white"/>
<path d="M102.969 58.7247C102.968 58.7881 102.955 58.8506 102.929 58.9084C102.902 58.9662 102.865 59.0179 102.817 59.0603C102.77 59.1027 102.715 59.1348 102.654 59.1547C102.594 59.1745 102.53 59.1816 102.467 59.1755C102.075 59.1755 101.861 58.9063 101.865 58.4398C101.868 57.9733 102.138 57.6822 102.536 57.6822C102.658 57.6774 102.78 57.7055 102.887 57.7635L102.825 57.8857C102.739 57.833 102.64 57.8078 102.539 57.8136C102.225 57.8136 102.018 58.0171 102.015 58.4179C102.015 58.4492 102.015 58.493 102.015 58.5369C102.058 58.4554 102.123 58.388 102.203 58.3429C102.283 58.2979 102.375 58.2772 102.467 58.2833C102.53 58.2758 102.593 58.2816 102.654 58.3003C102.714 58.319 102.77 58.3502 102.817 58.3919C102.864 58.4336 102.902 58.4848 102.929 58.5421C102.955 58.5995 102.969 58.6617 102.969 58.7247ZM102.818 58.7247C102.819 58.6787 102.81 58.6331 102.791 58.5912C102.772 58.5493 102.744 58.512 102.709 58.4822C102.674 58.4523 102.632 58.4304 102.588 58.4183C102.543 58.4061 102.497 58.4038 102.451 58.4116C102.406 58.4064 102.359 58.4105 102.315 58.4236C102.271 58.4366 102.23 58.4584 102.195 58.4877C102.159 58.5169 102.13 58.5529 102.109 58.5937C102.088 58.6344 102.075 58.679 102.072 58.7247C102.072 58.8844 102.207 59.0378 102.461 59.0378C102.505 59.044 102.55 59.0408 102.593 59.0283C102.636 59.0157 102.675 58.9943 102.709 58.9652C102.743 58.9362 102.77 58.9003 102.789 58.8599C102.808 58.8195 102.818 58.7755 102.818 58.731V58.7247Z" fill="white"/>
<path d="M104.324 57.698V57.8044L103.697 59.1664H103.534L104.139 57.8326H103.383V58.1081H103.232V57.698H104.324Z" fill="white"/>
<path d="M106.43 57.698V57.8044L105.803 59.1664H105.639L106.245 57.8295H105.489V58.105H105.338V57.698H106.43Z" fill="white"/>
<path d="M107.877 58.7625C107.877 59.0223 107.657 59.182 107.306 59.182C106.954 59.182 106.738 59.0192 106.738 58.7593C106.736 58.6757 106.764 58.5942 106.816 58.5286C106.868 58.463 106.941 58.4173 107.023 58.3993C106.956 58.3786 106.897 58.3371 106.856 58.2808C106.814 58.2244 106.791 58.1563 106.791 58.0862C106.791 57.8451 106.995 57.698 107.306 57.698C107.616 57.698 107.826 57.8483 107.826 58.0862C107.826 58.1566 107.802 58.2248 107.76 58.2811C107.718 58.3373 107.659 58.3787 107.591 58.3993C107.673 58.4185 107.746 58.4649 107.798 58.5309C107.85 58.5969 107.877 58.6786 107.877 58.7625ZM107.723 58.7625C107.723 58.5809 107.566 58.4682 107.306 58.4682C107.045 58.4682 106.891 58.5809 106.891 58.7625C106.891 58.9441 107.045 59.0568 107.306 59.0568C107.566 59.0568 107.717 58.9503 107.717 58.7593L107.723 58.7625ZM107.306 58.3492C107.535 58.3492 107.673 58.2459 107.673 58.0862C107.673 57.9265 107.528 57.8201 107.306 57.8201C107.083 57.8201 106.942 57.9203 106.942 58.0831C106.942 58.2459 107.089 58.3461 107.306 58.3461V58.3492Z" fill="white"/>
<path d="M109.307 58.4243C109.307 58.9252 109.034 59.185 108.633 59.185C108.512 59.1894 108.391 59.1613 108.285 59.1036L108.347 58.9815C108.433 59.0328 108.533 59.0578 108.633 59.0535C108.947 59.0535 109.154 58.85 109.154 58.4493C109.157 58.4097 109.157 58.3699 109.154 58.3303C109.112 58.4115 109.047 58.4786 108.967 58.5232C108.887 58.5677 108.796 58.5878 108.705 58.5808C108.643 58.5878 108.58 58.5817 108.52 58.5627C108.46 58.5438 108.405 58.5124 108.358 58.4707C108.311 58.4291 108.274 58.378 108.248 58.3209C108.223 58.2638 108.209 58.2019 108.209 58.1394C108.21 58.0761 108.224 58.0136 108.25 57.956C108.276 57.8984 108.314 57.8468 108.361 57.8047C108.408 57.7625 108.464 57.7307 108.524 57.7112C108.584 57.6918 108.648 57.6851 108.711 57.6916C109.097 57.6979 109.307 57.9609 109.307 58.4243ZM109.1 58.1331C109.1 57.9734 108.965 57.82 108.711 57.82C108.666 57.8132 108.62 57.8162 108.577 57.8289C108.533 57.8415 108.493 57.8635 108.458 57.8933C108.424 57.9231 108.397 57.9599 108.378 58.0013C108.359 58.0428 108.35 58.0877 108.35 58.1331C108.35 58.3272 108.495 58.4462 108.721 58.4462C108.766 58.4514 108.813 58.4473 108.857 58.4342C108.901 58.4212 108.942 58.3994 108.977 58.3701C109.013 58.3409 109.042 58.3049 109.063 58.2641C109.084 58.2234 109.097 58.1788 109.1 58.1331Z" fill="white"/>
<path d="M110.801 57.698V59.1695H110.651V57.8326H110.302V57.698H110.801Z" fill="white"/>
<path d="M112.314 59.041V59.1756H111.281V59.0692L111.909 58.4712C112.075 58.3084 112.106 58.2082 112.106 58.108C112.106 57.9389 111.987 57.8325 111.761 57.8325C111.686 57.8282 111.612 57.8406 111.542 57.8687C111.473 57.8969 111.41 57.9401 111.36 57.9953L111.253 57.9045C111.319 57.8332 111.4 57.7774 111.49 57.7412C111.58 57.7049 111.677 57.689 111.774 57.6947C112.072 57.6947 112.26 57.845 112.26 58.0924C112.257 58.1817 112.233 58.2692 112.191 58.3483C112.15 58.4274 112.091 58.4961 112.019 58.5495L111.517 59.041H112.314Z" fill="white"/>
<path d="M113.635 58.7562C113.635 59.0004 113.456 59.1914 113.101 59.1914C112.907 59.1961 112.717 59.128 112.571 59.0004L112.646 58.8814C112.77 58.9946 112.933 59.0553 113.101 59.0505C113.346 59.0505 113.481 58.9378 113.481 58.7562C113.481 58.5746 113.355 58.4651 113.082 58.4651H112.979V58.3523L113.387 57.842H112.634V57.698H113.575V57.8044L113.164 58.3242C113.478 58.3555 113.638 58.5214 113.635 58.7562Z" fill="white"/>
<path d="M102.33 60.2597L102.329 60.8984L114.124 60.9128L114.125 60.2741L102.33 60.2597Z" fill="url(#paint97_linear_12_537)"/>
<path d="M108.053 61.5305L108.053 62.1692L114.103 62.1755L114.103 61.5368L108.053 61.5305Z" fill="url(#paint98_linear_12_537)"/>
<path d="M93.9147 52.728L92.0791 52.7258C91.2195 52.7247 90.5219 53.4191 90.5208 54.2768L90.5201 54.8591C90.519 55.7167 91.215 56.4128 92.0746 56.4139L93.9102 56.4161C94.7698 56.4172 95.4674 55.7228 95.4685 54.8651L95.4692 54.2828C95.4702 53.4252 94.7743 52.7291 93.9147 52.728Z" fill="url(#paint99_linear_12_537)"/>
<path d="M90.5149 55.3968V55.162H93.066C93.2074 55.162 93.3431 55.106 93.4432 55.0061C93.5432 54.9063 93.5994 54.771 93.5994 54.6298C93.5994 54.4886 93.5432 54.3533 93.4432 54.2535C93.3431 54.1536 93.2074 54.0976 93.066 54.0976H90.518V53.8596H93.066C93.2618 53.8721 93.4455 53.9585 93.5797 54.1013C93.714 54.244 93.7887 54.4325 93.7887 54.6282C93.7887 54.824 93.714 55.0124 93.5797 55.1552C93.4455 55.298 93.2618 55.3844 93.066 55.3968H90.5149Z" fill="url(#paint100_linear_12_537)"/>
<path d="M93.4456 54.3448V54.5828H95.1933V54.3448H93.4456Z" fill="url(#paint101_linear_12_537)"/>
<path d="M103.84 49.7001L91.1133 49.6846L91.1119 50.7741L103.839 50.7896L103.84 49.7001Z" fill="url(#paint102_linear_12_537)"/>
<path d="M129.054 61.1418C129.368 61.3265 131.818 57.0498 132.013 56.7179C132.87 55.2496 136.877 45.2247 132.126 46.189C131.796 46.2682 131.485 46.4129 131.212 46.6147C130.939 46.8164 130.71 47.0709 130.538 47.3631C129.004 49.708 126.095 57.9139 126.095 57.9139L129.054 61.1418Z" fill="white"/>
<path d="M128.477 61.4142C128.368 61.4506 128.257 61.4778 128.144 61.4956C127.705 61.5536 127.258 61.4885 126.853 61.3077C126.449 61.127 126.103 60.8376 125.853 60.4718C124.774 58.8313 125.97 56.5928 127.821 56.3016C128.303 56.2216 128.798 56.2945 129.236 56.5103C129.674 56.726 130.033 57.0735 130.262 57.5038C130.479 57.9969 130.523 58.5482 130.388 59.0692C130.146 60.0899 129.506 61.0698 128.477 61.4142Z" fill="url(#paint103_linear_12_537)"/>
<path d="M111.761 62.6445H111.796C111.529 62.6445 111.269 62.6445 111.005 62.6445C110.741 62.6445 110.431 62.5913 110.148 62.5537C109.586 62.4775 109.028 62.373 108.476 62.2406C108.388 62.2254 108.305 62.1923 108.231 62.1435C108.194 62.119 108.165 62.0836 108.149 62.0421C108.133 62.0006 108.13 61.9551 108.14 61.9119C108.181 61.7804 108.354 61.7585 108.492 61.7585H111.4C110.38 61.6454 109.378 61.4078 108.416 61.0509C108.318 61.0225 108.227 60.9734 108.15 60.9069C108.112 60.8724 108.085 60.8278 108.072 60.7783C108.059 60.7288 108.061 60.6766 108.077 60.6282C108.143 60.4748 108.363 60.4779 108.529 60.5061L110.889 60.91L108.903 60.2838C108.805 60.2618 108.714 60.2179 108.636 60.1555C108.598 60.1238 108.572 60.0808 108.56 60.0328C108.549 59.9849 108.553 59.9345 108.573 59.8894C108.639 59.7766 108.796 59.7735 108.925 59.7892C109.929 59.8894 110.933 60.0209 111.943 60.0584C112.194 60.0584 112.439 60.0803 112.693 60.0741C112.608 60.0741 112.426 59.8518 112.379 59.7954C112.279 59.687 112.189 59.5696 112.11 59.4448C112.025 59.3287 111.964 59.1969 111.931 59.0572C111.897 58.9175 111.892 58.7725 111.915 58.6308C111.925 58.5641 111.958 58.503 112.009 58.4586C112.049 58.4362 112.095 58.4267 112.14 58.4311C112.186 58.4356 112.229 58.4539 112.263 58.4836C112.349 58.5726 112.424 58.6714 112.486 58.7779C112.641 58.9644 112.827 59.1232 113.035 59.2475L113.813 59.5888L115.034 60.1304L116.327 60.3809C116.461 60.3623 116.591 60.3221 116.713 60.2619C118.774 59.6358 120.845 59.066 122.935 58.5588C124.034 58.2757 125.148 58.05 126.271 57.8825C126.722 57.7904 127.183 57.7629 127.642 57.8011C128.332 57.9263 129.148 58.4492 129.274 59.1881C129.779 62.1592 122.003 62.1529 121.429 62.1404C120.914 62.1404 117.089 62.4692 116.575 62.5944L115.891 62.7603L114.899 63.0014C114.761 63.0327 114.623 63.0828 114.488 63.1141C114.321 63.1407 114.152 63.1533 113.983 63.1517C112.624 63.236 111.261 63.2245 109.904 63.1172C109.838 63.1172 109.759 63.0984 109.728 63.0421C109.714 63.0102 109.712 62.9744 109.723 62.9415C109.734 62.9085 109.757 62.8808 109.788 62.8636C109.848 62.831 109.916 62.8138 109.985 62.8135L111.761 62.6445Z" fill="url(#paint104_linear_12_537)"/>
<path d="M47.5386 81.4294L45.386 103.683L66.5414 103.69L64.4955 81.3918L47.5386 81.4294Z" fill="url(#paint105_linear_12_537)"/>
<path d="M52.0226 82.9103C51.8783 82.9022 51.7354 82.9416 51.6157 83.0225C51.4961 83.1034 51.4064 83.2213 51.3605 83.358V83.3267V83.3706C51.3573 83.4028 51.3573 83.4353 51.3605 83.4676C51.3557 83.5019 51.3557 83.5367 51.3605 83.5709C51.4076 83.7082 51.4984 83.8263 51.6191 83.9071C51.7399 83.988 51.8838 84.0271 52.0289 84.0186C52.1113 84.035 52.1963 84.033 52.2778 84.0127C52.3593 83.9924 52.4353 83.9542 52.5002 83.9011C52.5652 83.8479 52.6175 83.7811 52.6534 83.7053C52.6894 83.6295 52.708 83.5467 52.708 83.4629C52.708 83.3791 52.6894 83.2963 52.6534 83.2206C52.6175 83.1448 52.5652 83.0779 52.5002 83.0248C52.4353 82.9716 52.3593 82.9335 52.2778 82.9132C52.1963 82.8928 52.1113 82.8908 52.0289 82.9072L52.0226 82.9103Z" fill="url(#paint106_linear_12_537)"/>
<path d="M59.908 82.8915C59.8113 82.8897 59.7152 82.907 59.6252 82.9425C59.5353 82.9779 59.4533 83.0308 59.384 83.0982C59.3356 83.1429 59.2969 83.1972 59.2705 83.2575C59.244 83.3178 59.2303 83.383 59.2302 83.4488C59.2484 83.6117 59.3299 83.761 59.4573 83.8646C59.5846 83.9682 59.7475 84.0179 59.9111 84.003C60.0851 84.0047 60.2544 83.9473 60.3912 83.8402C60.4516 83.7933 60.5008 83.7336 60.535 83.6653C60.5692 83.5971 60.5876 83.522 60.5889 83.4457C60.5707 83.2828 60.4892 83.1335 60.3619 83.0299C60.2346 82.9263 60.0716 82.8766 59.908 82.8915Z" fill="url(#paint107_linear_12_537)"/>
<path d="M55.7316 88.3299H55.9575C57.4041 88.2829 58.5086 87.8164 59.2397 86.946C60.4478 85.5059 60.1811 83.5021 60.1623 83.4145C60.1581 83.3812 60.1472 83.349 60.1303 83.32C60.1133 83.2909 60.0907 83.2656 60.0638 83.2454C60.0369 83.2252 60.0062 83.2107 59.9735 83.2026C59.9408 83.1946 59.9068 83.1932 59.8736 83.1985C59.8401 83.2027 59.8077 83.2135 59.7785 83.2304C59.7492 83.2472 59.7236 83.2697 59.7032 83.2965C59.6827 83.3233 59.6678 83.3539 59.6594 83.3865C59.6509 83.4192 59.6491 83.4531 59.6539 83.4865C59.6539 83.5053 59.9081 85.365 58.8444 86.6173C58.2168 87.3687 57.2346 87.7726 55.9387 87.8164C54.6428 87.8602 53.7422 87.5284 53.1146 86.8365C51.985 85.5841 52.2643 83.5209 52.2674 83.5021C52.2736 83.4367 52.2544 83.3714 52.2137 83.3197C52.1731 83.2679 52.1141 83.2337 52.0489 83.2241C51.9838 83.2145 51.9174 83.2302 51.8635 83.2679C51.8095 83.3056 51.7722 83.3626 51.7591 83.427C51.7591 83.5209 51.4453 85.7407 52.7318 87.184C53.4315 87.9416 54.4357 88.3299 55.7316 88.3299Z" fill="white"/>
<path d="M45.386 103.683L47.6327 100.302L47.5386 81.4294L45.386 103.683Z" fill="url(#paint108_linear_12_537)"/>
<path d="M66.5416 103.668L64.2949 100.283L64.3891 81.4138L66.5416 103.668Z" fill="url(#paint109_linear_12_537)"/>
<path d="M34.5039 88.3549L32.9915 103.978L47.8398 103.981L46.4058 88.3298L34.5039 88.3549Z" fill="url(#paint110_linear_12_537)"/>
<path d="M37.6513 89.3974C37.5502 89.3915 37.4499 89.4189 37.366 89.4755C37.282 89.5321 37.2191 89.6147 37.1869 89.7105V89.6886V89.7199C37.1838 89.7417 37.1838 89.7638 37.1869 89.7857C37.1852 89.8107 37.1852 89.8358 37.1869 89.8608C37.2192 89.9572 37.2826 90.0401 37.3672 90.0968C37.4518 90.1534 37.5528 90.1805 37.6544 90.1739C37.7123 90.1855 37.772 90.1842 37.8292 90.17C37.8865 90.1558 37.9399 90.129 37.9856 90.0918C38.0312 90.0545 38.068 90.0075 38.0933 89.9543C38.1185 89.9011 38.1316 89.843 38.1316 89.7841C38.1316 89.7252 38.1185 89.6671 38.0933 89.6139C38.068 89.5607 38.0312 89.5137 37.9856 89.4764C37.9399 89.4391 37.8865 89.4124 37.8292 89.3982C37.772 89.384 37.7123 89.3827 37.6544 89.3943L37.6513 89.3974Z" fill="url(#paint111_linear_12_537)"/>
<path d="M43.1832 89.3849C43.1155 89.3835 43.0482 89.3955 42.9852 89.4202C42.9222 89.4449 42.8647 89.4819 42.8161 89.5289C42.7821 89.56 42.7548 89.5977 42.736 89.6397C42.7171 89.6817 42.707 89.7271 42.7063 89.7731C42.7197 89.8876 42.7775 89.9922 42.8672 90.0647C42.9569 90.1373 43.0714 90.1719 43.1864 90.1614C43.3078 90.1623 43.426 90.1226 43.5221 90.0486C43.564 90.0156 43.598 89.9738 43.6219 89.9262C43.6458 89.8786 43.6588 89.8263 43.6602 89.7731C43.6475 89.659 43.5905 89.5543 43.5013 89.4817C43.4121 89.4091 43.2979 89.3744 43.1832 89.3849Z" fill="url(#paint112_linear_12_537)"/>
<path d="M40.2526 93.2013H40.4126C41.4293 93.1669 42.2044 92.8413 42.7158 92.2307C43.5631 91.2195 43.3717 89.8106 43.3622 89.7511C43.356 89.7042 43.3313 89.6617 43.2937 89.633C43.256 89.6042 43.2084 89.5915 43.1614 89.5977C43.1141 89.6047 43.0715 89.63 43.0427 89.6681C43.014 89.7061 43.0014 89.754 43.0077 89.8012C43.0077 89.8012 43.1834 91.1162 42.4397 91.9928C41.9941 92.5219 41.3069 92.8037 40.4001 92.835C39.4933 92.8663 38.8625 92.6315 38.4264 92.1462C37.6325 91.2665 37.8271 89.82 37.8302 89.8044C37.8365 89.7571 37.8239 89.7093 37.7951 89.6712C37.7663 89.6331 37.7237 89.6079 37.6764 89.6009C37.6292 89.5954 37.5817 89.6083 37.5437 89.6369C37.5057 89.6654 37.4802 89.7075 37.4725 89.7543C37.4725 89.82 37.2528 91.3792 38.1565 92.3842C38.4256 92.6639 38.7525 92.8818 39.1144 93.0229C39.4764 93.164 39.8647 93.2249 40.2526 93.2013Z" fill="white"/>
<path d="M32.9915 103.977L34.5698 101.604L34.5039 88.3547L32.9915 103.977Z" fill="url(#paint113_linear_12_537)"/>
<path d="M47.8399 103.965L46.2646 101.592L46.3305 88.3455L47.8399 103.965Z" fill="url(#paint114_linear_12_537)"/>
<path d="M35.1316 101.711C36.0102 101.607 36.8888 101.551 37.7674 101.514C38.646 101.476 39.5246 101.463 40.4063 101.46C41.2881 101.457 42.1635 101.476 43.0421 101.514C43.9207 101.551 44.7993 101.604 45.6811 101.711C44.7993 101.814 43.9207 101.87 43.0421 101.905C42.1635 101.939 41.2849 101.955 40.4063 101.961C39.5277 101.967 38.646 101.946 37.7674 101.905C36.8888 101.864 36.0102 101.814 35.1316 101.711Z" fill="url(#paint115_linear_12_537)"/>
<path style="mix-blend-mode:multiply" opacity="0.14" d="M127.043 103.664C139.304 103.664 149.243 102.317 149.243 100.656C149.243 98.994 139.304 97.647 127.043 97.647C114.782 97.647 104.842 98.994 104.842 100.656C104.842 102.317 114.782 103.664 127.043 103.664Z" fill="url(#paint116_linear_12_537)"/>
<path d="M138.524 6.59364C141.232 6.59364 141.235 2.39209 138.524 2.39209C135.813 2.39209 135.81 6.59364 138.524 6.59364Z" fill="url(#paint117_linear_12_537)"/>
<path d="M94.1924 18.0587C98.5289 18.0587 98.5352 11.3337 94.1924 11.3337C89.8496 11.3337 89.8496 18.0587 94.1924 18.0587Z" fill="url(#paint118_linear_12_537)"/>
<path d="M161.901 24.8839C166.235 24.8839 166.244 18.1589 161.901 18.1589C157.558 18.1589 157.558 24.8839 161.901 24.8839Z" fill="url(#paint119_linear_12_537)"/>
<path d="M36.2361 5.46644H36.8951C37.2615 5.4818 37.6253 5.39969 37.9494 5.2285C38.2806 5.10629 38.5814 4.91401 38.8311 4.66488C39.0808 4.41574 39.2735 4.11565 39.396 3.7852C39.5675 3.46185 39.6498 3.09879 39.6344 2.73324C39.5999 2.49217 39.5685 2.2511 39.534 2.0069C39.4081 1.55123 39.166 1.13592 38.8311 0.80153C38.3106 0.300026 37.6186 0.0146415 36.8951 0.00317383H36.2361C35.5133 0.0309516 34.8239 0.313874 34.2907 0.80153C34.0293 1.04112 33.8347 1.34424 33.7258 1.68129C33.5538 2.00436 33.4725 2.36784 33.4905 2.73324C33.5219 2.97745 33.5564 3.21852 33.5878 3.45959C33.7142 3.91504 33.9563 4.33022 34.2907 4.66496C34.8103 5.16814 35.5027 5.45476 36.2267 5.46644H36.2361Z" fill="url(#paint120_linear_12_537)"/>
<path d="M24.4033 15.9548C26.0287 15.9548 26.0318 13.4502 24.4033 13.4502C22.7747 13.4502 22.7747 15.9548 24.4033 15.9548Z" fill="url(#paint121_linear_12_537)"/>
<path d="M120.582 9.53037C123.293 9.53037 123.296 5.32568 120.582 5.32568C117.868 5.32568 117.868 9.53037 120.582 9.53037Z" fill="url(#paint122_linear_12_537)"/>
<path d="M2.84927 23.7537C6.63981 23.7537 6.64608 17.8708 2.84927 17.8708C-0.947537 17.8708 -0.950675 23.7537 2.84927 23.7537Z" fill="url(#paint123_linear_12_537)"/>
</g>
<defs>
<linearGradient id="paint0_linear_12_537" x1="49.4528" y1="102.052" x2="49.4528" y2="129.381" gradientUnits="userSpaceOnUse">
<stop stop-color="#0E090F"/>
<stop offset="1" stop-color="#38243D" stop-opacity="0.2"/>
</linearGradient>
<linearGradient id="paint1_linear_12_537" x1="74.5462" y1="87.0617" x2="74.5462" y2="114.391" gradientUnits="userSpaceOnUse">
<stop stop-color="#0E090F"/>
<stop offset="1" stop-color="#38243D" stop-opacity="0.2"/>
</linearGradient>
<linearGradient id="paint2_linear_12_537" x1="147.922" y1="3.18735" x2="147.922" y2="55.9071" gradientUnits="userSpaceOnUse">
<stop stop-color="#39C4E2" stop-opacity="0.97"/>
<stop offset="1" stop-color="#007A68"/>
</linearGradient>
<linearGradient id="paint3_linear_12_537" x1="146.369" y1="47.2047" x2="148.327" y2="47.2047" gradientUnits="userSpaceOnUse">
<stop stop-color="#071786"/>
<stop offset="0.15" stop-color="#05136B"/>
<stop offset="0.32" stop-color="#041055"/>
<stop offset="0.51" stop-color="#030E45"/>
<stop offset="0.72" stop-color="#020C3B"/>
<stop offset="1" stop-color="#020C38"/>
</linearGradient>
<linearGradient id="paint4_linear_12_537" x1="138.527" y1="25.9485" x2="148.163" y2="25.9486" gradientUnits="userSpaceOnUse">
<stop stop-color="#071786"/>
<stop offset="0.15" stop-color="#05136B"/>
<stop offset="0.32" stop-color="#041055"/>
<stop offset="0.51" stop-color="#030E45"/>
<stop offset="0.72" stop-color="#020C3B"/>
<stop offset="1" stop-color="#020C38"/>
</linearGradient>
<linearGradient id="paint5_linear_12_537" x1="147.234" y1="37.2965" x2="161.242" y2="37.2964" gradientUnits="userSpaceOnUse">
<stop stop-color="#071786"/>
<stop offset="0.15" stop-color="#05136B"/>
<stop offset="0.32" stop-color="#041055"/>
<stop offset="0.51" stop-color="#030E45"/>
<stop offset="0.72" stop-color="#020C3B"/>
<stop offset="1" stop-color="#020C38"/>
</linearGradient>
<linearGradient id="paint6_linear_12_537" x1="134.066" y1="45.0453" x2="147.555" y2="45.0452" gradientUnits="userSpaceOnUse">
<stop stop-color="#071786"/>
<stop offset="0.15" stop-color="#05136B"/>
<stop offset="0.32" stop-color="#041055"/>
<stop offset="0.51" stop-color="#030E45"/>
<stop offset="0.72" stop-color="#020C3B"/>
<stop offset="1" stop-color="#020C38"/>
</linearGradient>
<linearGradient id="paint7_linear_12_537" x1="73.2314" y1="36.0453" x2="73.2314" y2="60.7756" gradientUnits="userSpaceOnUse">
<stop stop-color="#39C4E2" stop-opacity="0.97"/>
<stop offset="1" stop-color="#007A68"/>
</linearGradient>
<linearGradient id="paint8_linear_12_537" x1="72.5021" y1="56.6912" x2="73.4215" y2="56.6912" gradientUnits="userSpaceOnUse">
<stop stop-color="#071786"/>
<stop offset="0.15" stop-color="#05136B"/>
<stop offset="0.32" stop-color="#041055"/>
<stop offset="0.51" stop-color="#030E45"/>
<stop offset="0.72" stop-color="#020C3B"/>
<stop offset="1" stop-color="#020C38"/>
</linearGradient>
<linearGradient id="paint9_linear_12_537" x1="68.8333" y1="46.7235" x2="73.3549" y2="46.7235" gradientUnits="userSpaceOnUse">
<stop stop-color="#071786"/>
<stop offset="0.15" stop-color="#05136B"/>
<stop offset="0.32" stop-color="#041055"/>
<stop offset="0.51" stop-color="#030E45"/>
<stop offset="0.72" stop-color="#020C3B"/>
<stop offset="1" stop-color="#020C38"/>
</linearGradient>
<linearGradient id="paint10_linear_12_537" x1="72.9084" y1="52.0451" x2="79.4791" y2="52.0451" gradientUnits="userSpaceOnUse">
<stop stop-color="#071786"/>
<stop offset="0.15" stop-color="#05136B"/>
<stop offset="0.32" stop-color="#041055"/>
<stop offset="0.51" stop-color="#030E45"/>
<stop offset="0.72" stop-color="#020C3B"/>
<stop offset="1" stop-color="#020C38"/>
</linearGradient>
<linearGradient id="paint11_linear_12_537" x1="66.7323" y1="55.6811" x2="73.0614" y2="55.681" gradientUnits="userSpaceOnUse">
<stop stop-color="#071786"/>
<stop offset="0.15" stop-color="#05136B"/>
<stop offset="0.32" stop-color="#041055"/>
<stop offset="0.51" stop-color="#030E45"/>
<stop offset="0.72" stop-color="#020C3B"/>
<stop offset="1" stop-color="#020C38"/>
</linearGradient>
<linearGradient id="paint12_linear_12_537" x1="109.474" y1="12.063" x2="109.474" y2="41.8778" gradientUnits="userSpaceOnUse">
<stop stop-color="#39C4E2" stop-opacity="0.97"/>
<stop offset="1" stop-color="#007A68"/>
</linearGradient>
<linearGradient id="paint13_linear_12_537" x1="108.598" y1="36.9557" x2="109.706" y2="36.9557" gradientUnits="userSpaceOnUse">
<stop stop-color="#071786"/>
<stop offset="0.15" stop-color="#05136B"/>
<stop offset="0.32" stop-color="#041055"/>
<stop offset="0.51" stop-color="#030E45"/>
<stop offset="0.72" stop-color="#020C3B"/>
<stop offset="1" stop-color="#020C38"/>
</linearGradient>
<linearGradient id="paint14_linear_12_537" x1="104.166" y1="24.936" x2="109.616" y2="24.9359" gradientUnits="userSpaceOnUse">
<stop stop-color="#071786"/>
<stop offset="0.15" stop-color="#05136B"/>
<stop offset="0.32" stop-color="#041055"/>
<stop offset="0.51" stop-color="#030E45"/>
<stop offset="0.72" stop-color="#020C3B"/>
<stop offset="1" stop-color="#020C38"/>
</linearGradient>
<linearGradient id="paint15_linear_12_537" x1="109.086" y1="31.355" x2="117.006" y2="31.355" gradientUnits="userSpaceOnUse">
<stop stop-color="#071786"/>
<stop offset="0.15" stop-color="#05136B"/>
<stop offset="0.32" stop-color="#041055"/>
<stop offset="0.51" stop-color="#030E45"/>
<stop offset="0.72" stop-color="#020C3B"/>
<stop offset="1" stop-color="#020C38"/>
</linearGradient>
<linearGradient id="paint16_linear_12_537" x1="101.638" y1="35.7361" x2="109.266" y2="35.736" gradientUnits="userSpaceOnUse">
<stop stop-color="#071786"/>
<stop offset="0.15" stop-color="#05136B"/>
<stop offset="0.32" stop-color="#041055"/>
<stop offset="0.51" stop-color="#030E45"/>
<stop offset="0.72" stop-color="#020C3B"/>
<stop offset="1" stop-color="#020C38"/>
</linearGradient>
<linearGradient id="paint17_linear_12_537" x1="16.6685" y1="3.18731" x2="16.6685" y2="41.3864" gradientUnits="userSpaceOnUse">
<stop stop-color="#39C4E2" stop-opacity="0.97"/>
<stop offset="1" stop-color="#007A68"/>
</linearGradient>
<linearGradient id="paint18_linear_12_537" x1="15.5449" y1="35.0777" x2="16.9632" y2="35.0777" gradientUnits="userSpaceOnUse">
<stop stop-color="#071786"/>
<stop offset="0.15" stop-color="#05136B"/>
<stop offset="0.32" stop-color="#041055"/>
<stop offset="0.51" stop-color="#030E45"/>
<stop offset="0.72" stop-color="#020C3B"/>
<stop offset="1" stop-color="#020C38"/>
</linearGradient>
<linearGradient id="paint19_linear_12_537" x1="9.869" y1="19.6763" x2="16.8539" y2="19.6763" gradientUnits="userSpaceOnUse">
<stop stop-color="#071786"/>
<stop offset="0.15" stop-color="#05136B"/>
<stop offset="0.32" stop-color="#041055"/>
<stop offset="0.51" stop-color="#030E45"/>
<stop offset="0.72" stop-color="#020C3B"/>
<stop offset="1" stop-color="#020C38"/>
</linearGradient>
<linearGradient id="paint20_linear_12_537" x1="16.173" y1="27.8999" x2="26.3208" y2="27.8999" gradientUnits="userSpaceOnUse">
<stop stop-color="#071786"/>
<stop offset="0.15" stop-color="#05136B"/>
<stop offset="0.32" stop-color="#041055"/>
<stop offset="0.51" stop-color="#030E45"/>
<stop offset="0.72" stop-color="#020C3B"/>
<stop offset="1" stop-color="#020C38"/>
</linearGradient>
<linearGradient id="paint21_linear_12_537" x1="6.62511" y1="33.5157" x2="16.3995" y2="33.5156" gradientUnits="userSpaceOnUse">
<stop stop-color="#071786"/>
<stop offset="0.15" stop-color="#05136B"/>
<stop offset="0.32" stop-color="#041055"/>
<stop offset="0.51" stop-color="#030E45"/>
<stop offset="0.72" stop-color="#020C3B"/>
<stop offset="1" stop-color="#020C38"/>
</linearGradient>
<linearGradient id="paint22_linear_12_537" x1="82.2936" y1="40.829" x2="82.2936" y2="83.9028" gradientUnits="userSpaceOnUse">
<stop stop-color="#E97FB3"/>
<stop offset="0.21" stop-color="#AD97C6"/>
<stop offset="0.49" stop-color="#64B4DE"/>
<stop offset="0.73" stop-color="#2ECAEF"/>
<stop offset="0.9" stop-color="#0DD7FA"/>
<stop offset="1" stop-color="#00DCFE"/>
</linearGradient>
<linearGradient id="paint23_linear_12_537" x1="0.157091" y1="77.6505" x2="162.924" y2="77.6505" gradientUnits="userSpaceOnUse">
<stop stop-color="#E2A53A"/>
<stop offset="0.37" stop-color="#EE8235"/>
<stop offset="0.78" stop-color="#F96031"/>
<stop offset="1" stop-color="#FD532F"/>
</linearGradient>
<linearGradient id="paint24_linear_12_537" x1="74.8945" y1="60.9382" x2="50.5259" y2="60.9382" gradientUnits="userSpaceOnUse">
<stop stop-color="#F4EDF6"/>
<stop offset="1" stop-color="#C3E7EC" stop-opacity="0.97"/>
</linearGradient>
<linearGradient id="paint25_linear_12_537" x1="82.8113" y1="68.1736" x2="84.0733" y2="99.6417" gradientUnits="userSpaceOnUse">
<stop stop-color="#E6A224"/>
<stop offset="0.35" stop-color="#E68349"/>
<stop offset="0.78" stop-color="#E56171"/>
<stop offset="1" stop-color="#E55480"/>
</linearGradient>
<linearGradient id="paint26_linear_12_537" x1="111.972" y1="84.2221" x2="83.6995" y2="84.2221" gradientUnits="userSpaceOnUse">
<stop stop-color="#E6A224"/>
<stop offset="0.35" stop-color="#E68349"/>
<stop offset="0.78" stop-color="#E56171"/>
<stop offset="1" stop-color="#E55480"/>
</linearGradient>
<linearGradient id="paint27_linear_12_537" x1="109.078" y1="84.025" x2="89.8056" y2="84.025" gradientUnits="userSpaceOnUse">
<stop stop-color="#2D9AB4"/>
<stop offset="1" stop-color="#33897A"/>
</linearGradient>
<linearGradient id="paint28_linear_12_537" x1="87.8382" y1="68.5681" x2="60.7773" y2="68.5681" gradientUnits="userSpaceOnUse">
<stop stop-color="#44C8F5"/>
<stop offset="1" stop-color="#B1E3FA"/>
</linearGradient>
<linearGradient id="paint29_linear_12_537" x1="62.3055" y1="66.0195" x2="77.2137" y2="69.1639" gradientUnits="userSpaceOnUse">
<stop stop-color="white"/>
<stop offset="0.25" stop-color="white" stop-opacity="0.75"/>
<stop offset="1" stop-color="white" stop-opacity="0"/>
</linearGradient>
<linearGradient id="paint30_linear_12_537" x1="82.0457" y1="78.8654" x2="82.0457" y2="70.0866" gradientUnits="userSpaceOnUse">
<stop stop-color="#4D95AE"/>
<stop offset="1" stop-color="#8BB0EC" stop-opacity="0.97"/>
</linearGradient>
<linearGradient id="paint31_linear_12_537" x1="85.1679" y1="74.6012" x2="78.9235" y2="74.6012" gradientUnits="userSpaceOnUse">
<stop stop-color="#F4EDF6"/>
<stop offset="1" stop-color="#C3E7EC" stop-opacity="0.97"/>
</linearGradient>
<linearGradient id="paint32_linear_12_537" x1="88.5882" y1="78.8654" x2="88.5882" y2="70.0866" gradientUnits="userSpaceOnUse">
<stop stop-color="#4D95AE"/>
<stop offset="1" stop-color="#8BB0EC" stop-opacity="0.97"/>
</linearGradient>
<linearGradient id="paint33_linear_12_537" x1="91.7104" y1="74.6012" x2="85.4661" y2="74.6012" gradientUnits="userSpaceOnUse">
<stop stop-color="#F4EDF6"/>
<stop offset="1" stop-color="#C3E7EC" stop-opacity="0.97"/>
</linearGradient>
<linearGradient id="paint34_linear_12_537" x1="94.4466" y1="78.8654" x2="94.4466" y2="70.0866" gradientUnits="userSpaceOnUse">
<stop stop-color="#4D95AE"/>
<stop offset="1" stop-color="#8BB0EC" stop-opacity="0.97"/>
</linearGradient>
<linearGradient id="paint35_linear_12_537" x1="97.5688" y1="74.6012" x2="91.3245" y2="74.6012" gradientUnits="userSpaceOnUse">
<stop stop-color="#F4EDF6"/>
<stop offset="1" stop-color="#C3E7EC" stop-opacity="0.97"/>
</linearGradient>
<linearGradient id="paint36_linear_12_537" x1="77.6715" y1="78.8654" x2="77.6715" y2="70.0866" gradientUnits="userSpaceOnUse">
<stop stop-color="#4D95AE"/>
<stop offset="1" stop-color="#8BB0EC" stop-opacity="0.97"/>
</linearGradient>
<linearGradient id="paint37_linear_12_537" x1="80.7936" y1="72.3658" x2="74.5461" y2="72.3658" gradientUnits="userSpaceOnUse">
<stop stop-color="#F4EDF6"/>
<stop offset="1" stop-color="#C3E7EC" stop-opacity="0.97"/>
</linearGradient>
<linearGradient id="paint38_linear_12_537" x1="84.214" y1="78.8654" x2="84.214" y2="70.0866" gradientUnits="userSpaceOnUse">
<stop stop-color="#4D95AE"/>
<stop offset="1" stop-color="#8BB0EC" stop-opacity="0.97"/>
</linearGradient>
<linearGradient id="paint39_linear_12_537" x1="87.3361" y1="72.3658" x2="81.0918" y2="72.3658" gradientUnits="userSpaceOnUse">
<stop stop-color="#F4EDF6"/>
<stop offset="1" stop-color="#C3E7EC" stop-opacity="0.97"/>
</linearGradient>
<linearGradient id="paint40_linear_12_537" x1="90.0723" y1="78.8654" x2="90.0723" y2="70.0866" gradientUnits="userSpaceOnUse">
<stop stop-color="#4D95AE"/>
<stop offset="1" stop-color="#8BB0EC" stop-opacity="0.97"/>
</linearGradient>
<linearGradient id="paint41_linear_12_537" x1="93.1945" y1="72.3658" x2="86.9502" y2="72.3658" gradientUnits="userSpaceOnUse">
<stop stop-color="#F4EDF6"/>
<stop offset="1" stop-color="#C3E7EC" stop-opacity="0.97"/>
</linearGradient>
<linearGradient id="paint42_linear_12_537" x1="86.7086" y1="78.8653" x2="86.7086" y2="70.0865" gradientUnits="userSpaceOnUse">
<stop stop-color="#4D95AE"/>
<stop offset="1" stop-color="#8BB0EC" stop-opacity="0.97"/>
</linearGradient>
<linearGradient id="paint43_linear_12_537" x1="89.8308" y1="76.5516" x2="83.5864" y2="76.5516" gradientUnits="userSpaceOnUse">
<stop stop-color="#F4EDF6"/>
<stop offset="1" stop-color="#C3E7EC" stop-opacity="0.97"/>
</linearGradient>
<linearGradient id="paint44_linear_12_537" x1="93.2542" y1="78.8653" x2="93.2542" y2="70.0865" gradientUnits="userSpaceOnUse">
<stop stop-color="#4D95AE"/>
<stop offset="1" stop-color="#8BB0EC" stop-opacity="0.97"/>
</linearGradient>
<linearGradient id="paint45_linear_12_537" x1="96.3764" y1="76.5516" x2="90.132" y2="76.5516" gradientUnits="userSpaceOnUse">
<stop stop-color="#F4EDF6"/>
<stop offset="1" stop-color="#C3E7EC" stop-opacity="0.97"/>
</linearGradient>
<linearGradient id="paint46_linear_12_537" x1="99.1095" y1="78.8653" x2="99.1095" y2="70.0865" gradientUnits="userSpaceOnUse">
<stop stop-color="#4D95AE"/>
<stop offset="1" stop-color="#8BB0EC" stop-opacity="0.97"/>
</linearGradient>
<linearGradient id="paint47_linear_12_537" x1="102.232" y1="76.5516" x2="95.9873" y2="76.5516" gradientUnits="userSpaceOnUse">
<stop stop-color="#F4EDF6"/>
<stop offset="1" stop-color="#C3E7EC" stop-opacity="0.97"/>
</linearGradient>
<linearGradient id="paint48_linear_12_537" x1="91.5628" y1="80.6155" x2="91.7659" y2="77.3343" gradientUnits="userSpaceOnUse">
<stop offset="0.01" stop-color="#6838F0"/>
<stop offset="0.07" stop-color="#6E36E1"/>
<stop offset="0.41" stop-color="#8F2A95"/>
<stop offset="0.68" stop-color="#A6215E"/>
<stop offset="0.89" stop-color="#B51C3C"/>
<stop offset="1" stop-color="#BA1A2F"/>
</linearGradient>
<linearGradient id="paint49_linear_12_537" x1="94.7666" y1="78.7433" x2="88.5222" y2="78.7433" gradientUnits="userSpaceOnUse">
<stop stop-color="#E038F0"/>
<stop offset="0.06" stop-color="#E23AE1"/>
<stop offset="0.4" stop-color="#EE4595"/>
<stop offset="0.68" stop-color="#F64C5E"/>
<stop offset="0.89" stop-color="#FB513C"/>
<stop offset="1" stop-color="#FD532F"/>
</linearGradient>
<linearGradient id="paint50_linear_12_537" x1="101.312" y1="79.1315" x2="95.0647" y2="79.1315" gradientUnits="userSpaceOnUse">
<stop stop-color="#FF7A22"/>
<stop offset="0.18" stop-color="#F77925"/>
<stop offset="0.46" stop-color="#E3782C"/>
<stop offset="0.79" stop-color="#C17638"/>
<stop offset="0.99" stop-color="#A97440"/>
</linearGradient>
<linearGradient id="paint51_linear_12_537" x1="101.312" y1="78.7433" x2="95.0647" y2="78.7433" gradientUnits="userSpaceOnUse">
<stop stop-color="#FFD222"/>
<stop offset="0.15" stop-color="#FFD42A"/>
<stop offset="0.38" stop-color="#FFDB3E"/>
<stop offset="0.66" stop-color="#FFE660"/>
<stop offset="0.98" stop-color="#FFF68F"/>
<stop offset="1" stop-color="#FFF793"/>
</linearGradient>
<linearGradient id="paint52_linear_12_537" x1="107.167" y1="79.1315" x2="100.923" y2="79.1315" gradientUnits="userSpaceOnUse">
<stop stop-color="#31571F"/>
<stop offset="1" stop-color="#00817E"/>
</linearGradient>
<linearGradient id="paint53_linear_12_537" x1="107.167" y1="78.7433" x2="100.923" y2="78.7433" gradientUnits="userSpaceOnUse">
<stop stop-color="#31BF5C"/>
<stop offset="1" stop-color="#00AEB3"/>
</linearGradient>
<linearGradient id="paint54_linear_12_537" x1="83.7526" y1="53.2177" x2="64.5777" y2="85.0618" gradientUnits="userSpaceOnUse">
<stop stop-color="#E6A224"/>
<stop offset="0.35" stop-color="#E68349"/>
<stop offset="0.78" stop-color="#E56171"/>
<stop offset="1" stop-color="#E55480"/>
</linearGradient>
<linearGradient id="paint55_linear_12_537" x1="49.5444" y1="42.4417" x2="52.6632" y2="43.2796" gradientUnits="userSpaceOnUse">
<stop stop-color="#D8D2B3"/>
<stop offset="0.19" stop-color="#DDC5A4"/>
<stop offset="1" stop-color="#EF9367"/>
</linearGradient>
<linearGradient id="paint56_linear_12_537" x1="53.4409" y1="35.6475" x2="64.3262" y2="35.6475" gradientUnits="userSpaceOnUse">
<stop stop-color="#281A2B"/>
<stop offset="0.36" stop-color="#2F1E33"/>
<stop offset="1" stop-color="#38243D"/>
</linearGradient>
<linearGradient id="paint57_linear_12_537" x1="27.9523" y1="85.6798" x2="31.4527" y2="77.8932" gradientUnits="userSpaceOnUse">
<stop stop-color="#EF9367"/>
<stop offset="0.12" stop-color="#EC9B71"/>
<stop offset="0.71" stop-color="#DEC3A1"/>
<stop offset="1" stop-color="#D8D2B3"/>
</linearGradient>
<linearGradient id="paint58_linear_12_537" x1="27.6355" y1="85.5373" x2="28.93" y2="82.6576" gradientUnits="userSpaceOnUse">
<stop stop-color="#E97FB3"/>
<stop offset="0.21" stop-color="#AD97C6"/>
<stop offset="0.49" stop-color="#64B4DE"/>
<stop offset="0.73" stop-color="#2ECAEF"/>
<stop offset="0.9" stop-color="#0DD7FA"/>
<stop offset="1" stop-color="#00DCFE"/>
</linearGradient>
<linearGradient id="paint59_linear_12_537" x1="51.7277" y1="72.2563" x2="47.7158" y2="64.8099" gradientUnits="userSpaceOnUse">
<stop stop-color="#0E090F"/>
<stop offset="0.15" stop-color="#160E18"/>
<stop offset="0.69" stop-color="#2F1E33"/>
<stop offset="1" stop-color="#38243D"/>
</linearGradient>
<linearGradient id="paint60_linear_12_537" x1="47.6892" y1="68.3909" x2="63.4773" y2="54.8575" gradientUnits="userSpaceOnUse">
<stop stop-color="#0E090F"/>
<stop offset="0.15" stop-color="#160E18"/>
<stop offset="0.69" stop-color="#2F1E33"/>
<stop offset="1" stop-color="#38243D"/>
</linearGradient>
<linearGradient id="paint61_linear_12_537" x1="42.6753" y1="86.5302" x2="46.7492" y2="77.1393" gradientUnits="userSpaceOnUse">
<stop stop-color="#EF9367"/>
<stop offset="0.12" stop-color="#EC9B71"/>
<stop offset="0.71" stop-color="#DEC3A1"/>
<stop offset="1" stop-color="#D8D2B3"/>
</linearGradient>
<linearGradient id="paint62_linear_12_537" x1="42.6783" y1="86.5314" x2="44.4689" y2="82.4038" gradientUnits="userSpaceOnUse">
<stop stop-color="#E97FB3"/>
<stop offset="0.21" stop-color="#AD97C6"/>
<stop offset="0.49" stop-color="#64B4DE"/>
<stop offset="0.73" stop-color="#2ECAEF"/>
<stop offset="0.9" stop-color="#0DD7FA"/>
<stop offset="1" stop-color="#00DCFE"/>
</linearGradient>
<linearGradient id="paint63_linear_12_537" x1="52.4871" y1="63.179" x2="45.6199" y2="79.0092" gradientUnits="userSpaceOnUse">
<stop stop-color="#0E090F"/>
<stop offset="0.15" stop-color="#160E18"/>
<stop offset="0.69" stop-color="#2F1E33"/>
<stop offset="1" stop-color="#38243D"/>
</linearGradient>
<linearGradient id="paint64_linear_12_537" x1="65.8639" y1="44.9054" x2="52.0415" y2="52.9034" gradientUnits="userSpaceOnUse">
<stop stop-color="#D8D2B3"/>
<stop offset="0.02" stop-color="#DACEAE"/>
<stop offset="0.15" stop-color="#E1B894"/>
<stop offset="0.3" stop-color="#E7A880"/>
<stop offset="0.46" stop-color="#EC9C72"/>
<stop offset="0.66" stop-color="#EE956A"/>
<stop offset="1" stop-color="#EF9367"/>
</linearGradient>
<linearGradient id="paint65_linear_12_537" x1="59.6194" y1="55.0086" x2="62.4032" y2="68.6239" gradientUnits="userSpaceOnUse">
<stop stop-color="#E6A224"/>
<stop offset="0.35" stop-color="#E68349"/>
<stop offset="0.78" stop-color="#E56171"/>
<stop offset="1" stop-color="#E55480"/>
</linearGradient>
<linearGradient id="paint66_linear_12_537" x1="63.9277" y1="47.2095" x2="54.5518" y2="47.2095" gradientUnits="userSpaceOnUse">
<stop stop-color="#0E090F"/>
<stop offset="0.15" stop-color="#160E18"/>
<stop offset="0.69" stop-color="#2F1E33"/>
<stop offset="1" stop-color="#38243D"/>
</linearGradient>
<linearGradient id="paint67_linear_12_537" x1="60.9121" y1="36.0264" x2="55.0412" y2="36.0264" gradientUnits="userSpaceOnUse">
<stop stop-color="#D8D2B3"/>
<stop offset="1" stop-color="#E5AF89"/>
</linearGradient>
<linearGradient id="paint68_linear_12_537" x1="55.7882" y1="36.4709" x2="54.8374" y2="36.4709" gradientUnits="userSpaceOnUse">
<stop stop-color="#EB9E75"/>
<stop offset="1" stop-color="#EF9367"/>
</linearGradient>
<linearGradient id="paint69_linear_12_537" x1="61.5899" y1="33.1867" x2="56.4282" y2="33.1867" gradientUnits="userSpaceOnUse">
<stop stop-color="#332137"/>
<stop offset="1" stop-color="#38243D"/>
</linearGradient>
<linearGradient id="paint70_linear_12_537" x1="61.1602" y1="36.3926" x2="59.8455" y2="36.3926" gradientUnits="userSpaceOnUse">
<stop stop-color="#E7A881"/>
<stop offset="0.59" stop-color="#DFBF9D"/>
<stop offset="1" stop-color="#D8D2B3"/>
</linearGradient>
<linearGradient id="paint71_linear_12_537" x1="48.5841" y1="48.1614" x2="52.8345" y2="47.2878" gradientUnits="userSpaceOnUse">
<stop stop-color="#071786"/>
<stop offset="0.15" stop-color="#05136B"/>
<stop offset="0.32" stop-color="#041055"/>
<stop offset="0.51" stop-color="#030E45"/>
<stop offset="0.72" stop-color="#020C3B"/>
<stop offset="1" stop-color="#020C38"/>
</linearGradient>
<linearGradient id="paint72_linear_12_537" x1="51.3856" y1="47.4699" x2="53.1559" y2="47.106" gradientUnits="userSpaceOnUse">
<stop stop-color="#071786"/>
<stop offset="0.15" stop-color="#05136B"/>
<stop offset="0.32" stop-color="#041055"/>
<stop offset="0.51" stop-color="#030E45"/>
<stop offset="0.72" stop-color="#020C3B"/>
<stop offset="1" stop-color="#020C38"/>
</linearGradient>
<linearGradient id="paint73_linear_12_537" x1="47.931" y1="44.984" x2="51.0996" y2="44.3327" gradientUnits="userSpaceOnUse">
<stop stop-color="#071786"/>
<stop offset="0.15" stop-color="#05136B"/>
<stop offset="0.32" stop-color="#041055"/>
<stop offset="0.51" stop-color="#030E45"/>
<stop offset="0.72" stop-color="#020C3B"/>
<stop offset="1" stop-color="#020C38"/>
</linearGradient>
<linearGradient id="paint74_linear_12_537" x1="50.9232" y1="48.9781" x2="53.7216" y2="47.9261" gradientUnits="userSpaceOnUse">
<stop stop-color="#D8D2B3"/>
<stop offset="0.19" stop-color="#DDC5A4"/>
<stop offset="1" stop-color="#EF9367"/>
</linearGradient>
<linearGradient id="paint75_linear_12_537" x1="116.794" y1="94.5319" x2="126.009" y2="99.866" gradientUnits="userSpaceOnUse">
<stop stop-color="#F4F3F1"/>
<stop offset="1" stop-color="#FFB2BC"/>
</linearGradient>
<linearGradient id="paint76_linear_12_537" x1="123.582" y1="102.594" x2="117.173" y2="96.1706" gradientUnits="userSpaceOnUse">
<stop stop-color="#071786"/>
<stop offset="0.15" stop-color="#05136B"/>
<stop offset="0.32" stop-color="#041055"/>
<stop offset="0.51" stop-color="#030E45"/>
<stop offset="0.72" stop-color="#020C3B"/>
<stop offset="1" stop-color="#020C38"/>
</linearGradient>
<linearGradient id="paint77_linear_12_537" x1="181.368" y1="-291.454" x2="179.588" y2="-279.887" gradientUnits="userSpaceOnUse">
<stop stop-color="#071786"/>
<stop offset="0.15" stop-color="#05136B"/>
<stop offset="0.32" stop-color="#041055"/>
<stop offset="0.51" stop-color="#030E45"/>
<stop offset="0.72" stop-color="#020C3B"/>
<stop offset="1" stop-color="#020C38"/>
</linearGradient>
<linearGradient id="paint78_linear_12_537" x1="128.812" y1="64.2161" x2="120.62" y2="72.957" gradientUnits="userSpaceOnUse">
<stop stop-color="#071786"/>
<stop offset="0.15" stop-color="#05136B"/>
<stop offset="0.32" stop-color="#041055"/>
<stop offset="0.51" stop-color="#030E45"/>
<stop offset="0.72" stop-color="#020C3B"/>
<stop offset="1" stop-color="#020C38"/>
</linearGradient>
<linearGradient id="paint79_linear_12_537" x1="126.211" y1="96.069" x2="134.884" y2="101.089" gradientUnits="userSpaceOnUse">
<stop stop-color="#F4F3F1"/>
<stop offset="1" stop-color="#FFB2BC"/>
</linearGradient>
<linearGradient id="paint80_linear_12_537" x1="132.393" y1="103.599" x2="126.616" y2="97.8095" gradientUnits="userSpaceOnUse">
<stop stop-color="#071786"/>
<stop offset="0.15" stop-color="#05136B"/>
<stop offset="0.32" stop-color="#041055"/>
<stop offset="0.51" stop-color="#030E45"/>
<stop offset="0.72" stop-color="#020C3B"/>
<stop offset="1" stop-color="#020C38"/>
</linearGradient>
<linearGradient id="paint81_linear_12_537" x1="127.498" y1="77.5754" x2="144.423" y2="78.6227" gradientUnits="userSpaceOnUse">
<stop stop-color="#071786"/>
<stop offset="0.15" stop-color="#05136B"/>
<stop offset="0.32" stop-color="#041055"/>
<stop offset="0.51" stop-color="#030E45"/>
<stop offset="0.72" stop-color="#020C3B"/>
<stop offset="1" stop-color="#020C38"/>
</linearGradient>
<linearGradient id="paint82_linear_12_537" x1="117.362" y1="53.3899" x2="123.66" y2="53.3899" gradientUnits="userSpaceOnUse">
<stop stop-color="#F9FBFC"/>
<stop offset="1" stop-color="#CDDBFF"/>
</linearGradient>
<linearGradient id="paint83_linear_12_537" x1="118.279" y1="58.7519" x2="120.347" y2="57.5118" gradientUnits="userSpaceOnUse">
<stop stop-color="#F9FBFC"/>
<stop offset="0.53" stop-color="#F7FAFC"/>
<stop offset="0.72" stop-color="#F0F5FD"/>
<stop offset="0.86" stop-color="#E5ECFD"/>
<stop offset="0.96" stop-color="#D4E0FF"/>
<stop offset="1" stop-color="#CDDBFF"/>
</linearGradient>
<linearGradient id="paint84_linear_12_537" x1="116.935" y1="53.5273" x2="112.456" y2="56.2124" gradientUnits="userSpaceOnUse">
<stop stop-color="#FACED3"/>
<stop offset="1" stop-color="#FFB2BC"/>
</linearGradient>
<linearGradient id="paint85_linear_12_537" x1="124.579" y1="47.98" x2="131.822" y2="64.5664" gradientUnits="userSpaceOnUse">
<stop stop-color="#F9FBFC"/>
<stop offset="1" stop-color="#CDDBFF"/>
</linearGradient>
<linearGradient id="paint86_linear_12_537" x1="126.177" y1="44.78" x2="126.177" y2="47.1751" gradientUnits="userSpaceOnUse">
<stop stop-color="#F4F3F1"/>
<stop offset="1" stop-color="#FFB2BC"/>
</linearGradient>
<linearGradient id="paint87_linear_12_537" x1="125.104" y1="42.9674" x2="129.001" y2="42.9674" gradientUnits="userSpaceOnUse">
<stop stop-color="#F4F3F1"/>
<stop offset="1" stop-color="#FFB2BC"/>
</linearGradient>
<linearGradient id="paint88_linear_12_537" x1="121.453" y1="39.8526" x2="128.342" y2="40.9685" gradientUnits="userSpaceOnUse">
<stop stop-color="#F4F3F1"/>
<stop offset="1" stop-color="#FFB2BC"/>
</linearGradient>
<linearGradient id="paint89_linear_12_537" x1="122.161" y1="38.0039" x2="129.986" y2="37.9437" gradientUnits="userSpaceOnUse">
<stop stop-color="#071786"/>
<stop offset="0.21" stop-color="#071681"/>
<stop offset="0.45" stop-color="#061473"/>
<stop offset="0.7" stop-color="#04115C"/>
<stop offset="0.97" stop-color="#020D3C"/>
<stop offset="1" stop-color="#020C38"/>
</linearGradient>
<linearGradient id="paint90_linear_12_537" x1="127.705" y1="40.1197" x2="129.032" y2="40.3345" gradientUnits="userSpaceOnUse">
<stop stop-color="#F4F3F1"/>
<stop offset="1" stop-color="#FFB2BC"/>
</linearGradient>
<linearGradient id="paint91_linear_12_537" x1="124.78" y1="47.0406" x2="124.78" y2="44.2604" gradientUnits="userSpaceOnUse">
<stop stop-color="#E7E6FF"/>
<stop offset="0.34" stop-color="#C9D2F8"/>
<stop offset="0.76" stop-color="#AABDF1"/>
<stop offset="1" stop-color="#9EB5EE"/>
</linearGradient>
<linearGradient id="paint92_linear_12_537" x1="123.927" y1="46.5991" x2="123.927" y2="44.0788" gradientUnits="userSpaceOnUse">
<stop stop-color="#F9FBFC"/>
<stop offset="1" stop-color="#CDDBFF"/>
</linearGradient>
<linearGradient id="paint93_linear_12_537" x1="127.849" y1="47.4475" x2="127.849" y2="42.8295" gradientUnits="userSpaceOnUse">
<stop stop-color="#F9FBFC"/>
<stop offset="0.31" stop-color="#F0F5FD"/>
<stop offset="0.8" stop-color="#D8E3FE"/>
<stop offset="1" stop-color="#CDDBFF"/>
</linearGradient>
<linearGradient id="paint94_linear_12_537" x1="125.753" y1="47.0407" x2="125.753" y2="46.0576" gradientUnits="userSpaceOnUse">
<stop stop-color="#E7E6FF"/>
<stop offset="0.34" stop-color="#C9D2F8"/>
<stop offset="0.76" stop-color="#AABDF1"/>
<stop offset="1" stop-color="#9EB5EE"/>
</linearGradient>
<linearGradient id="paint95_linear_12_537" x1="89.0503" y1="55.2922" x2="115.593" y2="55.2922" gradientUnits="userSpaceOnUse">
<stop stop-color="#07154B"/>
<stop offset="0.26" stop-color="#0C174E"/>
<stop offset="0.58" stop-color="#1B1D57"/>
<stop offset="0.93" stop-color="#332767"/>
<stop offset="1" stop-color="#39296A"/>
</linearGradient>
<linearGradient id="paint96_linear_12_537" x1="108.027" y1="50.7005" x2="111.689" y2="50.7005" gradientUnits="userSpaceOnUse">
<stop stop-color="#FFD222"/>
<stop offset="0.15" stop-color="#FFD42A"/>
<stop offset="0.38" stop-color="#FFDB3E"/>
<stop offset="0.66" stop-color="#FFE660"/>
<stop offset="0.98" stop-color="#FFF68F"/>
<stop offset="1" stop-color="#FFF793"/>
</linearGradient>
<linearGradient id="paint97_linear_12_537" x1="102.334" y1="60.5794" x2="114.129" y2="60.5794" gradientUnits="userSpaceOnUse">
<stop stop-color="#FFD222"/>
<stop offset="0.15" stop-color="#FFD42A"/>
<stop offset="0.38" stop-color="#FFDB3E"/>
<stop offset="0.66" stop-color="#FFE660"/>
<stop offset="0.98" stop-color="#FFF68F"/>
<stop offset="1" stop-color="#FFF793"/>
</linearGradient>
<linearGradient id="paint98_linear_12_537" x1="108.044" y1="61.8647" x2="114.094" y2="61.8647" gradientUnits="userSpaceOnUse">
<stop stop-color="#FFD222"/>
<stop offset="0.15" stop-color="#FFD42A"/>
<stop offset="0.38" stop-color="#FFDB3E"/>
<stop offset="0.66" stop-color="#FFE660"/>
<stop offset="0.98" stop-color="#FFF68F"/>
<stop offset="1" stop-color="#FFF793"/>
</linearGradient>
<linearGradient id="paint99_linear_12_537" x1="90.5177" y1="54.5732" x2="95.4661" y2="54.5732" gradientUnits="userSpaceOnUse">
<stop stop-color="#FFD222"/>
<stop offset="0.15" stop-color="#FFD42A"/>
<stop offset="0.38" stop-color="#FFDB3E"/>
<stop offset="0.66" stop-color="#FFE660"/>
<stop offset="0.98" stop-color="#FFF68F"/>
<stop offset="1" stop-color="#FFF793"/>
</linearGradient>
<linearGradient id="paint100_linear_12_537" x1="90.1289" y1="54.6298" x2="99.8563" y2="54.6298" gradientUnits="userSpaceOnUse">
<stop stop-color="#07154B"/>
<stop offset="0.26" stop-color="#0C174E"/>
<stop offset="0.58" stop-color="#1B1D57"/>
<stop offset="0.93" stop-color="#332767"/>
<stop offset="1" stop-color="#39296A"/>
</linearGradient>
<linearGradient id="paint101_linear_12_537" x1="89.8286" y1="54.3838" x2="98.913" y2="54.5503" gradientUnits="userSpaceOnUse">
<stop stop-color="#07154B"/>
<stop offset="0.26" stop-color="#0C174E"/>
<stop offset="0.58" stop-color="#1B1D57"/>
<stop offset="0.93" stop-color="#332767"/>
<stop offset="1" stop-color="#39296A"/>
</linearGradient>
<linearGradient id="paint102_linear_12_537" x1="91.1046" y1="50.2465" x2="103.835" y2="50.2465" gradientUnits="userSpaceOnUse">
<stop stop-color="#FFD222"/>
<stop offset="0.15" stop-color="#FFD42A"/>
<stop offset="0.38" stop-color="#FFDB3E"/>
<stop offset="0.66" stop-color="#FFE660"/>
<stop offset="0.98" stop-color="#FFF68F"/>
<stop offset="1" stop-color="#FFF793"/>
</linearGradient>
<linearGradient id="paint103_linear_12_537" x1="125.516" y1="59.6175" x2="130.512" y2="58.1912" gradientUnits="userSpaceOnUse">
<stop stop-color="#F9FBFC"/>
<stop offset="0.31" stop-color="#F0F5FD"/>
<stop offset="0.8" stop-color="#D8E3FE"/>
<stop offset="1" stop-color="#CDDBFF"/>
</linearGradient>
<linearGradient id="paint104_linear_12_537" x1="113.633" y1="66.4334" x2="123.633" y2="54.0962" gradientUnits="userSpaceOnUse">
<stop stop-color="#F4F3F1"/>
<stop offset="1" stop-color="#FFB2BC"/>
</linearGradient>
<linearGradient id="paint105_linear_12_537" x1="56.2273" y1="85.5496" x2="55.615" y2="128.013" gradientUnits="userSpaceOnUse">
<stop stop-color="#E97FB3"/>
<stop offset="0.21" stop-color="#AD97C6"/>
<stop offset="0.49" stop-color="#64B4DE"/>
<stop offset="0.73" stop-color="#2ECAEF"/>
<stop offset="0.9" stop-color="#0DD7FA"/>
<stop offset="1" stop-color="#00DCFE"/>
</linearGradient>
<linearGradient id="paint106_linear_12_537" x1="51.3449" y1="83.4645" x2="52.7004" y2="83.4645" gradientUnits="userSpaceOnUse">
<stop stop-color="#740247"/>
<stop offset="0.15" stop-color="#790448"/>
<stop offset="0.32" stop-color="#880B4B"/>
<stop offset="0.42" stop-color="#93104E"/>
<stop offset="1" stop-color="#93104E"/>
</linearGradient>
<linearGradient id="paint107_linear_12_537" x1="59.2271" y1="83.4457" x2="60.5858" y2="83.4457" gradientUnits="userSpaceOnUse">
<stop stop-color="#740247"/>
<stop offset="0.15" stop-color="#790448"/>
<stop offset="0.32" stop-color="#880B4B"/>
<stop offset="0.42" stop-color="#93104E"/>
<stop offset="1" stop-color="#93104E"/>
</linearGradient>
<linearGradient id="paint108_linear_12_537" x1="46.5093" y1="103.683" x2="46.5093" y2="81.4294" gradientUnits="userSpaceOnUse">
<stop stop-color="#20F1EA"/>
<stop offset="0.1" stop-color="#36DFE7"/>
<stop offset="0.42" stop-color="#78AADF"/>
<stop offset="0.68" stop-color="#A884D9"/>
<stop offset="0.89" stop-color="#C66CD5"/>
<stop offset="1" stop-color="#D163D4"/>
</linearGradient>
<linearGradient id="paint109_linear_12_537" x1="65.4214" y1="103.668" x2="65.4214" y2="81.4138" gradientUnits="userSpaceOnUse">
<stop stop-color="#20F1EA"/>
<stop offset="0.1" stop-color="#36DFE7"/>
<stop offset="0.42" stop-color="#78AADF"/>
<stop offset="0.68" stop-color="#A884D9"/>
<stop offset="0.89" stop-color="#C66CD5"/>
<stop offset="1" stop-color="#D163D4"/>
</linearGradient>
<linearGradient id="paint110_linear_12_537" x1="40.6855" y1="85.3274" x2="40.0732" y2="127.788" gradientUnits="userSpaceOnUse">
<stop stop-color="#E97FB3"/>
<stop offset="0.21" stop-color="#AD97C6"/>
<stop offset="0.49" stop-color="#64B4DE"/>
<stop offset="0.73" stop-color="#2ECAEF"/>
<stop offset="0.9" stop-color="#0DD7FA"/>
<stop offset="1" stop-color="#00DCFE"/>
</linearGradient>
<linearGradient id="paint111_linear_12_537" x1="37.1743" y1="89.7857" x2="38.1251" y2="89.7857" gradientUnits="userSpaceOnUse">
<stop stop-color="#740247"/>
<stop offset="0.15" stop-color="#790448"/>
<stop offset="0.32" stop-color="#880B4B"/>
<stop offset="0.42" stop-color="#93104E"/>
<stop offset="1" stop-color="#93104E"/>
</linearGradient>
<linearGradient id="paint112_linear_12_537" x1="42.7063" y1="89.7731" x2="43.6602" y2="89.7731" gradientUnits="userSpaceOnUse">
<stop stop-color="#740247"/>
<stop offset="0.15" stop-color="#790448"/>
<stop offset="0.32" stop-color="#880B4B"/>
<stop offset="0.42" stop-color="#93104E"/>
<stop offset="1" stop-color="#93104E"/>
</linearGradient>
<linearGradient id="paint113_linear_12_537" x1="33.7791" y1="103.977" x2="33.7791" y2="88.3547" gradientUnits="userSpaceOnUse">
<stop stop-color="#20F1EA"/>
<stop offset="0.1" stop-color="#36DFE7"/>
<stop offset="0.42" stop-color="#78AADF"/>
<stop offset="0.68" stop-color="#A884D9"/>
<stop offset="0.89" stop-color="#C66CD5"/>
<stop offset="1" stop-color="#D163D4"/>
</linearGradient>
<linearGradient id="paint114_linear_12_537" x1="47.0554" y1="103.968" x2="47.0554" y2="88.3455" gradientUnits="userSpaceOnUse">
<stop stop-color="#20F1EA"/>
<stop offset="0.1" stop-color="#36DFE7"/>
<stop offset="0.42" stop-color="#78AADF"/>
<stop offset="0.68" stop-color="#A884D9"/>
<stop offset="0.89" stop-color="#C66CD5"/>
<stop offset="1" stop-color="#D163D4"/>
</linearGradient>
<linearGradient id="paint115_linear_12_537" x1="40.3969" y1="103.567" x2="40.4188" y2="98.1855" gradientUnits="userSpaceOnUse">
<stop stop-color="#20F1EA"/>
<stop offset="0.1" stop-color="#36DFE7"/>
<stop offset="0.42" stop-color="#78AADF"/>
<stop offset="0.68" stop-color="#A884D9"/>
<stop offset="0.89" stop-color="#C66CD5"/>
<stop offset="1" stop-color="#D163D4"/>
</linearGradient>
<linearGradient id="paint116_linear_12_537" x1="127.043" y1="99.7133" x2="127.043" y2="127.042" gradientUnits="userSpaceOnUse">
<stop stop-color="#0E090F"/>
<stop offset="1" stop-color="#38243D" stop-opacity="0.2"/>
</linearGradient>
<linearGradient id="paint117_linear_12_537" x1="138.772" y1="39.27" x2="138.45" y2="-5.76995" gradientUnits="userSpaceOnUse">
<stop stop-color="#B866FA"/>
<stop offset="1" stop-color="#78DDFE"/>
</linearGradient>
<linearGradient id="paint118_linear_12_537" x1="94.3713" y1="39.5862" x2="94.0495" y2="-5.45369" gradientUnits="userSpaceOnUse">
<stop stop-color="#B866FA"/>
<stop offset="1" stop-color="#78DDFE"/>
</linearGradient>
<linearGradient id="paint119_linear_12_537" x1="161.625" y1="29.6052" x2="161.922" y2="20.8263" gradientUnits="userSpaceOnUse">
<stop stop-color="#B866FA"/>
<stop offset="1" stop-color="#78DDFE"/>
</linearGradient>
<linearGradient id="paint120_linear_12_537" x1="36.8323" y1="39.9962" x2="36.5137" y2="-5.04371" gradientUnits="userSpaceOnUse">
<stop stop-color="#B866FA"/>
<stop offset="1" stop-color="#78DDFE"/>
</linearGradient>
<linearGradient id="paint121_linear_12_537" x1="24.5665" y1="37.8361" x2="24.2478" y2="-7.20693" gradientUnits="userSpaceOnUse">
<stop stop-color="#B866FA"/>
<stop offset="1" stop-color="#78DDFE"/>
</linearGradient>
<linearGradient id="paint122_linear_12_537" x1="120.814" y1="39.3983" x2="120.492" y2="-5.64157" gradientUnits="userSpaceOnUse">
<stop stop-color="#B866FA"/>
<stop offset="1" stop-color="#78DDFE"/>
</linearGradient>
<linearGradient id="paint123_linear_12_537" x1="2.99675" y1="41.5367" x2="2.675" y2="-3.50324" gradientUnits="userSpaceOnUse">
<stop stop-color="#B866FA"/>
<stop offset="1" stop-color="#78DDFE"/>
</linearGradient>
<clipPath id="clip0_12_537">
<rect width="167" height="106" fill="white"/>
</clipPath>
</defs>
</svg>
