<svg width="251" height="236" viewBox="0 0 251 236" fill="none" xmlns="http://www.w3.org/2000/svg">
<g clip-path="url(#clip0_12_826)">
<mask id="mask0_12_826" style="mask-type:luminance" maskUnits="userSpaceOnUse" x="6" y="27" width="232" height="232">
<path d="M237.703 27.7524H6.37549V258.37H237.703V27.7524Z" fill="white"/>
</mask>
<g mask="url(#mask0_12_826)">
<path d="M61.9358 83.3774C61.885 84.3705 62.1067 85.3586 62.5771 86.2355C63.0474 87.1124 63.7487 87.8449 64.6053 88.3542C64.7719 88.451 66.2154 87.3072 66.4051 87.178C66.8261 86.8967 67.2471 86.6153 67.6635 86.3247C67.8256 86.1924 67.9973 86.0722 68.177 85.965C67.3214 85.4534 66.6211 84.7198 66.151 83.8425C65.6808 82.9652 65.4584 81.9771 65.5075 80.9836C65.3368 81.106 65.1591 81.2184 64.9755 81.3203C64.5544 81.5971 64.1288 81.8784 63.7078 82.1644C63.2868 82.4504 62.8658 82.7271 62.4494 83.0131C62.3707 83.0684 61.9405 83.299 61.9358 83.3774Z" fill="#F04637"/>
<path d="M88.8161 39.6615C90.0375 42.6549 94.0904 43.6419 96.4777 41.5295C96.5699 41.2295 96.6274 40.92 96.6489 40.607C96.7722 39.8752 96.8926 39.1418 97.0098 38.4069C97.13 37.6736 97.2457 36.9402 97.3567 36.2022C97.3799 36.0454 97.3845 35.372 97.4816 35.2798C95.0943 37.4383 91.0415 36.4282 89.8154 33.4348C89.7915 33.7471 89.7357 34.0562 89.6489 34.3573C89.524 35.0906 89.4037 35.824 89.2834 36.5574C89.1631 37.2907 89.0521 38.0241 88.941 38.7621C88.9087 38.9696 88.7375 39.4862 88.8161 39.6845V39.6615Z" fill="#3D91DA"/>
<path d="M46.6264 128.302C46.2955 129.236 46.269 130.251 46.5506 131.202C46.8322 132.153 47.4076 132.991 48.1948 133.597C48.4021 133.623 48.612 133.623 48.8193 133.597L50.323 133.523L51.8266 133.44C51.9376 133.44 52.3726 133.338 52.4466 133.394C51.6591 132.788 51.0837 131.95 50.8029 130.999C50.522 130.048 50.55 129.033 50.8828 128.099C50.8458 128.205 48.9443 128.177 48.7546 128.186C48.2503 128.186 47.7506 128.237 47.2509 128.269C47.0417 128.262 46.8322 128.277 46.6264 128.315V128.302Z" fill="#3D91DA"/>
<path d="M115.405 73.0595C114.841 74.1327 114.273 75.2089 113.702 76.2882C113.702 76.2467 115.585 76.8555 115.747 76.9016C115.909 76.9477 117.751 77.5796 117.806 77.4735C118.371 76.3973 118.938 75.3211 119.509 74.2449C119.509 74.2864 116.765 71.2745 116.608 71.2284C116.451 71.1823 115.46 72.9534 115.405 73.0734V73.0595Z" fill="white"/>
<path d="M38.5809 74.1713L37.9563 67.5203C37.3739 67.3943 36.7833 67.3096 36.189 67.2666C36.0502 67.2666 34.417 67.1098 34.4124 67.0544L35.0601 73.7054C35.644 73.8317 36.2361 73.9165 36.8321 73.9591C36.9662 73.9591 38.5994 74.1159 38.604 74.1713H38.5809Z" fill="#F04637"/>
<path d="M65.2762 127.873C64.9328 128.893 64.8248 129.978 64.9602 131.045C65.0956 132.113 65.4709 133.136 66.0581 134.04C66.2666 134.05 66.4755 134.042 66.6827 134.016L68.1863 133.933C68.686 133.901 69.1903 133.873 69.6899 133.837C69.8948 133.802 70.1021 133.784 70.3099 133.781C69.7204 132.879 69.3426 131.856 69.2048 130.789C69.0671 129.721 69.1728 128.636 69.5141 127.615C69.4817 127.716 67.5756 127.711 67.3905 127.721C67.2055 127.73 65.3225 127.693 65.2623 127.873H65.2762Z" fill="white"/>
<path d="M39.6079 85.5775C40.368 86.0242 41.2137 86.3071 42.0902 86.408C42.9668 86.5089 43.8548 86.4255 44.6971 86.1633C44.7896 86.1356 44.586 84.1523 44.5722 83.9678C44.5583 83.7833 44.3455 81.7954 44.4056 81.7769C43.5634 82.0397 42.6753 82.1234 41.7987 82.0225C40.922 81.9216 40.0764 81.6384 39.3164 81.1912C39.3164 81.1912 39.3488 81.9199 39.3442 81.8369C39.3719 82.3535 39.4043 82.8701 39.4367 83.3866C39.4691 83.9032 39.5061 84.4198 39.5477 84.9364C39.5361 85.1516 39.5548 85.3674 39.6033 85.5775H39.6079Z" fill="white"/>
<path d="M17.0952 52.6268L21.3332 53.8721C21.2869 53.8721 21.3332 52.5253 21.3332 52.4054C21.3676 51.9181 21.3567 51.4286 21.3008 50.9433L17.0628 49.6934C17.1045 49.6934 17.0628 51.0402 17.0628 51.1601C17.0275 51.649 17.0399 52.1403 17.0999 52.6268H17.0952Z" fill="#F04637"/>
<path d="M79.0125 59.2502C79.253 60.6063 79.4751 61.9669 79.7435 63.3229C79.7435 63.4336 80.9787 63.6504 81.1314 63.6873C81.6041 63.7535 82.0691 63.8663 82.5194 64.024L81.7884 59.9513C81.7884 59.8406 80.5531 59.6238 80.4004 59.5869C79.9276 59.5217 79.4625 59.4089 79.0125 59.2502Z" fill="#3D91DA"/>
<path d="M49.1479 32.3648C49.0364 33.1551 49.1058 33.9602 49.351 34.7199C49.5962 35.4795 50.0108 36.174 50.5636 36.7512C51.0112 36.587 51.4432 36.3833 51.8544 36.1423C52.2632 35.8981 52.69 35.6853 53.1313 35.5058C52.5811 34.9307 52.1681 34.2393 51.923 33.4831C51.6779 32.7269 51.607 31.9253 51.7156 31.1379C51.7156 31.2579 50.5682 31.6776 50.4248 31.7468C50.2814 31.816 49.171 32.208 49.1479 32.3833V32.3648Z" fill="#F04637"/>
<path d="M30.2624 37.1895C30.02 38.0006 30.0417 38.8673 30.3243 39.6654C30.6069 40.4634 31.136 41.1516 31.8354 41.6312C32.0667 41.8064 33.2234 41.6819 33.5148 41.6911C33.9127 41.6911 34.306 41.7142 34.7039 41.7188C34.8683 41.7002 35.0344 41.7002 35.1989 41.7188C34.4991 41.2385 33.9699 40.5494 33.6873 39.7506C33.4047 38.9518 33.3832 38.0843 33.6259 37.2725C33.5611 37.4708 30.3364 36.945 30.2624 37.1849V37.1895Z" fill="#3D91DA"/>
<path d="M59.9463 53.3741L63.3607 55.1176C63.5319 55.2052 64.9199 52.7007 65.054 52.7653L61.6396 51.0264C61.4684 50.9388 60.0758 53.4433 59.9463 53.3741Z" fill="#F04637"/>
<path d="M111.963 116.526C111.851 116.827 111.813 117.15 111.852 117.468C111.892 117.786 112.007 118.09 112.188 118.354C112.369 118.619 112.611 118.836 112.894 118.989C113.177 119.141 113.492 119.223 113.813 119.229C114.021 119.229 114.484 118.69 114.646 118.551L115.234 118.062C115.28 118.021 115.419 117.855 115.47 117.855C114.146 117.924 113.11 116.411 113.619 115.147C113.544 115.22 113.462 115.285 113.374 115.341L112.786 115.848L112.199 116.31C112.138 116.36 111.99 116.443 111.963 116.517V116.526Z" fill="#3D91DA"/>
<path d="M112.671 36.0915L114.984 38.3608C115.044 38.4162 116.548 36.871 116.585 36.9033L114.244 34.6387C114.183 34.5787 112.68 36.1284 112.647 36.0915H112.671Z" fill="#F04637"/>
<path d="M116.904 64.0377C117.796 64.9231 118.958 65.4881 120.208 65.6442C121.457 65.8003 122.723 65.5387 123.807 64.9003C124.006 64.7803 123.631 62.2159 123.608 61.9161C123.585 61.6163 123.173 59.038 123.358 58.9319C122.274 59.5709 121.009 59.8333 119.76 59.678C118.51 59.5228 117.348 58.9586 116.455 58.074C116.491 58.3631 116.506 58.6544 116.501 58.9457C116.543 59.6514 116.598 60.3571 116.649 61.0582C116.7 61.7592 116.756 62.4649 116.816 63.166C116.816 63.3321 116.816 63.9363 116.904 64.0377Z" fill="#3D91DA"/>
<path d="M72.0726 146.917C72.085 147.187 72.1579 147.451 72.286 147.69C72.4141 147.928 72.5941 148.135 72.8128 148.295C73.0315 148.455 73.2834 148.565 73.55 148.615C73.8166 148.666 74.0911 148.656 74.3535 148.587C74.4229 148.587 74.6218 148.296 74.6403 148.278L75.3204 147.512L75.9913 146.742C76.0514 146.677 76.1902 146.442 76.2642 146.419C76.0019 146.488 75.7273 146.498 75.4607 146.447C75.1942 146.397 74.9423 146.288 74.7235 146.128C74.5048 145.967 74.3248 145.761 74.1967 145.522C74.0687 145.284 73.9957 145.02 73.9833 144.749C73.8941 144.859 73.7983 144.964 73.6965 145.063C73.4652 145.312 73.2338 145.57 73.0164 145.824L72.3456 146.594C72.2947 146.65 72.068 146.848 72.0726 146.917Z" fill="white"/>
<path d="M100.082 61.6442C100.254 62.3307 100.654 62.9391 101.217 63.3709C101.779 63.8028 102.472 64.0329 103.181 64.0241C103.293 64.0241 103.644 63.1847 103.723 63.074C103.801 62.9633 104.139 62.1192 104.246 62.1146C103.536 62.1262 102.843 61.8976 102.28 61.4663C101.717 61.0349 101.317 60.4261 101.146 59.7393C101.178 59.8776 100.683 60.5464 100.604 60.6848C100.526 60.8232 100.035 61.4551 100.082 61.6442Z" fill="#F04637"/>
<path d="M90.9072 67.4464L87.738 73.9037C87.7797 73.8207 91.245 75.0429 91.5411 75.1398C91.8372 75.2367 95.2423 76.4958 95.3672 76.2883L98.5411 69.831C98.4994 69.914 95.0341 68.6917 94.7334 68.5949C94.4327 68.498 91.009 67.2388 90.9072 67.4464Z" fill="#F04637"/>
<path d="M80.7565 86.4032C80.8514 87.2334 81.1179 88.035 81.5391 88.7575C81.9604 89.4799 82.5272 90.1074 83.2039 90.6004C83.614 90.3507 84.0011 90.0651 84.3606 89.7472C84.7183 89.4282 85.0987 89.1353 85.4987 88.8708C84.8209 88.3784 84.2531 87.7511 83.831 87.0287C83.4089 86.3062 83.1418 85.5043 83.0466 84.6736C82.6899 84.9929 82.3042 85.2785 81.8946 85.5269C81.7604 85.6237 80.7334 86.2418 80.7565 86.4032Z" fill="#3D91DA"/>
<path d="M51.0912 50.7636L45.7706 48.5312C45.9372 48.6004 44.5538 52.71 44.7805 52.8069L50.1011 55.0393C49.9345 54.9655 51.3179 50.8559 51.0912 50.7636Z" fill="#3D91DA"/>
<path d="M34.3661 53.9323C33.9685 54.4944 33.7296 55.1525 33.6743 55.8381C33.6189 56.5236 33.7492 57.2114 34.0515 57.8297C34.405 57.8715 34.7621 57.8715 35.1156 57.8297C35.4692 57.7908 35.8261 57.7908 36.1797 57.8297C35.8781 57.211 35.7486 56.523 35.8047 55.8375C35.8609 55.1519 36.1006 54.4939 36.4989 53.9323C36.1438 53.9714 35.7854 53.9714 35.4302 53.9323C35.2868 53.9323 34.454 53.8216 34.3661 53.9323Z" fill="white"/>
<path d="M53.335 62.0637L51.2854 64.0978C51.3363 64.047 52.8584 65.5645 52.9325 65.4815L54.9774 63.452C54.9311 63.5028 53.4044 61.9853 53.335 62.0683V62.0637Z" fill="#3D91DA"/>
<path d="M61.8248 67.7876C64.4487 71.3162 68.2878 73.7538 72.6047 74.6323C72.9934 74.7154 74.8255 72.4922 75.1401 72.1832C75.4547 71.8742 77.2452 69.6003 77.6245 69.6787C73.3064 68.8002 69.4668 66.3606 66.8447 62.8293C66.9557 62.9769 61.649 67.557 61.8248 67.7876Z" fill="white"/>
<path d="M107.234 47.0367L110.936 47.6132C110.936 47.6132 111.269 45.4454 111.25 45.4408L107.549 44.8643C107.549 44.8643 107.216 47.0367 107.234 47.0367Z" fill="white"/>
<path d="M79.5769 49.0339C80.0118 49.9564 80.4513 50.8281 80.8862 51.7275C80.9371 51.829 81.8116 51.829 81.9457 51.8429C82.0799 51.8567 82.9589 51.8429 83.0098 51.9351C82.5718 51.0403 82.1339 50.1424 81.6959 49.2415C81.645 49.14 80.7706 49.14 80.6364 49.1262C80.5022 49.1123 79.6232 49.1262 79.5769 49.0339Z" fill="white"/>
<path d="M21.9808 20.0961C15.8692 18.3434 12.8249 26.0368 15.5314 30.5892C16.7945 32.7109 20.158 33.7025 22.3602 32.6509C23.4613 32.1297 23.1236 30.0588 23.0311 29.0809C22.883 27.9417 21.2267 27.2913 20.3014 27.1345C18.8301 26.8532 17.2294 27.4159 15.9062 27.9878C13.69 28.9472 11.002 31.0181 10.9419 33.6518C10.9002 35.898 10.9743 37.563 12.6676 39.2788C14.7634 41.4005 18.5294 42.8211 21.4997 42.3368C21.6477 42.3138 21.3933 39.9661 21.4997 39.943C19.0569 40.3443 16.5539 39.4126 14.4627 38.2226C13.3668 37.5935 12.4199 36.7361 11.6867 35.7089C11.2241 35.0401 11.3259 33.8363 11.0714 35.1093C11.225 34.5496 11.4857 34.0249 11.8394 33.5641C13.1765 31.5624 15.6702 30.2755 17.9326 29.6805C19.5889 29.2424 22.7997 29.473 23.0588 31.7146V29.3208C22.8183 30.9674 20.1811 30.7045 19.0476 30.5015C17.8913 30.2732 16.841 29.6757 16.0555 28.7995C15.2701 27.9232 14.7921 26.8158 14.694 25.6447C14.694 26.3919 14.694 27.1345 14.694 27.8771C14.6996 26.9985 14.9102 26.1333 15.3093 25.3499C15.7084 24.5666 16.285 23.8866 16.9934 23.3639C17.7017 22.8412 18.5225 22.49 19.3906 22.3384C20.2587 22.1867 21.1502 22.2385 21.9947 22.4899C21.8004 22.4299 22.2261 20.1837 21.9947 20.0961H21.9808Z" fill="#3D91DA"/>
<path d="M153.643 4.38174C155.924 2.60138 158.867 1.24996 161.411 3.30707C163.956 5.36417 163.193 8.26073 161.842 10.7283C160.639 12.933 159.237 16.4061 156.456 16.9273C155.226 17.1626 153.963 16.0833 153.44 15.0824C153.264 14.4459 153.222 14.5704 153.315 15.4652C153.388 15.1974 153.492 14.9389 153.625 14.695C153.896 14.1967 154.287 13.7735 154.763 13.4635C156.896 11.8953 160.236 13.6987 161.744 15.3084C163.595 17.2733 164.252 20.2067 164.52 22.7942C164.562 24.1304 164.406 25.4653 164.058 26.7562C163.757 28.1399 163.447 29.0624 162.138 29.7497C160.005 30.852 156.276 30.0633 155.938 27.402V29.8004C156.156 27.3651 161.101 30.5384 161.888 31.1841C165.233 33.9884 164.076 39.0251 161.069 41.4466C160.666 41.7694 161.448 43.536 161.069 43.8404C166.408 39.5463 165.043 26.724 156.859 26.5395C155.707 26.5118 155.934 27.8217 155.934 28.592C155.934 30.0725 156.058 31.2948 157.544 32.0374C159.292 32.9183 161.893 32.7477 163.28 31.3225C164.414 30.1555 164.46 27.3328 164.571 25.7876C164.798 22.642 164.659 19.3304 163.646 16.3231C162.526 12.9423 158.131 8.56976 154.393 11.3233C152.542 12.6794 152.667 17.0057 154.18 18.4955C157.918 22.1854 161.911 13.4219 162.795 10.9036C163.549 8.7358 163.503 5.57173 162.896 3.36241C161.592 -1.4252 156.641 -0.387426 153.616 1.97871C153.218 2.29235 153.995 4.07733 153.616 4.37252L153.643 4.38174Z" fill="white"/>
<path d="M237.153 82.8147L232.063 83.0269C231.966 83.0269 232.063 87.4224 232.063 87.4224L237.153 87.2149C237.25 87.2149 237.153 82.8193 237.153 82.8147Z" fill="#F04637"/>
<path d="M132.218 116.047L133.92 112.818C133.92 112.859 132.037 112.251 131.875 112.205C131.713 112.158 129.877 111.527 129.821 111.633C129.251 112.706 128.683 113.782 128.119 114.861C128.119 114.82 130.858 117.832 131.019 117.878C131.181 117.924 132.162 116.153 132.218 116.033V116.047Z" fill="white"/>
<path d="M157.969 144.532L158.594 151.183C159.178 151.308 159.77 151.391 160.366 151.433C160.5 151.433 162.133 151.594 162.138 151.649L161.513 144.994C160.929 144.871 160.337 144.788 159.741 144.745C159.607 144.745 157.974 144.583 157.969 144.532Z" fill="white"/>
<path d="M235.145 36.396C235.486 35.3746 235.592 34.2897 235.454 33.2219C235.316 32.1542 234.938 31.1312 234.349 30.2293C234.141 30.2113 233.932 30.2113 233.724 30.2293C233.225 30.2508 232.725 30.2785 232.225 30.3123C231.721 30.3446 231.221 30.3722 230.722 30.4091C230.515 30.4435 230.306 30.462 230.097 30.4645C230.687 31.3665 231.064 32.3894 231.202 33.4572C231.34 34.5249 231.234 35.6099 230.893 36.6312C230.925 36.5297 232.831 36.5343 233.021 36.5251C233.211 36.5159 235.085 36.5528 235.145 36.3729V36.396Z" fill="white"/>
<path d="M165.136 56.9118C164.371 56.4657 163.521 56.185 162.64 56.0881C161.759 55.9911 160.868 56.0801 160.024 56.3491C159.931 56.3768 160.135 58.3647 160.148 58.5446C160.162 58.7245 160.375 60.717 160.315 60.7354C161.157 60.4726 162.045 60.389 162.922 60.4899C163.799 60.5908 164.644 60.874 165.404 61.3212C165.404 61.3212 165.372 60.5924 165.376 60.6801C165.349 60.1635 165.316 59.6469 165.284 59.1303C165.252 58.6138 165.215 58.0926 165.173 57.576C165.185 57.3607 165.166 57.1449 165.117 56.9349L165.136 56.9118Z" fill="white"/>
<path d="M135.045 78.765L132.31 75.7209C132.232 75.6286 129.048 78.5437 129.016 78.4883C129.941 79.503 130.851 80.5208 131.746 81.5417C131.829 81.6293 134.984 78.7189 135.045 78.7743V78.765Z" fill="#3D91DA"/>
<path d="M221.265 48.236L224.18 43.1256C224.087 43.287 220.349 41.2806 220.224 41.4928L217.31 46.6033C217.402 46.4418 221.14 48.4482 221.265 48.236Z" fill="#F04637"/>
<path d="M222.519 94.6317C222.426 93.557 222.329 92.4823 222.237 91.403C221.798 91.2195 221.342 91.0774 220.876 90.9787C220.403 90.8863 219.939 90.7536 219.489 90.582C219.581 91.6567 219.678 92.7314 219.771 93.8107C220.208 93.9983 220.664 94.1405 221.131 94.235C221.604 94.3289 222.068 94.4616 222.519 94.6317Z" fill="white"/>
<path d="M158.862 126.77C158.617 125.414 158.376 124.054 158.131 122.698C158.131 122.587 156.891 122.37 156.743 122.333C156.27 122.268 155.805 122.155 155.355 121.997C155.6 123.353 155.846 124.713 156.086 126.069C156.086 126.18 157.326 126.397 157.474 126.434C157.947 126.499 158.412 126.612 158.862 126.77Z" fill="#3D91DA"/>
<path d="M199.617 54.933C199.716 53.6432 199.446 52.352 198.838 51.209C198.231 50.0661 197.311 49.1183 196.184 48.4757C195.861 48.2913 193.904 49.3982 193.538 49.555C192.913 49.8179 192.294 50.0808 191.687 50.3484C191.576 50.3945 190.989 50.7312 190.919 50.6897C192.045 51.3331 192.964 52.281 193.572 53.4237C194.179 54.5665 194.45 55.8573 194.352 57.147C194.352 56.9717 196.749 56.1691 196.999 56.0631C197.249 55.957 199.608 55.219 199.627 54.9284L199.617 54.933Z" fill="#F04637"/>
<path d="M194.769 116.31C194.88 115.519 194.811 114.714 194.566 113.955C194.321 113.195 193.906 112.501 193.353 111.923C192.905 112.087 192.473 112.29 192.062 112.532C191.654 112.776 191.227 112.989 190.785 113.169C191.338 113.746 191.753 114.44 191.997 115.2C192.241 115.96 192.31 116.765 192.197 117.555C192.197 117.435 193.349 117.015 193.492 116.946C193.635 116.877 194.746 116.485 194.769 116.31Z" fill="#F04637"/>
<path d="M214.284 111.753C214.497 110.962 214.486 110.128 214.252 109.344C214.017 108.56 213.569 107.856 212.956 107.311C212.762 107.136 211.804 107.26 211.54 107.251C211.207 107.251 210.869 107.228 210.536 107.223C210.462 107.223 210.166 107.26 210.12 107.223C210.732 107.77 211.179 108.475 211.414 109.259C211.648 110.044 211.66 110.878 211.448 111.67C211.499 111.471 214.224 111.997 214.284 111.757V111.753Z" fill="#3D91DA"/>
<path d="M235.714 53.0928L226.29 52.5808C226.114 52.5808 225.651 59.0381 225.568 59.0381L234.992 59.5777C235.168 59.5777 235.635 53.1205 235.714 53.1205V53.0928Z" fill="#3D91DA"/>
<path d="M177.424 59.2917C177.489 58.4976 177.786 57.74 178.28 57.1133C178.774 56.4867 179.441 56.0188 180.2 55.7679C180.063 55.7421 179.93 55.7019 179.802 55.648L178.83 55.3758C178.507 55.2882 178.187 55.196 177.859 55.1129C177.766 55.1129 177.544 54.9838 177.456 55.0115C176.698 55.2624 176.03 55.7303 175.536 56.3569C175.043 56.9835 174.745 57.7411 174.68 58.5353C174.68 58.7152 177.456 59.158 177.424 59.2917Z" fill="#3D91DA"/>
<path d="M135.734 91.1076C135.105 90.6924 134.397 90.4127 133.653 90.2864C132.91 90.1601 132.148 90.1901 131.417 90.3743C131.117 90.4481 130.626 91.1676 130.404 91.3982C130.182 91.6288 129.941 91.8871 129.696 92.1316C129.636 92.1962 129.483 92.4222 129.409 92.4406C130.141 92.2588 130.902 92.2305 131.645 92.3575C132.389 92.4845 133.097 92.7641 133.726 93.1786C133.925 93.3077 135.577 91.0062 135.734 91.1076Z" fill="white"/>
<path d="M146.884 58.7658C146.725 58.1071 146.385 57.5057 145.902 57.0291C145.419 56.5524 144.812 56.2195 144.15 56.0676C144.036 56.1497 143.931 56.2424 143.835 56.3444L143.076 57.027L142.327 57.7327C142.29 57.7696 142.058 58.0325 142.021 58.0233C142.683 58.1766 143.289 58.51 143.772 58.9864C144.255 59.4628 144.595 60.0635 144.756 60.7215C145.086 60.3725 145.445 60.0516 145.829 59.7621C145.945 59.656 146.921 58.9273 146.884 58.7843V58.7658Z" fill="#3D91DA"/>
<path d="M212.257 37.0049L213.058 33.7762C213.058 33.7486 214.982 34.6987 214.978 34.7356L214.182 37.9642C214.182 37.9965 212.257 37.0418 212.257 37.0095V37.0049Z" fill="white"/>
<path d="M192.779 129.768L189.055 128.09C189.03 128.578 188.981 129.064 188.907 129.547C188.907 129.676 188.694 130.963 188.787 131.009L192.488 132.688C192.442 132.688 192.627 131.351 192.636 131.231C192.725 130.749 192.766 130.259 192.756 129.768H192.779Z" fill="#3D91DA"/>
<path d="M186.219 42.3966C186.192 40.3596 186.617 38.3417 187.464 36.4876C188.311 34.6336 189.559 32.9894 191.118 31.6729C190.813 31.9312 188.278 31.2117 187.829 31.1148C187.052 30.9903 186.274 30.8704 185.516 30.7551C185.354 30.7551 184.66 30.5291 184.549 30.6259C182.99 31.9432 181.742 33.5875 180.894 35.4412C180.046 37.295 179.62 39.3125 179.645 41.3496C179.645 41.7601 186.237 42.0876 186.242 42.3966H186.219Z" fill="white"/>
<path d="M186.441 94.4379L183.022 92.699C182.855 92.6114 181.463 95.1159 181.329 95.0467L184.743 96.7902C184.914 96.8778 186.307 94.3733 186.441 94.4379Z" fill="white"/>
<path d="M172.358 39.0342C172.201 38.4763 172.187 37.8878 172.319 37.3234C172.451 36.759 172.724 36.2369 173.112 35.8056C172.763 35.7401 172.421 35.6428 172.089 35.515C171.974 35.4827 171.136 35.1552 171.058 35.2429C170.667 35.6728 170.393 36.1949 170.261 36.7598C170.129 37.3247 170.144 37.9138 170.304 38.4715C170.331 38.573 171.229 38.7298 171.326 38.7621C171.423 38.7944 172.33 38.9328 172.358 39.0342Z" fill="#F04637"/>
<path d="M227.062 75.4442C226.595 74.9587 225.998 74.6168 225.342 74.459C224.686 74.3012 223.999 74.3342 223.361 74.554C223.27 74.9103 223.215 75.2751 223.199 75.6425C223.19 76.0092 223.144 76.3739 223.06 76.731C223.698 76.5112 224.386 76.4782 225.042 76.636C225.698 76.7938 226.294 77.1357 226.762 77.6212C226.776 77.2552 226.83 76.8917 226.923 76.5373C226.923 76.3851 227.169 75.5549 227.062 75.4442Z" fill="white"/>
<path d="M144.497 116.997L141.693 116.01C141.455 116.284 141.24 116.577 141.05 116.886C140.864 117.196 140.657 117.494 140.43 117.776L143.206 118.768C143.443 118.494 143.659 118.2 143.849 117.892C144.038 117.58 144.246 117.282 144.474 116.997H144.497Z" fill="#3D91DA"/>
<path d="M147.629 40.6949C147.8 39.8139 147.976 38.9283 148.147 38.0474C148.147 38.075 147.166 38.0843 147.083 38.0889C146.727 38.0805 146.371 38.1021 146.019 38.1534C145.849 39.039 145.677 39.9215 145.501 40.8009C145.501 40.7779 146.482 40.764 146.565 40.7594C146.921 40.7703 147.277 40.7487 147.629 40.6949Z" fill="#3D91DA"/>
<path d="M140.166 141.848L131.325 138.158C131.431 138.204 131.163 140.953 131.149 141.212C131.135 141.47 130.83 144.177 131.033 144.265L139.875 147.955C139.768 147.909 140.037 145.16 140.051 144.901C140.064 144.643 140.37 141.936 140.166 141.848Z" fill="white"/>
<path d="M137.08 32.3372L128.813 32.4848C128.665 32.4848 128.836 35.575 128.813 35.575L137.08 35.4274C137.228 35.4274 137.057 32.3372 137.08 32.3372Z" fill="#3D91DA"/>
<path d="M163.216 81.9982L166.126 76.8877C166.033 77.0538 162.3 75.0428 162.175 75.255L159.26 80.3654C159.353 80.204 163.091 82.2104 163.216 81.9982Z" fill="#F04637"/>
<path d="M162.711 103.395C162.617 102.564 162.351 101.761 161.93 101.038C161.508 100.315 160.941 99.6867 160.264 99.1931C159.853 99.4417 159.466 99.7273 159.107 100.046C158.749 100.364 158.368 100.657 157.969 100.923C158.646 101.415 159.214 102.043 159.635 102.765C160.056 103.488 160.322 104.29 160.417 105.12C160.776 104.803 161.163 104.519 161.573 104.271C161.707 104.17 162.73 103.552 162.711 103.395Z" fill="#3D91DA"/>
<path d="M146.019 104.451L142.887 103.616C143.067 103.663 142.757 105.752 142.97 105.812L146.102 106.647C145.922 106.596 146.232 104.507 146.019 104.451Z" fill="white"/>
<path d="M202.708 37.5998C202.701 36.8235 202.489 36.0629 202.092 35.3947C201.696 34.7265 201.129 34.1746 200.45 33.7946C200.279 33.6977 199.146 35.4827 198.998 35.4043C199.676 35.784 200.242 36.3352 200.64 37.0023C201.037 37.6695 201.251 38.4291 201.26 39.2049C201.26 39.0573 201.885 38.5315 201.991 38.4115C202.097 38.2916 202.713 37.7981 202.708 37.5998Z" fill="white"/>
<path d="M173.223 84.3091L178.543 86.5368C178.372 86.4676 179.76 82.358 179.529 82.2612L174.208 80.0288C174.38 80.1026 172.992 84.2122 173.223 84.3091Z" fill="#3D91DA"/>
<path d="M209.097 95.3235C208.968 93.866 208.835 92.4085 208.699 90.951C208.699 90.8725 205.868 91.0801 205.863 91.0432C205.997 92.5007 206.127 93.9582 206.261 95.4157C206.261 95.4987 209.093 95.2866 209.097 95.3235Z" fill="white"/>
<path d="M206.363 124.326L210.129 124.75C210.189 124.75 210.467 122.582 210.495 122.587L206.729 122.158C206.668 122.158 206.391 124.33 206.363 124.326Z" fill="white"/>
<path d="M215.334 70.2277L217.379 68.1983C217.332 68.2444 215.806 66.7316 215.736 66.8146L213.687 68.844C213.738 68.7979 215.264 70.3107 215.334 70.2277Z" fill="#F04637"/>
<path d="M140.832 48.116C138.209 44.5861 134.37 42.1468 130.053 41.2667C129.664 41.1883 127.832 43.4068 127.517 43.7204C127.203 44.0341 125.412 46.3034 125.033 46.225C129.35 47.1035 133.189 49.5411 135.813 53.0697C135.706 52.9267 141.008 48.3466 140.832 48.116Z" fill="#F04637"/>
<path d="M179.913 68.9638L175.666 68.7332C175.587 68.7332 175.379 71.6482 175.342 71.6435L179.589 71.8788C179.668 71.8788 179.876 68.9638 179.913 68.9638Z" fill="#F04637"/>
<path d="M168.397 135.409C167.935 134.51 167.523 133.61 167.084 132.716C167.033 132.614 166.158 132.61 166.024 132.6C165.89 132.591 165.011 132.6 164.965 132.503C165.399 133.401 165.837 134.299 166.279 135.197C166.325 135.298 167.204 135.303 167.333 135.312C167.463 135.322 168.347 135.312 168.397 135.409Z" fill="white"/>
<path d="M150.335 138.91L147.486 136.853C147.333 136.742 146 138.375 145.871 138.283L148.698 140.349C148.855 140.46 150.187 138.827 150.317 138.919L150.335 138.91Z" fill="#3D91DA"/>
<path d="M144.349 85.7066C150.46 87.4593 153.505 79.7613 150.798 75.2135C149.535 73.0918 146.172 72.1001 143.969 73.1518C142.868 73.673 143.206 75.7485 143.317 76.7217C143.447 77.861 145.103 78.4929 146.028 78.6681C147.495 78.9495 149.1 78.3868 150.423 77.8148C152.639 76.8555 155.341 74.7845 155.388 72.1509C155.429 69.9047 155.355 68.2396 153.657 66.5238C151.566 64.4021 147.8 62.9815 144.825 63.4658C144.682 63.4658 144.936 65.8366 144.825 65.855C147.273 65.4584 149.776 66.3901 151.867 67.58C152.962 68.2104 153.908 69.0676 154.643 70.0938C155.105 70.758 155.004 71.9664 155.258 70.6934C155.103 71.2523 154.842 71.7767 154.49 72.2385C153.153 74.2403 150.659 75.5271 148.397 76.1221C146.741 76.5557 143.53 76.3297 143.271 74.0881V76.4819C143.511 74.8353 146.148 75.0982 147.282 75.2965C148.438 75.5263 149.487 76.1241 150.272 77.0001C151.058 77.8761 151.536 78.9827 151.636 80.1533C151.636 79.4107 151.636 78.6681 151.636 77.9255C151.631 78.8039 151.421 79.6691 151.022 80.4526C150.624 81.236 150.047 81.916 149.339 82.4389C148.631 82.9617 147.811 83.3128 146.943 83.4645C146.075 83.6162 145.184 83.5643 144.339 83.3128C144.534 83.3681 144.108 85.6189 144.339 85.7066H144.349Z" fill="#F04637"/>
<path d="M166.422 104.045C168.707 102.26 171.645 100.909 174.19 102.971C176.734 105.032 175.971 107.924 174.625 110.387C173.417 112.597 172.015 116.065 169.235 116.586C168.004 116.822 166.741 115.742 166.218 114.741C166.043 114.105 166.001 114.234 166.093 115.129C166.167 114.861 166.271 114.603 166.403 114.359C166.675 113.86 167.066 113.437 167.542 113.127C169.674 111.554 173.015 113.362 174.523 114.972C176.374 116.937 177.031 119.866 177.299 122.453C177.405 123.482 177.197 124.759 176.836 126.42C176.54 127.804 176.226 128.726 174.916 129.413C172.783 130.511 169.054 129.727 168.717 127.066V129.459C168.934 127.019 173.88 130.193 174.666 130.843C178.011 133.647 176.859 138.684 173.848 141.11C173.45 141.433 174.232 143.195 173.848 143.499C179.191 139.205 177.822 126.383 169.642 126.198C168.485 126.175 168.717 127.485 168.717 128.251C168.717 129.732 168.842 130.954 170.327 131.701C172.08 132.577 174.68 132.411 176.068 130.981C177.197 129.815 177.243 126.992 177.354 125.447C177.581 122.306 177.442 118.989 176.429 115.987C175.31 112.601 170.914 108.229 167.176 110.987C165.325 112.338 165.45 116.669 166.963 118.159C170.706 121.849 174.694 113.086 175.578 110.563C176.337 108.395 176.286 105.235 175.684 103.026C174.375 98.2338 169.425 99.2716 166.399 101.642C166.001 101.956 166.778 103.741 166.399 104.036L166.422 104.045Z" fill="#3D91DA"/>
<path d="M126.523 111.577C125.865 111.168 125.352 110.564 125.057 109.849C124.763 109.134 124.701 108.344 124.88 107.592C125.246 105.877 126.731 104.585 126.962 102.902C127.092 102.067 127.193 101.223 127.254 100.379C127.341 99.1748 126.569 98.9027 125.708 98.2939C122.789 96.2321 124.464 93.0911 124.783 90.2638C125.162 86.8691 124.561 84.1063 123.034 81.0391C123.242 81.4588 122.632 82.2936 122.849 82.7226C123.803 84.4835 124.446 86.3946 124.751 88.3727C124.977 90.2591 124.228 92.0303 123.936 93.8706C123.548 96.3059 123.543 98.589 125.787 100.176C126.902 100.964 127.337 101.264 126.601 102.597C125.819 104.013 125.107 105.199 124.889 106.836C124.603 109.031 124.047 111.96 126.333 113.27C126.148 113.164 126.726 111.707 126.518 111.587L126.523 111.577Z" fill="white"/>
<path d="M28.2219 91.1816C23.0356 89.987 20.3568 88.0775 21.0924 86.597C21.9252 84.9319 26.871 84.0233 27.3105 82.3628C27.5415 81.542 27.6521 80.6922 27.639 79.8399C27.6112 78.6268 24.7243 78.1241 21.4163 77.2477C10.183 74.2774 15.3694 71.5192 15.7071 68.6964C16.1142 65.3017 13.1162 62.2807 6.66681 58.6692C7.54586 59.1627 5.57493 59.8453 6.48174 60.3527C10.2801 62.479 13.5742 64.5684 15.0409 66.727C16.4288 68.7333 14.1942 70.3477 13.6529 72.1603C12.9497 74.5633 13.5974 76.9156 22.2306 79.1987C26.5286 80.338 28.2034 80.7716 25.9318 81.9339C23.4936 83.17 21.2312 84.1847 20.9212 85.8129C20.5048 87.9945 19.3436 90.8588 28.0415 92.8651C27.329 92.7037 29.0131 91.3661 28.2266 91.1816H28.2219Z" fill="#F04637"/>
<path d="M77.5551 7.71655C74.8069 8.2931 72.1651 10.281 69.986 11.9368C67.9318 13.4958 66.5208 14.9856 66.5208 17.6054C66.5208 20.1007 66.7197 21.7104 68.6952 23.5185C71.1288 25.7462 74.6496 27.2083 74.7098 30.9905C74.7098 30.0219 74.7098 29.0548 74.7098 28.0893C74.2749 31.6546 69.1162 32.0467 69.0515 35.5382C68.9705 36.6791 68.9705 37.8243 69.0515 38.9652C69.3985 41.7972 72.7897 42.3276 72.9008 45.3902C72.9008 44.3663 72.9008 43.3469 72.9008 42.3276C72.5954 44.5692 71.4573 46.2297 70.0554 47.9547C69.5326 48.5912 70.5551 50.4546 70.0554 51.0726C72.1559 48.4897 72.9332 46.3035 72.9147 43.0979C72.9147 41.7511 72.8638 40.8194 71.9893 39.7216C70.8697 38.3379 69.2921 37.7891 69.0561 35.8473C69.0561 36.8159 69.0561 37.7844 69.0561 38.753C69.1024 36.4007 71.5082 35.3999 73.1043 34.1407C74.7005 32.8815 74.7329 31.1427 74.7283 29.247C74.7283 26.7563 74.2332 25.0221 72.3132 23.2509C70.1572 21.2953 66.6457 19.8194 66.5208 16.4985C66.5208 17.5178 66.5208 18.5371 66.5208 19.5611C66.8215 17.1304 69.3383 15.493 71.1751 14.1646C73.0118 12.8363 75.2742 11.3096 77.5458 10.8345C77.7772 10.7838 77.3562 7.75345 77.5458 7.71655H77.5551Z" fill="#F04637"/>
<path d="M205.114 62.9863C202.051 63.6274 199.099 65.846 196.67 67.6909C194.357 69.4344 192.812 71.0902 192.802 73.996C192.802 76.7634 193.025 78.5761 195.227 80.5917C197.938 83.0777 201.866 84.7105 201.926 88.9308C201.926 87.8515 201.926 86.7722 201.926 85.7021C201.463 89.6872 195.68 90.1208 195.611 94.0044C195.523 95.2774 195.523 96.555 195.611 97.828C195.999 100.983 199.775 101.582 199.909 104.996C199.909 103.855 199.909 102.716 199.909 101.578C199.571 104.078 198.299 105.932 196.735 107.855C196.152 108.566 197.29 110.646 196.735 111.333C199.076 108.455 199.946 106.015 199.927 102.44C199.927 100.932 199.867 99.8943 198.882 98.6674C197.633 97.1177 195.875 96.5135 195.606 94.3503C195.606 95.4296 195.606 96.5058 195.606 97.5789C195.657 94.9545 198.341 93.8383 200.122 92.4177C201.903 90.9971 201.94 89.0738 201.935 86.9567C201.935 84.1893 201.38 82.2429 199.243 80.2919C196.846 78.101 192.927 76.4774 192.802 72.7737C192.802 73.9084 192.802 75.0461 192.802 76.1869C193.14 73.4794 195.944 71.6483 197.998 70.1908C200.052 68.7333 202.569 67.0037 205.1 66.4733C205.364 66.4179 204.892 63.0371 205.1 62.9956L205.114 62.9863Z" fill="#3D91DA"/>
</g>
<path opacity="0.08" d="M120.119 190.873L56.3052 213.436L120.119 236L183.929 213.436L120.119 190.873Z" fill="black"/>
<path d="M175.083 141.382L96.0334 82.8055L106.614 68.6133L151.668 90.2913L185.664 127.19L175.083 141.382Z" fill="#7144BB"/>
<path d="M139.394 106.951L185.664 127.19L174.236 142.512L127.966 122.273L139.394 106.951Z" fill="#5D37A6"/>
<path d="M160.023 130.225L168.037 119.483L158.566 115.341L151.936 124.234L147.157 130.64L147.143 130.663L156.614 134.805L156.628 134.782L160.023 130.225Z" fill="#F7F7F7"/>
<path d="M139.394 106.951L106.614 68.6133L95.1914 83.9355L127.966 122.273L139.394 106.951Z" fill="#6E4CD6"/>
<path d="M119.18 99.9589L125.81 91.0663L119.101 83.2161L111.088 93.9628L107.692 98.5198L107.678 98.5429L114.387 106.389L114.401 106.365L119.18 99.9589Z" fill="white"/>
<path d="M160.791 100.595L125.842 91.0247L119.115 83.1975L154.069 92.7681L160.791 100.595Z" fill="#F5F5F5"/>
<path d="M139.32 84.7058L158.589 115.313L168.041 119.474L148.772 88.8708L139.32 84.7058Z" fill="#F2F2F2"/>
<path d="M124.163 71.3762C124.163 71.3762 115.414 80.218 144.52 91.7074L147.99 93.2571L129.664 69.5266L124.163 71.3762Z" fill="#DEDEDE"/>
<path d="M151.705 85.7113C151.103 83.9433 150.52 82.1675 149.956 80.3841C148.42 75.5319 147.754 70.5552 144.113 66.6577C142.16 64.573 139.153 62.2576 136.104 63.2261L135.854 63.3138C130.418 65.394 124.163 71.3762 124.163 71.3762C124.163 71.3762 130.584 70.9149 134.508 80.1396C136.86 85.6435 141.178 90.0811 146.625 92.593L151.705 85.7113Z" fill="white"/>
<g opacity="0.08">
<path d="M146.324 91.1584C145.676 90.4709 145.09 89.7268 144.575 88.9352C144.173 88.1925 143.992 87.3509 144.052 86.5091C144.674 87.2454 145.439 87.848 146.301 88.2803C146.397 88.3454 146.506 88.388 146.62 88.4048C146.735 88.4216 146.852 88.4121 146.962 88.3772C147.036 88.3337 147.099 88.2734 147.144 88.2013C147.19 88.1291 147.218 88.0471 147.226 87.962C147.24 87.7918 147.226 87.6205 147.185 87.4547L146.62 84.572C147.251 84.9075 147.829 85.3333 148.337 85.8357C148.44 85.9513 148.562 86.0494 148.697 86.1263C148.766 86.1708 148.847 86.1945 148.929 86.1945C149.011 86.1945 149.091 86.1708 149.16 86.1263C149.227 86.052 149.275 85.9634 149.302 85.8674C149.328 85.7714 149.332 85.6706 149.313 85.5728C149.28 85.0378 149.253 84.4982 149.225 83.9631C149.923 84.3817 150.447 85.0365 150.701 85.8081C150.952 86.5749 151.028 87.3881 150.923 88.188C150.777 89.4579 150.318 90.6718 149.586 91.7211C149.225 92.2474 148.799 92.7263 148.318 93.1463C148.165 93.2847 147.814 93.6767 147.587 93.6491C147.36 93.6214 147.365 93.1878 147.319 93.0079C147.137 92.3225 146.796 91.6891 146.324 91.1584Z" fill="black"/>
</g>
<path d="M147.088 92.0395C147.088 92.0395 136.562 96.1906 120.957 92.5976L127.087 99.3454L120.374 107.463C120.374 107.463 133.888 106.864 145.251 98.3445C156.614 89.8255 147.088 92.0395 147.088 92.0395Z" fill="white"/>
<g opacity="0.08">
<path d="M143.701 92.9895C144.155 93.2748 144.669 93.4526 145.203 93.5094C145.738 93.5661 146.278 93.5003 146.782 93.317L144.987 95.0236C145.759 95.4252 146.64 95.5676 147.499 95.4295C147.988 95.366 148.447 95.1589 148.818 94.8345C148.999 94.6692 149.134 94.46 149.21 94.2273C149.287 93.9945 149.301 93.7461 149.253 93.5061C149.134 93.1339 148.878 92.8207 148.536 92.6298C148.045 92.3755 147.525 92.1849 146.986 92.0624C146.718 91.9463 146.424 91.9033 146.135 91.9379C145.759 92.0928 145.404 92.2909 145.075 92.5283C144.867 92.6344 143.918 93.1279 143.701 92.9895Z" fill="black"/>
</g>
<path d="M177.96 112.814C177.96 112.814 171.585 123.482 153.088 98.3215L150.71 95.3696L178.363 107.039L177.96 112.814Z" fill="#DEDEDE"/>
<path d="M157.095 89.8577C158.945 89.996 160.796 90.1067 162.684 90.2036C164.16 90.2774 165.64 90.342 167.116 90.365C170.614 90.4204 174.366 90.6833 177.53 92.3898C180.107 93.7736 183.198 96.2089 182.832 99.4975C182.189 105.268 177.961 112.813 177.961 112.813C177.961 112.813 176.809 106.494 166.857 105.042C160.919 104.155 155.523 101.103 151.714 96.4764L157.095 89.8577Z" fill="white"/>
<g opacity="0.08">
<path d="M153.167 96.4257C153.997 96.8789 154.868 97.2556 155.767 97.5511C156.588 97.7539 157.451 97.717 158.251 97.445C157.379 97.0325 156.6 96.4472 155.961 95.7246C155.875 95.6486 155.807 95.5538 155.762 95.4474C155.718 95.3411 155.699 95.226 155.707 95.1112C155.729 95.0289 155.771 94.9533 155.829 94.8907C155.887 94.8281 155.96 94.7803 156.04 94.7514C156.201 94.697 156.37 94.6675 156.54 94.6638L159.482 94.4793C158.995 93.9567 158.436 93.5063 157.821 93.1417C157.685 93.0701 157.56 92.9783 157.451 92.8696C157.397 92.8137 157.36 92.7442 157.342 92.6686C157.325 92.593 157.329 92.5142 157.354 92.4406C157.433 92.2561 157.659 92.1962 157.854 92.1547L159.436 91.8318C158.856 91.2642 158.091 90.9236 157.28 90.8724C156.473 90.8218 155.665 90.9526 154.916 91.2553C153.72 91.7175 152.656 92.4669 151.821 93.4369C151.405 93.9197 151.049 94.4509 150.761 95.0189C150.664 95.2034 150.372 95.6416 150.456 95.8538C150.539 96.0659 150.946 95.9599 151.15 95.9506C151.85 95.9527 152.54 96.1153 153.167 96.4257Z" fill="black"/>
</g>
<path d="M152.006 95.8307C152.006 95.8307 150.618 107.034 158.062 121.199L149.965 116.988L143.784 125.488C143.784 125.488 140.953 112.306 146.352 99.1977C151.751 86.0894 152.006 95.8307 152.006 95.8307Z" fill="white"/>
<g opacity="0.08">
<path d="M152.047 99.419C151.657 99.0523 151.356 98.6016 151.166 98.1012C150.977 97.6009 150.905 97.0641 150.955 96.5317L149.753 98.6949C149.171 98.0561 148.81 97.2475 148.725 96.3887C148.662 95.9019 148.746 95.4072 148.966 94.9681C149.08 94.7516 149.249 94.5684 149.456 94.4366C149.663 94.3048 149.901 94.2289 150.146 94.2163C150.536 94.2328 150.905 94.3978 151.177 94.6775C151.541 95.0894 151.852 95.5449 152.103 96.0336C152.283 96.2605 152.4 96.5311 152.441 96.8177C152.384 97.2201 152.282 97.6147 152.135 97.9938C152.112 98.206 151.858 99.2438 152.047 99.419Z" fill="black"/>
</g>
<path d="M152.553 96.4558C155.538 96.072 157.646 93.3482 157.261 90.3721C156.876 87.396 154.144 85.2946 151.158 85.6784C148.173 86.0623 146.065 88.7861 146.45 91.7622C146.835 94.7383 149.568 96.8397 152.553 96.4558Z" fill="#DEDEDE"/>
<path d="M169.693 158.734L122.09 153.965V172.922L169.693 158.734Z" fill="#6D42B5"/>
<path d="M74.1499 158.734L122.09 153.965V172.926L74.1499 158.734Z" fill="#643CA8"/>
<path d="M87.7473 158.102L90.5232 160.215C90.6574 160.316 92.434 158.07 92.5358 158.144L89.7599 156.031C89.6257 155.93 87.8537 158.181 87.7519 158.102H87.7473Z" fill="#3D91DA"/>
<path d="M113.832 162.364C114.191 162.947 114.714 163.413 115.335 163.704C115.957 163.995 116.65 164.098 117.329 164.001C117.459 164.001 117.792 162.784 117.843 162.618C117.894 162.451 118.209 161.257 118.306 161.234C117.626 161.331 116.933 161.227 116.311 160.936C115.69 160.645 115.167 160.18 114.808 159.596C114.882 159.712 114.345 160.805 114.299 160.98C114.253 161.155 113.702 162.184 113.836 162.364H113.832Z" fill="white"/>
<path d="M127.24 154.232L126.314 160.634C126.314 160.805 133.101 161.953 133.092 162.018C133.401 159.884 133.709 157.75 134.017 155.616C134.041 155.445 127.226 154.297 127.235 154.232H127.24Z" fill="#F04637"/>
<path d="M149.572 158.134C150.623 158.997 151.734 159.783 152.899 160.487C153.454 160.934 154.118 161.229 154.823 161.34C155.201 161.358 155.579 161.3 155.934 161.17C156.29 161.039 156.615 160.839 156.891 160.581C157.167 160.323 157.389 160.012 157.542 159.667C157.695 159.322 157.778 158.95 157.784 158.573C157.624 158.434 157.452 158.309 157.271 158.199C156.859 157.908 156.438 157.622 156.021 157.332L154.768 156.478C154.581 156.378 154.403 156.263 154.236 156.133C154.236 156.621 154.107 157.1 153.861 157.523C153.615 157.945 153.262 158.295 152.837 158.537C152.411 158.779 151.93 158.905 151.44 158.901C150.95 158.898 150.47 158.765 150.049 158.517L150.298 158.674L153.121 160.583C152.562 160.132 151.973 159.719 151.358 159.347C150.737 158.986 150.141 158.586 149.572 158.148V158.134Z" fill="#3D91DA"/>
<path d="M74.1499 212.754L119.388 229.58V165.805L74.1499 158.734V212.754Z" fill="#9564E4"/>
<path d="M169.693 212.754L119.388 229.58V165.805L169.693 158.734V212.754Z" fill="#7144BB"/>
<path d="M142.003 162.627V219.22V222.015L152.084 218.644V161.211L142.003 162.627Z" fill="#F7F7F7"/>
<path d="M100.23 162.811L90.1531 161.234V218.704L100.23 222.454V219.22V162.811Z" fill="#F7F7F7"/>
</g>
<defs>
<clipPath id="clip0_12_826">
<rect width="251" height="236" fill="white"/>
</clipPath>
</defs>
</svg>
