<svg width="206" height="140" viewBox="0 0 206 140" fill="none" xmlns="http://www.w3.org/2000/svg">
<g clip-path="url(#clip0_12_951)">
<path d="M203.052 85.8097C198.473 76.4112 188.309 71.7238 181.155 64.2764C172.939 55.7238 168.971 43.8585 164.012 32.9167C159.053 21.9748 151.985 10.8577 141.013 7.01946C131.276 3.61592 120.694 6.71617 110.497 5.70859C94.566 4.13825 80.5956 -5.17262 65.524 3.9529C46.9304 15.2318 31.4861 31.7608 20.0339 50.6724C15.2361 58.5814 9.38736 68.7044 5.66395 79.2722C1.69879 90.5376 0.151009 102.305 4.87159 112.431C12.4292 128.637 27.4572 131.08 42.6463 127.768C60.1051 123.966 78.1447 122.733 95.8888 125.513C109.433 127.636 122.775 131.862 136.178 134.059C130.37 134.689 126.777 135.549 126.777 136.499C126.777 138.433 141.701 140.003 160.107 140.003C178.512 140.003 193.436 138.433 193.436 136.499C193.436 134.898 183.263 133.55 169.357 133.129C170.901 132.695 172.45 132.189 174.003 131.609C178.15 130.057 182.148 128.132 185.949 125.857C186.845 125.311 187.74 124.749 188.635 124.172C188.682 124.145 188.729 124.111 188.773 124.081C189.035 123.906 189.297 123.727 189.555 123.545C190.347 122.997 191.131 122.427 191.905 121.837C192.402 121.456 192.886 121.065 193.369 120.664C193.641 120.442 193.906 120.216 194.175 119.99C194.645 119.589 195.102 119.174 195.555 118.757C195.813 118.517 196.065 118.271 196.317 118.025C197.134 117.237 197.91 116.419 198.644 115.572C198.959 115.212 199.272 114.844 199.57 114.474C201.696 111.901 203.382 108.993 204.56 105.867C206.712 99.899 206.648 93.1795 203.052 85.8097Z" fill="url(#paint0_linear_12_951)"/>
<path d="M50.7513 135.043C58.6264 135.043 65.0104 134.102 65.0104 132.94C65.0104 131.779 58.6264 130.837 50.7513 130.837C42.8762 130.837 36.4922 131.779 36.4922 132.94C36.4922 134.102 42.8762 135.043 50.7513 135.043Z" fill="url(#paint1_linear_12_951)"/>
<path d="M93.3744 134.464C104.615 134.464 113.727 133.042 113.727 131.289C113.727 129.536 104.615 128.115 93.3744 128.115C82.1338 128.115 73.0215 129.536 73.0215 131.289C73.0215 133.042 82.1338 134.464 93.3744 134.464Z" fill="url(#paint2_linear_12_951)"/>
<path d="M72.8064 11.4373H61.7939V16.6133H72.8064V11.4373Z" fill="#C1BED7"/>
<path d="M79.3767 18.4802H68.3643V23.6563H79.3767V18.4802Z" fill="#C1BED7"/>
<path d="M56.1568 23.835C54.4058 23.835 52.694 24.3561 51.238 25.3326C49.7821 26.309 48.6473 27.6968 47.9772 29.3206C47.3071 30.9444 47.1317 32.7311 47.4733 34.4549C47.815 36.1786 48.6582 37.762 49.8964 39.0048C51.1346 40.2475 52.7121 41.0939 54.4296 41.4368C56.147 41.7796 57.9272 41.6036 59.545 40.9311C61.1627 40.2585 62.5455 39.1195 63.5183 37.6582C64.4912 36.1968 65.0104 34.4788 65.0104 32.7212C65.0078 30.3653 64.0741 28.1066 62.4143 26.4406C60.7545 24.7747 58.5041 23.8376 56.1568 23.835ZM56.8485 25.3649C57.8053 25.7591 58.6413 26.9453 59.1987 28.5696C58.4231 28.7179 57.6375 28.8069 56.8485 28.8358V25.3649ZM55.4686 28.8358C54.6794 28.8073 53.8936 28.7172 53.1183 28.5662C53.6589 26.9453 54.4949 25.7591 55.4686 25.3649V28.8358ZM55.4686 30.2208V32.027H52.5207C52.5539 31.3159 52.6415 30.6084 52.7826 29.9108C53.6684 30.0819 54.5668 30.1799 55.4686 30.204V30.2208ZM55.4686 33.412V35.2216C54.5663 35.2529 53.668 35.3577 52.7826 35.535C52.6415 34.8351 52.5539 34.1254 52.5207 33.412H55.4686ZM55.4686 36.6067V40.0742C54.5117 39.6833 53.6757 38.4971 53.1385 36.8762C53.9069 36.7219 54.6858 36.6262 55.4686 36.5898V36.6067ZM56.8485 36.6067C57.6308 36.6379 58.4097 36.728 59.1785 36.8762C58.6413 38.4971 57.8053 39.6833 56.8485 40.0742V36.6067ZM56.8485 35.2216V33.412H59.7963C59.7614 34.1252 59.6739 34.8348 59.5344 35.535C58.6495 35.3523 57.7512 35.2418 56.8485 35.2048V35.2216ZM56.8485 32.027V30.204C57.7507 30.1746 58.6491 30.0709 59.5344 29.8939C59.6755 30.5916 59.7631 31.2991 59.7963 32.0102L56.8485 32.027ZM51.1408 32.027H48.7167C48.8167 30.9203 49.1608 29.8498 49.724 28.8931C50.2688 29.1687 50.8374 29.3943 51.4228 29.5671C51.2624 30.3722 51.1692 31.1894 51.1442 32.0102L51.1408 32.027ZM51.1408 33.412C51.1718 34.239 51.2718 35.0618 51.4396 35.872C50.8551 36.0442 50.2876 36.2698 49.7441 36.546C49.1725 35.5903 48.8215 34.5183 48.7167 33.4087L51.1408 33.412ZM61.1695 33.412H63.5936C63.4931 34.5197 63.1491 35.5912 62.5864 36.5494C62.0412 36.2743 61.4727 36.0488 60.8875 35.8754C61.0521 35.0582 61.1475 34.2285 61.1729 33.3952L61.1695 33.412ZM61.1695 32.027C61.1382 31.2024 61.0383 30.3818 60.8707 29.5738C61.4561 29.401 62.0247 29.1754 62.5696 28.8998C63.1328 29.8566 63.4768 30.9271 63.5768 32.0338L61.1695 32.027ZM61.747 27.7642C61.3478 27.9492 60.936 28.1057 60.5148 28.2326C60.2686 27.4528 59.9221 26.7085 59.4841 26.0186C60.3425 26.4444 61.1118 27.0312 61.7504 27.7473L61.747 27.7642ZM52.8229 26.0186C52.3891 26.7039 52.045 27.4424 51.7989 28.2158C51.3771 28.0893 50.9652 27.9316 50.5667 27.744C51.2023 27.024 51.9693 26.4326 52.8262 26.0018L52.8229 26.0186ZM50.57 37.6513C50.9672 37.4631 51.378 37.3054 51.7989 37.1795C52.0447 37.9589 52.39 38.7031 52.8262 39.3935C51.9711 38.9613 51.2055 38.3701 50.57 37.6513ZM59.4874 39.3935C59.9255 38.7036 60.272 37.9594 60.5182 37.1795C60.9385 37.3058 61.3491 37.4623 61.747 37.6479C61.1132 38.3744 60.3461 38.9716 59.4874 39.407V39.3935Z" fill="white"/>
<path d="M26.0168 111.663H37.0293V106.487H26.0168V111.663Z" fill="#DFDEEE"/>
<path d="M12.8791 111.663H23.8916V106.487H12.8791V111.663Z" fill="#DFDEEE"/>
<path d="M19.4499 118.706H30.4624V113.53H19.4499V118.706Z" fill="#DFDEEE"/>
<path d="M159.308 106.773L154.225 107.087L157.978 108.172C156.635 109.5 155.571 110.531 153.976 111.899L146.59 111.269L152.234 113.422C150.723 114.74 149.113 115.939 147.419 117.008C144.169 116.125 140.664 115.37 140.664 115.37L145.002 118.5C142.687 119.876 140.174 120.882 137.551 121.483C137.152 121.564 137.535 121.483 137.152 121.564L132.616 120.057L134.546 122.002C124.098 123.42 121.224 119.552 121.224 119.552C121.249 119.356 121.284 119.161 121.328 118.969C121.426 118.57 121.544 118.176 121.684 117.789C122.356 115.865 124.054 112.485 128.208 108.236L128.483 111.815L129.893 107.195C130.276 106.912 130.665 106.625 131.078 106.342C132.394 105.422 132.139 105.395 133.741 104.741L134.076 109.736L136.041 103.771C136.991 103.4 137.981 103.077 138.988 102.787L138.223 107.562L141.342 102.248C142.842 101.839 144.369 101.536 145.911 101.341L145.059 106.302L148.524 101.082C150.315 100.821 152.123 100.699 153.932 100.718L152.69 104.866L155.991 100.549C160.271 100.549 164.599 100.863 164.599 100.863C162.944 102.929 161.178 104.902 159.308 106.773Z" fill="#0797A7"/>
<path d="M148.108 86.0187L144.854 88.664L147.876 87.5924C147.614 89.1189 147.376 90.3119 146.966 92.0035L141.708 95.124L146.513 93.8637C146.127 95.4731 145.619 97.0504 144.992 98.5814C142.397 99.5418 139.69 100.718 139.69 100.718L144.082 100.738C143.186 102.766 141.981 104.642 140.51 106.298C140.281 106.544 140.51 106.315 140.281 106.544L136.528 107.707L138.744 108.088C132.418 114.039 128.671 112.822 128.671 112.822C128.671 112.822 128.591 112.677 128.466 112.381C128.336 112.068 128.224 111.747 128.131 111.421C127.671 109.806 127.201 106.736 127.963 101.901L129.846 104.165L128.597 100.398C128.718 100.024 128.842 99.6463 128.983 99.2588C129.43 98.0119 129.245 98.1164 130.008 96.8999L132.606 100.084L131.085 95.1476C131.549 94.4466 132.056 93.7558 132.596 93.0785L134.349 96.6438L133.916 91.589C134.73 90.5976 135.613 89.6652 136.558 88.7988L138.344 92.5292L138.183 87.3734C139.258 86.3411 140.412 85.3946 141.634 84.5427L142.759 87.9125L142.917 83.4408C145.777 81.3885 148.829 79.5317 148.829 79.5317C148.708 81.7057 148.467 83.8713 148.108 86.0187Z" fill="#0CC3BE"/>
<path d="M2.51137 83.4037L7.05401 85.7121L3.17951 85.2133C3.87786 86.9656 4.46541 88.3237 5.382 90.2276L12.4327 92.5865L6.38924 92.3203C7.26051 94.1318 8.2708 95.8725 9.41095 97.5267C12.7415 98.0086 16.2568 98.7095 16.2568 98.7095L11.0393 99.8586C12.6205 102.041 14.5302 103.964 16.7 105.557C17.0357 105.79 16.7 105.577 17.0357 105.79L21.7966 106.214L19.2584 107.225C28.2899 112.681 32.4532 110.258 32.4532 110.258C32.5104 110.069 32.5552 109.877 32.5875 109.682C32.658 109.277 32.7051 108.869 32.7285 108.458C32.8661 106.42 32.6479 102.646 30.5126 97.092L28.8338 100.27L29.3609 95.4677C29.1259 95.0566 28.8808 94.6354 28.6122 94.2108C27.7662 92.8426 28.0146 92.9201 26.7992 91.6834L24.5195 96.135L25.0735 89.8772C24.3449 89.1594 23.566 88.4686 22.7501 87.8014L21.5716 92.4922L20.8028 86.3692C19.5825 85.3989 18.2957 84.516 16.9518 83.7272L15.7733 88.6202L14.6553 82.4703C13.1135 81.5184 11.5004 80.6881 9.83063 79.9867L9.35051 84.29L8.02767 79.0128C4.09945 77.3043 0 75.8755 0 75.8755C0.699232 78.4291 1.53762 80.9423 2.51137 83.4037Z" fill="#0797A7"/>
<path d="M8.31975 51.9226C9.68821 53.8296 10.2879 56.1853 9.99847 58.5174C10.1261 58.9083 10.2671 59.3531 10.4282 59.8653C11.3052 57.7999 12.7201 56.0096 14.5243 54.6825C13.9564 56.9822 12.539 58.9794 10.5592 60.2697C10.8244 61.0953 11.1299 62.0389 11.4858 63.0903C11.6492 63.5755 11.8216 64.0821 12.0029 64.6101C12.0868 64.8594 12.1808 65.1155 12.2715 65.3716C13.7925 62.4742 16.1507 60.1061 19.0367 58.578C18.4505 60.1393 17.5524 61.5637 16.3977 62.7638C15.2429 63.964 13.8559 64.9145 12.3218 65.557C12.4058 65.7828 12.4863 66.0085 12.5703 66.2309C12.9631 67.3632 13.4298 68.5427 13.9133 69.7929C14.1315 70.3523 14.3632 70.9251 14.5848 71.5014C16.0385 67.8788 18.7111 64.8493 21.9309 62.6657C21.4451 64.6298 20.5639 66.4733 19.3415 68.0827C18.1191 69.6921 16.5814 71.0333 14.8231 72.0237C15.3771 73.3716 15.968 74.76 16.5992 76.1686L16.6529 76.2057H16.616C16.8309 76.6909 17.0525 77.1762 17.2875 77.6614C17.311 77.712 17.3345 77.7592 17.3547 77.8063C18.1023 75.7021 19.2614 73.7691 20.7639 72.121C22.2665 70.4729 24.0822 69.1428 26.1042 68.209C24.4691 72.4281 21.3735 75.9091 17.63 78.386C18.7782 80.8122 19.9298 83.0431 21.0109 85.038L21.2795 85.5199C22.1726 80.1585 25.5032 75.0734 30.0324 72.2158C28.8002 77.6075 25.6341 82.3253 21.5078 85.9243C21.9275 86.6791 22.3338 87.407 22.7367 88.0675C23.0086 88.5325 23.2739 88.9908 23.529 89.4154C23.7842 89.84 24.0393 90.2377 24.2777 90.6218L24.2979 90.6522C25.7617 85.6884 29.4684 81.2503 34.0546 79.0498C32.3188 83.9934 28.8439 88.1282 24.5866 91.1071C26.3224 93.8636 27.4371 95.4272 27.4035 95.5991C27.38 95.7137 26.4903 94.7566 25.0533 92.792C21.2023 94.669 16.7906 95.0835 12.5871 94.3556C14.3872 93.2173 16.4006 92.4613 18.5032 92.1344C20.6057 91.8075 22.7527 91.9166 24.8116 92.455C24.5866 92.1416 24.3482 91.8013 24.0964 91.4441L24.0662 91.4643C24.0662 91.4475 24.0662 91.434 24.0662 91.4171L24.0259 91.3565L23.2403 90.1939C22.9683 89.7794 22.693 89.3312 22.4076 88.8763C22.3035 88.7145 22.1995 88.5393 22.092 88.3742C16.9283 89.9614 11.3482 89.648 6.23477 87.9664C8.66038 86.8892 11.2758 86.3087 13.9278 86.2589C16.5798 86.2091 19.215 86.6911 21.6791 87.6766C21.3433 87.0936 20.9807 86.4871 20.6147 85.8603C20.1514 85.0403 19.6814 84.1776 19.2046 83.2722C13.7756 83.9125 8.28617 82.5545 3.52194 79.9024C6.12618 79.2965 8.82529 79.223 11.4584 79.6861C14.0916 80.1493 16.6049 81.1397 18.8487 82.5983C18.1571 81.2503 17.4554 79.8518 16.7604 78.359C16.4515 77.685 16.1504 77.0111 15.8572 76.3371C11.4556 77.0111 6.92976 76.145 2.92432 74.2175C7.12105 72.9816 11.633 73.4437 15.4946 75.5047C14.8231 73.9277 14.1919 72.3775 13.6212 70.8914C11.6327 70.7693 9.68939 70.2442 7.90864 69.3476C6.12789 68.451 4.54656 67.2017 3.26006 65.6749C6.95326 66.0456 10.4081 67.653 13.2787 69.9816C12.8422 68.7819 12.4192 67.6429 12.0633 66.5477C11.8719 65.9614 11.6772 65.402 11.5026 64.8628L11.2978 64.1888C10.0274 64.3242 8.74348 64.1361 7.5646 63.6419C6.38572 63.1478 5.34987 62.3635 4.55268 61.3615C6.9478 61.2808 9.28844 62.0895 11.1266 63.6328C11.0896 63.5182 11.0561 63.4003 11.0225 63.2958C10.6868 62.2478 10.4349 61.3009 10.21 60.4753C10.2114 60.4686 10.2114 60.4617 10.21 60.455C10.1764 60.3247 10.1428 60.1967 10.1093 60.0709C7.84722 59.4644 5.89861 58.0193 4.65676 56.0271C6.69041 56.6747 8.51559 57.8541 9.94475 59.4441C9.87089 59.1644 9.8071 58.9083 9.75002 58.669C8.64809 56.6009 8.1522 54.2619 8.31975 51.9226Z" fill="#0CC3BE"/>
<path d="M26.2954 28.9334C28.0192 30.5276 30.2803 31.4076 32.6242 31.3968L33.8933 31.9764C31.7476 32.6121 29.8112 33.8142 28.2864 35.4574C30.6294 35.1603 32.772 33.9796 34.2794 32.155C35.0617 32.5156 35.9582 32.9334 36.9654 33.4086L38.4091 34.0994C38.6441 34.2173 38.8859 34.3353 39.1276 34.46C36.0832 35.6377 33.465 37.7123 31.617 40.4111C33.2284 40.0108 34.7413 39.2842 36.0628 38.2759C37.3844 37.2676 38.4867 35.9988 39.3022 34.5476L39.9535 34.8846C41.0279 35.4069 42.1392 36.0101 43.311 36.6268C43.8381 36.9098 44.3753 37.2064 44.9226 37.5097C41.1656 38.5206 37.8551 40.8458 35.3203 43.8045C37.3233 43.5464 39.2523 42.8789 40.9882 41.8432C42.724 40.8074 44.2299 39.4254 45.4128 37.7826C46.6819 38.4903 47.9879 39.2418 49.3074 40.0337L49.3343 40.0943C49.3343 40.0943 49.3343 40.0674 49.3343 40.0573C49.7819 40.3269 50.2363 40.6021 50.6974 40.8829L50.8283 40.9671C48.6593 41.4659 46.6116 42.3956 44.8062 43.7013C43.0008 45.0069 41.4741 46.6622 40.3161 48.5695C44.6808 47.4305 48.4848 44.7515 51.3722 41.3075C53.6385 42.7363 55.7134 44.1415 57.56 45.4524L58.0066 45.7894C52.5977 46.0556 47.1654 48.7818 43.8213 52.9638C49.2873 52.3639 54.3402 49.759 58.3793 46.0623C59.081 46.5712 59.7525 47.0733 60.3568 47.5383C60.7865 47.8753 61.2062 48.1819 61.5991 48.4886L62.7037 49.3749L62.7339 49.3985C57.6507 50.278 52.8294 53.4423 50.1132 57.7725C55.2098 56.6167 59.7054 53.6343 63.1502 49.7354C65.675 51.791 67.0918 53.0817 67.2698 53.0682C67.3839 53.0682 66.5379 52.0573 64.7618 50.406C67.0683 46.7868 67.9916 42.4364 67.7633 38.1668C66.4268 39.8281 65.4438 41.7468 64.875 43.8044C64.3062 45.8619 64.1637 48.0147 64.4562 50.1297C64.1709 49.8669 63.8653 49.5905 63.5363 49.2974L63.5598 49.2704H63.5094L63.4557 49.2232L62.3981 48.3033C62.0187 47.9865 61.6091 47.6596 61.1894 47.3193L60.7295 46.9486C62.9017 41.9882 63.2408 36.3875 62.1765 31.1103C60.8288 33.4015 59.9499 35.9394 59.5913 38.5757C59.2327 41.2119 59.4017 43.8934 60.0882 46.4633C59.5544 46.0488 58.9937 45.6276 58.4095 45.1895C57.654 44.6335 56.8516 44.064 56.0156 43.481C57.278 38.1466 56.5763 32.5156 54.5182 27.4574C53.6146 29.9821 53.2256 32.6633 53.3744 35.3418C53.5232 38.0203 54.2067 40.6415 55.3844 43.0497C54.1489 42.2039 52.8294 41.3412 51.436 40.4751C50.8048 40.0887 50.1747 39.709 49.5458 39.3361C50.741 35.0295 50.3952 30.4162 48.9549 26.1937C47.2428 30.2334 47.1753 34.7854 48.7669 38.8745C47.2829 38.0151 45.8224 37.2131 44.419 36.4684C44.5341 34.4721 44.2458 32.4731 43.5713 30.5915C42.8968 28.71 41.8501 26.9848 40.4941 25.5198C40.4867 29.2444 41.5625 32.8903 43.5897 36.0101C42.4515 35.4372 41.3737 34.8812 40.3296 34.3993C39.7756 34.1398 39.2451 33.8803 38.7247 33.6445L38.0834 33.3614C38.365 32.1106 38.328 30.8087 37.976 29.576C37.6239 28.3433 36.968 27.2195 36.069 26.3083C35.7099 28.6862 36.2371 31.1134 37.5496 33.1255L37.2139 32.9806C36.2066 32.5425 35.3068 32.1651 34.5279 31.845H34.5077L34.1418 31.7001C33.8064 29.3759 32.6069 27.2654 30.7843 25.7927C31.1873 27.8949 32.1411 29.8514 33.5475 31.4608L32.8055 31.1777C30.8908 29.8264 28.6333 29.0482 26.2954 28.9334Z" fill="#0CC3BE"/>
<path d="M134.896 52.3135V118.362C134.898 118.688 134.858 119.013 134.778 119.329C134.563 120.187 134.069 120.949 133.373 121.492C132.678 122.036 131.822 122.332 130.941 122.332H25.9498C24.9014 122.331 23.8963 121.912 23.1553 121.168C22.4143 120.424 21.998 119.415 21.998 118.362V52.3135C21.9976 51.7925 22.0995 51.2765 22.298 50.7951C22.4964 50.3137 22.7875 49.8763 23.1545 49.5079C23.5215 49.1395 23.9573 48.8474 24.437 48.6482C24.9166 48.449 25.4307 48.3467 25.9498 48.3472H130.937C131.457 48.3463 131.971 48.4482 132.452 48.6472C132.932 48.8461 133.368 49.1381 133.736 49.5065C134.104 49.8749 134.395 50.3124 134.594 50.7941C134.793 51.2757 134.896 51.792 134.896 52.3135Z" fill="#FD7658"/>
<path d="M134.896 52.3135V107.99C127.899 107.144 120.976 104.829 115.621 100.276C109.695 95.2419 106.022 87.134 107.61 79.5148C103.581 90.2478 90.5874 95.8451 79.4071 93.5199C68.2268 91.1947 59.1784 82.3994 54.065 72.1382C51.3589 66.7162 47.3031 56.9335 46.729 48.3472H130.937C131.457 48.3463 131.971 48.4482 132.452 48.6472C132.932 48.8461 133.368 49.1381 133.736 49.5065C134.104 49.8749 134.395 50.3124 134.594 50.7941C134.793 51.2757 134.896 51.792 134.896 52.3135Z" fill="#F88859"/>
<path d="M134.775 119.34C134.56 120.197 134.065 120.959 133.37 121.502C132.675 122.046 131.819 122.342 130.937 122.342H25.9498C24.9014 122.341 23.8963 121.923 23.1553 121.178C22.4143 120.434 21.998 119.425 21.998 118.372V110.103C22.6911 111.137 23.5137 112.077 24.4456 112.9C28.5887 116.549 34.3199 117.914 39.8362 117.887C45.3525 117.86 50.7647 116.576 56.1736 115.528C73.5248 112.174 91.248 111.189 108.862 112.6C117.753 113.324 127.19 114.999 134.775 119.34Z" fill="#DE624C"/>
<path d="M46.3024 57.9917H33.1681C32.139 57.9917 31.3047 58.829 31.3047 59.862V73.0448C31.3047 74.0777 32.139 74.915 33.1681 74.915H46.3024C47.3316 74.915 48.1658 74.0777 48.1658 73.0448V59.862C48.1658 58.829 47.3316 57.9917 46.3024 57.9917Z" fill="#FDA859"/>
<path d="M45.9502 58.7129H33.5242C32.6954 58.7129 32.0234 59.3873 32.0234 60.2192V72.691C32.0234 73.5229 32.6954 74.1973 33.5242 74.1973H45.9502C46.779 74.1973 47.4509 73.5229 47.4509 72.691V60.2192C47.4509 59.3873 46.779 58.7129 45.9502 58.7129Z" fill="#FCC700"/>
<path d="M42.4984 71.8553H36.9754C36.5423 71.8553 36.127 71.6828 35.8204 71.3758C35.5139 71.0688 35.3412 70.6522 35.3403 70.2175V62.6927C35.3412 62.258 35.5139 61.8414 35.8204 61.5344C36.127 61.2274 36.5423 61.0549 36.9754 61.0549H42.4984C42.9315 61.0549 43.3469 61.2274 43.6534 61.5344C43.96 61.8414 44.1326 62.258 44.1335 62.6927V70.2175C44.1326 70.6522 43.96 71.0688 43.6534 71.3758C43.3469 71.6828 42.9315 71.8553 42.4984 71.8553ZM36.9754 62.4939C36.9493 62.4934 36.9233 62.4982 36.8991 62.5081C36.8748 62.5179 36.8528 62.5325 36.8343 62.5511C36.8158 62.5696 36.8013 62.5917 36.7915 62.6161C36.7817 62.6404 36.7769 62.6664 36.7773 62.6927V70.2175C36.7769 70.2438 36.7817 70.2698 36.7915 70.2941C36.8013 70.3185 36.8158 70.3406 36.8343 70.3591C36.8528 70.3777 36.8748 70.3923 36.8991 70.4021C36.9233 70.412 36.9493 70.4168 36.9754 70.4163H42.4984C42.5246 70.4168 42.5505 70.412 42.5748 70.4021C42.599 70.3923 42.621 70.3777 42.6395 70.3591C42.658 70.3406 42.6726 70.3185 42.6824 70.2941C42.6922 70.2698 42.697 70.2438 42.6965 70.2175V62.6927C42.697 62.6664 42.6922 62.6404 42.6824 62.6161C42.6726 62.5917 42.658 62.5696 42.6395 62.5511C42.621 62.5325 42.599 62.5179 42.5748 62.5081C42.5505 62.4982 42.5246 62.4934 42.4984 62.4939H36.9754Z" fill="#FDA859"/>
<path d="M36.0591 63.033H32.0234V64.4719H36.0591V63.033Z" fill="#FDA859"/>
<path d="M36.0591 65.7322H32.0234V67.1711H36.0591V65.7322Z" fill="#FDA859"/>
<path d="M36.0591 68.4348H32.0234V69.8737H36.0591V68.4348Z" fill="#FDA859"/>
<path d="M47.4507 63.033H43.415V64.4719H47.4507V63.033Z" fill="#FDA859"/>
<path d="M47.4507 65.7322H43.415V67.1711H47.4507V65.7322Z" fill="#FDA859"/>
<path d="M47.4507 68.4348H43.415V69.8737H47.4507V68.4348Z" fill="#FDA859"/>
<path d="M33.4333 82.8071V87.5249H32.2078V83.8181H31.3047V82.8071H33.4333Z" fill="white"/>
<path d="M38.6374 86.0354C38.6374 86.9419 37.8954 87.5721 36.7304 87.5721C36.0701 87.5773 35.4247 87.3759 34.8838 86.9958L35.3773 86.0489C35.5364 86.2275 35.7301 86.3717 35.9466 86.4725C36.1631 86.5733 36.3978 86.6287 36.6364 86.6353C37.1501 86.6353 37.4388 86.4196 37.4388 86.0489C37.4388 85.6782 37.1501 85.4794 36.6297 85.4794H35.8507V84.8054L36.9486 83.7541H35.1423V82.8071H38.4192V83.5182L37.1534 84.701L37.3885 84.7347C38.1137 84.8594 38.6374 85.3177 38.6374 86.0354Z" fill="white"/>
<path d="M42.8444 85.1659C42.8444 86.7026 42.173 87.5551 41.0113 87.5551C39.8496 87.5551 39.1714 86.7026 39.1714 85.1659C39.1714 83.6293 39.8194 82.7834 41.0113 82.7834C42.2032 82.7834 42.8444 83.6259 42.8444 85.1659ZM40.3431 85.1659C40.3431 86.2409 40.5345 86.6891 41.0146 86.6891C41.4947 86.6891 41.6861 86.2409 41.6861 85.1659C41.6861 84.0909 41.4914 83.6428 41.0146 83.6428C40.5379 83.6428 40.3431 84.0808 40.3431 85.1659Z" fill="white"/>
<path d="M47.0581 82.8071V83.6597L45.2921 87.5249H43.9994L45.7117 83.8181H44.4023V84.4752H43.3179V82.8071H47.0581Z" fill="white"/>
<path d="M56.5666 86.6421C57.2951 86.6421 57.651 86.1703 57.6376 85.3986C57.5127 85.5683 57.3473 85.7038 57.1567 85.7927C56.966 85.8816 56.7562 85.9211 56.5464 85.9074C56.3451 85.9187 56.1437 85.8866 55.9559 85.8131C55.768 85.7396 55.598 85.6266 55.4574 85.4816C55.3167 85.3366 55.2087 85.163 55.1406 84.9726C55.0724 84.7821 55.0458 84.5792 55.0624 84.3775C55.0624 83.3666 55.7339 82.76 56.7814 82.76C58.017 82.76 58.7691 83.6463 58.7691 85.0886C58.7691 86.5949 57.9364 87.5722 56.6404 87.5722C56.119 87.5703 55.6064 87.4371 55.1497 87.1846L55.603 86.3388C55.8844 86.539 56.2216 86.6451 56.5666 86.6421ZM56.157 84.3843C56.149 84.4717 56.1605 84.5598 56.1906 84.6422C56.2206 84.7246 56.2685 84.7993 56.3309 84.8608C56.3932 84.9224 56.4683 84.9693 56.5509 84.9982C56.6334 85.0271 56.7214 85.0373 56.8083 85.0279C56.9 85.0381 56.9928 85.0278 57.0802 84.9979C57.1675 84.968 57.2471 84.9191 57.3135 84.8548C57.3799 84.7904 57.4313 84.7122 57.4641 84.6256C57.4969 84.539 57.5103 84.4463 57.5033 84.3539C57.5006 84.1752 57.4273 84.0048 57.2995 83.8803C57.1717 83.7558 56.9998 83.6874 56.8217 83.6901C56.6436 83.6928 56.4739 83.7663 56.3499 83.8946C56.2258 84.0229 56.1576 84.1954 56.1603 84.3742L56.157 84.3843Z" fill="white"/>
<path d="M61.757 82.8071V87.5249H60.5316V83.8181H59.6284V82.8071H61.757Z" fill="white"/>
<path d="M65.8835 82.8071V87.5249H64.658V83.8181H63.7549V82.8071H65.8835Z" fill="white"/>
<path d="M71.1042 86.0354C71.1042 86.9419 70.3622 87.5721 69.1972 87.5721C68.5369 87.5773 67.8915 87.3759 67.3506 86.9958L67.8441 86.0489C68.0032 86.2275 68.1969 86.3717 68.4134 86.4725C68.6299 86.5733 68.8646 86.6287 69.1032 86.6353C69.6169 86.6353 69.9056 86.4196 69.9056 86.0489C69.9056 85.6782 69.6169 85.4794 69.0965 85.4794H68.3075V84.8054L69.4053 83.7541H67.599V82.8071H70.8759V83.5182L69.6101 84.701L69.8452 84.7347C70.5637 84.8594 71.1042 85.3177 71.1042 86.0354Z" fill="white"/>
<path d="M82.9827 85.1659C82.9827 86.7026 82.328 87.5551 81.1495 87.5551C79.971 87.5551 79.313 86.7026 79.313 85.1659C79.313 83.6293 79.961 82.7834 81.1495 82.7834C82.3381 82.7834 82.9827 83.6259 82.9827 85.1659ZM80.4814 85.1659C80.4814 86.2409 80.6761 86.6891 81.1529 86.6891C81.6296 86.6891 81.8244 86.2409 81.8244 85.1659C81.8244 84.0909 81.6296 83.6428 81.1529 83.6428C80.6761 83.6428 80.4814 84.0808 80.4814 85.1659Z" fill="white"/>
<path d="M85.2792 84.5124C86.3805 84.5124 87.099 85.0953 87.099 85.9344C87.099 86.9454 86.3402 87.5722 85.1852 87.5722C84.5215 87.56 83.8755 87.3552 83.3252 86.9825L83.812 86.0288C83.9647 86.2066 84.1524 86.3508 84.3633 86.4523C84.5742 86.5538 84.8038 86.6104 85.0375 86.6185C85.5109 86.6185 85.7795 86.4062 85.7795 86.0221C85.7795 85.6379 85.5109 85.466 85.0442 85.466C84.7958 85.466 84.037 85.466 83.7314 85.493V82.7971H86.8841V83.8182H84.8696V84.536C84.9569 84.5124 85.1852 84.5124 85.2792 84.5124Z" fill="white"/>
<path d="M89.0163 86.6421C89.7448 86.6421 90.1007 86.1703 90.0873 85.3986C89.9624 85.5683 89.797 85.7038 89.6064 85.7927C89.4157 85.8816 89.2059 85.9211 88.9961 85.9074C88.7948 85.9187 88.5934 85.8866 88.4056 85.8131C88.2177 85.7396 88.0477 85.6266 87.9071 85.4816C87.7664 85.3366 87.6584 85.163 87.5903 84.9726C87.5221 84.7821 87.4955 84.5792 87.5121 84.3775C87.5121 83.3666 88.1836 82.76 89.2311 82.76C90.4667 82.76 91.2188 83.6463 91.2188 85.0886C91.2188 86.5949 90.3895 87.5722 89.0901 87.5722C88.5687 87.5703 88.0561 87.4371 87.5994 87.1846L88.0527 86.3388C88.3342 86.539 88.6713 86.6451 89.0163 86.6421ZM88.6067 84.3843C88.5987 84.4717 88.6102 84.5598 88.6403 84.6422C88.6703 84.7246 88.7183 84.7993 88.7806 84.8608C88.8429 84.9224 88.918 84.9693 89.0006 84.9982C89.0831 85.0271 89.1711 85.0373 89.258 85.0279C89.3497 85.0381 89.4425 85.0278 89.5299 84.9979C89.6172 84.968 89.6969 84.9191 89.7632 84.8548C89.8296 84.7904 89.881 84.7122 89.9138 84.6256C89.9466 84.539 89.96 84.4463 89.953 84.3539C89.9503 84.1752 89.877 84.0048 89.7492 83.8803C89.6214 83.7558 89.4495 83.6874 89.2714 83.6901C89.0933 83.6928 88.9236 83.7663 88.7996 83.8946C88.6755 84.0229 88.6074 84.1954 88.61 84.3742L88.6067 84.3843Z" fill="white"/>
<path d="M93.935 84.1752C93.935 83.9225 93.7403 83.7742 93.4012 83.7742C92.9142 83.8229 92.4571 84.0327 92.1019 84.3707L91.6318 83.4811C92.1854 83.0402 92.8661 82.7908 93.5724 82.77C94.5226 82.77 95.2109 83.2654 95.2109 84.0101C95.2109 84.5223 94.8214 85.0514 94.301 85.5838L93.3374 86.551H95.3519V87.5249H91.7728V86.7094L93.4784 84.9503C93.7112 84.7492 93.8717 84.4769 93.935 84.1752Z" fill="white"/>
<path d="M105.743 84.1752C105.743 83.9225 105.548 83.7742 105.209 83.7742C104.722 83.8229 104.265 84.0327 103.91 84.3707L103.45 83.4811C104.002 83.0409 104.682 82.7915 105.387 82.77C106.337 82.77 107.029 83.2654 107.029 84.0101C107.029 84.5223 106.639 85.0514 106.119 85.5838L105.155 86.551H107.17V87.5249H103.587V86.7094L105.293 84.9503C105.524 84.7489 105.682 84.4763 105.743 84.1752Z" fill="white"/>
<path d="M111.394 82.8071V83.6597L109.628 87.5249H108.338L110.051 83.8181H108.738V84.4752H107.653V82.8071H111.394Z" fill="white"/>
<path d="M114.278 82.8071V87.5249H113.052V83.8181H112.149V82.8071H114.278Z" fill="white"/>
<path d="M118.404 82.8071V87.5249H117.179V83.8181H116.275V82.8071H118.404Z" fill="white"/>
<path d="M32.6745 96.0811V99.1139H31.8855V96.7348H31.3047V96.0878L32.6745 96.0811Z" fill="white"/>
<path d="M35.3303 96.0811V99.1139H34.5413V96.7348H33.9604V96.0878L35.3303 96.0811Z" fill="white"/>
<path d="M38.0971 95.6125L36.7037 99.5856H36.0591L37.4524 95.6125H38.0971Z" fill="white"/>
<path d="M39.3359 96.9605C39.3359 96.7954 39.2083 96.7011 39.0001 96.7011C38.6872 96.7343 38.3936 96.8691 38.1641 97.0852L37.8687 96.5022C38.2256 96.2197 38.6633 96.0592 39.1176 96.0439C39.7287 96.0439 40.1719 96.3809 40.1719 96.8426C40.1074 97.2409 39.898 97.6011 39.5843 97.8535L38.9665 98.477H40.2558V99.1105H37.9593V98.5882L39.0538 97.4559C39.1983 97.3254 39.2972 97.1517 39.3359 96.9605Z" fill="white"/>
<path d="M42.8647 98.1533C42.8647 98.7363 42.3879 99.1407 41.6392 99.1407C41.2143 99.1443 40.7988 99.0147 40.4507 98.77L40.7864 98.1634C40.8888 98.2778 41.0134 98.37 41.1525 98.4343C41.2917 98.4986 41.4424 98.5337 41.5956 98.5375C41.9313 98.5375 42.1093 98.3993 42.1093 98.1634C42.1093 97.9275 41.9246 97.7961 41.5889 97.7961H41.0819V97.3715L41.7869 96.6975H40.6253V96.0842H42.7338V96.5425L41.8944 97.2974L42.0455 97.321C42.2623 97.3278 42.4682 97.418 42.6207 97.5729C42.7731 97.7278 42.8605 97.9356 42.8647 98.1533Z" fill="white"/>
<path d="M31.6606 93.2537L31.9728 94.1669L32.2884 93.2537H32.6242L32.1306 94.514H31.7949L31.3047 93.2537H31.6606Z" fill="white"/>
<path d="M33.5006 94.295H32.9567L32.8694 94.5174H32.5337L33.0742 93.2571H33.41L33.9371 94.5174H33.6014L33.5006 94.295ZM33.4033 94.0422L33.232 93.5941L33.0575 94.0422H33.4033Z" fill="white"/>
<path d="M34.3603 93.2537V94.2343H34.8941V94.514H34.0312V93.2537H34.3603Z" fill="white"/>
<path d="M35.3709 93.2537V94.514H35.0352V93.2537H35.3709Z" fill="white"/>
<path d="M36.8278 93.8871C36.8285 93.9738 36.8112 94.0598 36.7772 94.1395C36.7431 94.2191 36.6929 94.2909 36.6298 94.3501C36.5667 94.4093 36.492 94.4548 36.4105 94.4835C36.329 94.5123 36.2424 94.5238 36.1563 94.5173H35.6157V93.2536H36.1563C36.2429 93.246 36.3302 93.2568 36.4124 93.2854C36.4947 93.314 36.5699 93.3597 36.6333 93.4195C36.6967 93.4793 36.7468 93.5519 36.7803 93.6325C36.8138 93.713 36.83 93.7998 36.8278 93.8871ZM36.492 93.8871C36.4962 93.8404 36.4907 93.7933 36.4757 93.7488C36.4607 93.7044 36.4366 93.6635 36.405 93.629C36.3734 93.5944 36.335 93.5668 36.2921 93.548C36.2493 93.5292 36.203 93.5196 36.1563 93.5198H35.9515V94.2645H36.1731C36.219 94.2625 36.2641 94.251 36.3054 94.2308C36.3467 94.2106 36.3835 94.1821 36.4134 94.147C36.4433 94.1119 36.4657 94.0711 36.4793 94.0269C36.4928 93.9828 36.4971 93.9364 36.492 93.8905V93.8871Z" fill="white"/>
<path d="M38.3423 93.2537V93.5165H37.7313V93.7962H38.2953V94.0591H37.7313V94.514H37.3955V93.2537H38.3423Z" fill="white"/>
<path d="M39.2451 94.5174L39.0638 94.1804H38.8187V94.5174H38.4829V93.2537H39.0503C39.3861 93.2537 39.5741 93.4154 39.5741 93.6951C39.5799 93.7776 39.5617 93.8601 39.5218 93.9324C39.4818 94.0048 39.4219 94.064 39.3491 94.1029L39.611 94.514L39.2451 94.5174ZM38.8187 93.9074H39.057C39.0846 93.9116 39.1128 93.9094 39.1394 93.9011C39.166 93.8928 39.1904 93.8785 39.2108 93.8594C39.2311 93.8403 39.2469 93.8168 39.2569 93.7907C39.2669 93.7645 39.2709 93.7365 39.2686 93.7086C39.2686 93.5839 39.1913 93.5199 39.057 93.5199H38.8187V93.9074Z" fill="white"/>
<path d="M41.0682 93.8873C41.0749 94.0218 41.0413 94.1553 40.9717 94.2704C40.9021 94.3856 40.7998 94.4772 40.6778 94.5334C40.5559 94.5897 40.4199 94.6079 40.2875 94.5858C40.1551 94.5638 40.0324 94.5024 39.9351 94.4096C39.8378 94.3168 39.7704 94.1969 39.7417 94.0653C39.7129 93.9338 39.7241 93.7966 39.7738 93.6715C39.8235 93.5463 39.9094 93.439 40.0204 93.3634C40.1314 93.2877 40.2625 93.2472 40.3967 93.247C40.4829 93.2439 40.5689 93.258 40.6496 93.2887C40.7303 93.3193 40.8041 93.3658 40.8666 93.4254C40.9291 93.4851 40.9792 93.5566 41.0138 93.636C41.0484 93.7153 41.0669 93.8007 41.0682 93.8873ZM40.061 93.8873C40.0582 93.98 40.0919 94.0701 40.1547 94.1382C40.2175 94.2062 40.3044 94.2468 40.3967 94.2512C40.4693 94.2566 40.5419 94.24 40.605 94.2034C40.668 94.1669 40.7186 94.1121 40.7503 94.0462C40.7819 93.9804 40.793 93.9065 40.7822 93.8343C40.7714 93.762 40.7391 93.6946 40.6897 93.641C40.6402 93.5874 40.5758 93.55 40.5048 93.5336C40.4338 93.5172 40.3596 93.5227 40.2918 93.5492C40.2239 93.5758 40.1656 93.6223 40.1245 93.6826C40.0833 93.7429 40.0612 93.8142 40.061 93.8873Z" fill="white"/>
<path d="M41.592 93.2537L41.9277 93.9883L42.2635 93.2537H42.6227V94.514H42.334V93.7153L42.0419 94.3893H41.827L41.5349 93.7153V94.514H41.2227V93.2537H41.592Z" fill="white"/>
<path d="M84.3726 107.134H31.3047V110.453H84.3726V107.134Z" fill="white"/>
<path d="M101.214 124.667H78.6382V127.056C78.6382 129.985 83.9765 132.361 90.5672 132.361C97.1579 132.361 102.493 129.985 102.493 127.056V124.667H101.214Z" fill="#FDA859"/>
<path d="M102.496 124.667C102.498 124.698 102.498 124.728 102.496 124.758C102.386 127.646 97.0809 129.985 90.5775 129.985C83.9868 129.985 78.6484 127.626 78.6484 124.684C78.6482 124.359 78.7145 124.036 78.8432 123.737C79.8504 121.26 84.7187 119.38 90.5943 119.38C96.4698 119.38 101.338 121.26 102.329 123.737C102.443 124.008 102.508 124.296 102.52 124.59C102.513 124.616 102.505 124.642 102.496 124.667Z" fill="#FCC700"/>
<path d="M90.5674 128.981C95.9244 128.981 100.267 127.05 100.267 124.667C100.267 122.285 95.9244 120.354 90.5674 120.354C85.2104 120.354 80.8677 122.285 80.8677 124.667C80.8677 127.05 85.2104 128.981 90.5674 128.981Z" fill="#FDA859"/>
<path d="M91.6651 126.278V127.185H89.9058V126.278C88.7628 126.224 87.6328 126.011 86.5483 125.645L87.4918 124.799C88.5787 125.186 89.7198 125.399 90.8727 125.429C91.5912 125.429 92.0445 125.308 92.0445 125.092C92.0445 124.388 87.1325 124.816 87.1325 123.346C87.1325 122.689 88.1968 122.234 89.9024 122.11V121.223H91.6718V122.086C92.6566 122.127 93.6339 122.276 94.5861 122.531L93.6695 123.39C92.6809 123.135 91.6679 122.985 90.6478 122.945C90.0602 122.945 89.6741 123.04 89.6741 123.228C89.6741 123.902 94.5861 123.525 94.5861 125.018C94.6062 125.746 93.3405 126.17 91.6651 126.278Z" fill="#FCC700"/>
<path d="M105.401 121.965H82.8218V124.35C82.8218 127.282 88.1635 129.655 94.7542 129.655C101.345 129.655 106.693 127.289 106.693 124.35V121.965H105.401Z" fill="#FDA859"/>
<path d="M106.693 121.961C106.695 121.993 106.695 122.024 106.693 122.056C106.586 124.94 101.284 127.265 94.7674 127.265C88.1801 127.265 82.8384 124.89 82.8384 121.961C82.8398 121.636 82.906 121.314 83.0331 121.014C84.0403 118.538 88.9087 116.657 94.7674 116.657C100.626 116.657 105.511 118.538 106.502 121.014C106.618 121.284 106.683 121.573 106.693 121.867C106.695 121.898 106.695 121.93 106.693 121.961Z" fill="#FCC700"/>
<path d="M94.751 126.275C100.108 126.275 104.451 124.344 104.451 121.961C104.451 119.579 100.108 117.648 94.751 117.648C89.394 117.648 85.0513 119.579 85.0513 121.961C85.0513 124.344 89.394 126.275 94.751 126.275Z" fill="#FDA859"/>
<path d="M95.8485 123.582V124.489H94.0791V123.579C92.9366 123.521 91.8071 123.308 90.7217 122.945L91.6651 122.099C92.7527 122.484 93.8934 122.695 95.0461 122.726C95.7679 122.726 96.2178 122.608 96.2178 122.389C96.2178 121.685 91.3059 122.109 91.3059 120.644C91.3059 119.97 92.3736 119.528 94.0758 119.404V118.527H95.8452V119.393C96.8309 119.433 97.8093 119.581 98.7628 119.835L97.8428 120.694C96.8543 120.438 95.8413 120.289 94.8211 120.249C94.2369 120.249 93.8508 120.344 93.8508 120.536C93.8508 121.21 98.7628 120.829 98.7628 122.322C98.7796 123.04 97.5272 123.468 95.8485 123.582Z" fill="#FCC700"/>
<path d="M99.4779 116.455H76.9023V118.844C76.9023 121.773 82.2407 124.148 88.8314 124.148C95.4221 124.148 100.757 121.773 100.757 118.844V116.455H99.4779Z" fill="#FDA859"/>
<path d="M100.761 116.452C100.764 116.483 100.764 116.515 100.761 116.546C100.653 119.434 95.3517 121.756 88.8382 121.756C82.2475 121.756 76.9092 119.397 76.9092 116.452C76.9096 116.126 76.9758 115.804 77.1039 115.505C78.1111 113.028 82.9761 111.151 88.8382 111.151C94.7003 111.151 99.5821 113.028 100.573 115.505C100.687 115.776 100.751 116.066 100.761 116.361C100.764 116.391 100.764 116.421 100.761 116.452Z" fill="#FCC700"/>
<path d="M88.8315 120.765C94.1885 120.765 98.5312 118.834 98.5312 116.452C98.5312 114.069 94.1885 112.138 88.8315 112.138C83.4745 112.138 79.1318 114.069 79.1318 116.452C79.1318 118.834 83.4745 120.765 88.8315 120.765Z" fill="#FDA859"/>
<path d="M89.9295 118.059V118.965H88.1568V118.052C87.0141 117.996 85.8844 117.783 84.7993 117.419L85.7461 116.573C86.8331 116.96 87.9742 117.171 89.1271 117.2C89.8456 117.2 90.2988 117.082 90.2988 116.863C90.2988 116.158 85.3869 116.583 85.3869 115.117C85.3869 114.46 86.4512 114.005 88.1534 113.88V113.011H89.9261V113.874C90.9109 113.914 91.8882 114.063 92.8404 114.318L91.9205 115.174C90.9315 114.921 89.9187 114.773 88.8988 114.733C88.3146 114.733 87.9285 114.827 87.9285 115.016C87.9285 115.69 92.8404 115.313 92.8404 116.802C92.8572 117.533 91.6049 117.958 89.9295 118.059Z" fill="#FCC700"/>
<path d="M107.627 111.272H85.0513V113.661C85.0513 116.59 90.393 118.966 96.9803 118.966C103.568 118.966 108.906 116.59 108.906 113.661V111.272H107.627Z" fill="#FDA859"/>
<path d="M108.909 111.269C108.911 111.3 108.911 111.332 108.909 111.363C108.801 114.251 103.5 116.573 96.9832 116.573C90.3926 116.573 85.0542 114.214 85.0542 111.269C85.0546 110.943 85.1209 110.621 85.2489 110.322C86.2562 107.845 91.1245 105.968 96.9832 105.968C102.842 105.968 107.727 107.845 108.718 110.322C108.832 110.593 108.897 110.883 108.909 111.178C108.911 111.208 108.911 111.238 108.909 111.269Z" fill="#FCC700"/>
<path d="M96.98 115.582C102.337 115.582 106.68 113.651 106.68 111.269C106.68 108.886 102.337 106.955 96.98 106.955C91.623 106.955 87.2803 108.886 87.2803 111.269C87.2803 113.651 91.623 115.582 96.98 115.582Z" fill="#FDA859"/>
<path d="M98.078 112.876V113.783H96.3086V112.869C95.1658 112.814 94.0361 112.601 92.9512 112.236L93.8946 111.39C94.9871 111.778 96.1339 111.99 97.2924 112.017C98.0109 112.017 98.4641 111.899 98.4641 111.68C98.4641 110.976 93.5521 111.4 93.5521 109.934C93.5521 109.277 94.6165 108.822 96.322 108.698V107.828H98.0914V108.691C99.0762 108.731 100.053 108.88 101.006 109.136L100.089 109.992C99.1001 109.739 98.0873 109.591 97.0674 109.55C96.4799 109.55 96.0937 109.644 96.0937 109.833C96.0937 110.507 101.006 110.13 101.006 111.619C101.006 112.347 99.7567 112.775 98.078 112.876Z" fill="#FCC700"/>
<path d="M57.1701 130.194C62.7608 126.678 64.4533 119.279 60.9503 113.668C57.4473 108.056 50.0754 106.358 44.4847 109.874C38.894 113.39 37.2015 120.789 40.7045 126.4C44.2075 132.011 51.5794 133.71 57.1701 130.194Z" fill="#FCC700"/>
<path d="M53.2095 129.979C58.5202 129.064 62.0862 124 61.1742 118.67C60.2623 113.34 55.2178 109.761 49.907 110.676C44.5962 111.591 41.0303 116.654 41.9422 121.985C42.8542 127.315 47.8987 130.894 53.2095 129.979Z" fill="#FDA859"/>
<path d="M53.8302 123.781L54.7099 125.631L53.1084 126.396L52.2254 124.536C51.047 124.92 49.7867 124.976 48.5792 124.698L48.6094 122.571C49.8315 122.908 51.3961 122.81 52.2724 122.389C52.9237 122.076 53.2158 121.638 53.0043 121.193C52.3328 119.757 48.3039 122.753 46.8702 119.757C46.2323 118.409 46.7527 117.028 48.1729 116.051L47.3268 114.275L48.9451 113.473L49.7845 115.235C50.7662 114.885 51.8146 114.764 52.8499 114.881V117.028C51.7217 116.947 50.3989 117.092 49.7006 117.425C49.1734 117.678 48.9149 118.039 49.0996 118.436C49.7711 119.835 53.8269 116.913 55.2739 119.956C55.9656 121.439 55.2471 122.851 53.8302 123.781Z" fill="#FCC700"/>
<path d="M114.952 24.6167C111.536 21.1968 106.907 19.2764 102.082 19.2764C97.2563 19.2764 92.6277 21.1968 89.2109 24.6167C89.0295 24.8151 88.9315 25.0762 88.9373 25.3454C88.943 25.6146 89.0522 25.8712 89.2419 26.0616C89.4316 26.252 89.6872 26.3615 89.9554 26.3673C90.2236 26.3731 90.4837 26.2747 90.6814 26.0927C93.7076 23.063 97.8074 21.3615 102.082 21.3615C106.356 21.3615 110.456 23.063 113.482 26.0927C113.68 26.2747 113.94 26.3731 114.208 26.3673C114.476 26.3615 114.732 26.252 114.921 26.0616C115.111 25.8712 115.22 25.6146 115.226 25.3454C115.232 25.0762 115.134 24.8151 114.952 24.6167Z" fill="#C1BED7"/>
<path d="M92.4809 27.8991C92.2995 28.0975 92.2015 28.3585 92.2073 28.6278C92.213 28.897 92.3222 29.1535 92.5119 29.3439C92.7016 29.5344 92.9572 29.6439 93.2254 29.6497C93.4937 29.6555 93.7537 29.5571 93.9514 29.3751C96.1092 27.2137 99.0331 25.9999 102.082 25.9999C105.13 25.9999 108.054 27.2137 110.212 29.3751C110.409 29.5571 110.669 29.6555 110.938 29.6497C111.206 29.6439 111.461 29.5344 111.651 29.3439C111.841 29.1535 111.95 28.897 111.956 28.6278C111.962 28.3585 111.864 28.0975 111.682 27.8991C109.134 25.3468 105.681 23.9133 102.082 23.9133C98.4817 23.9133 95.0289 25.3468 92.4809 27.8991Z" fill="#C1BED7"/>
<path d="M95.768 31.1981C95.5866 31.3965 95.4886 31.6576 95.4944 31.9268C95.5002 32.196 95.6093 32.4526 95.799 32.643C95.9887 32.8334 96.2443 32.9429 96.5126 32.9487C96.7808 32.9545 97.0409 32.8561 97.2386 32.6741C98.5243 31.3873 100.266 30.6648 102.082 30.6648C103.897 30.6648 105.639 31.3873 106.925 32.6741C107.123 32.8561 107.383 32.9545 107.651 32.9487C107.919 32.9429 108.175 32.8334 108.364 32.643C108.554 32.4526 108.663 32.196 108.669 31.9268C108.675 31.6576 108.577 31.3965 108.395 31.1981C106.719 29.5212 104.449 28.5796 102.082 28.5796C99.7148 28.5796 97.4445 29.5212 95.768 31.1981Z" fill="#C1BED7"/>
<path d="M100.475 33.5501C100.074 33.9536 99.8001 34.4676 99.6894 35.0271C99.5786 35.5866 99.6357 36.1665 99.8532 36.6935C100.071 37.2204 100.439 37.6708 100.912 37.9877C101.384 38.3046 101.94 38.4737 102.508 38.4737C103.077 38.4737 103.632 38.3046 104.105 37.9877C104.577 37.6708 104.946 37.2204 105.163 36.6935C105.381 36.1665 105.438 35.5866 105.327 35.0271C105.216 34.4676 104.943 33.9536 104.541 33.5501C104.275 33.2817 103.958 33.0686 103.609 32.9233C103.26 32.7779 102.886 32.7031 102.508 32.7031C102.131 32.7031 101.757 32.7779 101.408 32.9233C101.059 33.0686 100.742 33.2817 100.475 33.5501Z" fill="#C1BED7"/>
<path d="M174.907 57.8198C174.395 59.3842 173.719 60.8898 172.892 62.3118C172.829 61.8118 172.676 61.3275 172.439 60.883C171.845 59.7609 170.787 58.8611 169.696 58.1534C168.319 57.2638 166.839 56.5595 165.647 55.4104C164.156 53.9748 163.428 52.0035 163.246 49.9647C163.099 48.2461 163.196 46.3927 164.076 44.91C164.205 44.6828 164.356 44.4684 164.525 44.2697C164.704 44.0571 164.9 43.8608 165.113 43.6833C165.032 43.7541 165.083 43.9294 165.21 44.1551C165.644 44.8199 166.141 45.4406 166.694 46.0085C167.702 46.9689 168.941 47.4441 170.139 48.0304C172.214 49.0414 174.235 50.7263 174.984 52.9673C175.498 54.5005 175.37 56.236 174.907 57.8198Z" fill="#343C4B"/>
<path d="M166.835 39.2386C166.835 40.3945 166.798 41.5975 166.325 42.6455C166.062 43.2237 165.678 43.7385 165.2 44.1552C164.989 44.3406 164.765 44.5096 164.529 44.6607C164.382 44.7569 164.23 44.8436 164.072 44.9202C163.674 45.1233 163.253 45.2804 162.82 45.3886C161.311 45.7094 159.745 45.6293 158.277 45.156C156.931 44.8194 155.698 44.1297 154.705 43.1577C153.918 42.26 153.364 41.1812 153.093 40.017C152.716 38.596 152.661 37.1084 152.932 35.6632C153.048 35.0426 153.235 34.4376 153.489 33.8603C153.54 33.7458 153.597 33.6312 153.65 33.5234C153.704 33.4155 153.815 33.2066 153.906 33.0549C154.08 32.76 154.278 32.4794 154.497 32.2159C155.675 30.7943 157.351 29.8792 159.18 29.6581C159.818 29.5693 160.467 29.5909 161.097 29.7222C162.442 30.0213 163.668 30.7172 164.616 31.7205C165.462 32.5656 166.087 33.6074 166.436 34.7533C166.865 36.1923 166.852 37.7323 166.835 39.2386Z" fill="#343C4B"/>
<path d="M136.789 54.1029C136.67 54.0483 136.54 54.0231 136.409 54.0296C136.278 54.036 136.151 54.0739 136.037 54.1399C135.812 54.2739 135.609 54.4434 135.436 54.6421L134.023 56.1046C133.948 56.1743 133.888 56.2578 133.845 56.3506C133.832 56.4168 133.832 56.4849 133.845 56.5511C133.859 56.6172 133.885 56.68 133.923 56.7359C133.961 56.7917 134.009 56.8394 134.066 56.8762C134.122 56.9131 134.185 56.9383 134.251 56.9504C134.524 56.9855 134.8 56.9435 135.05 56.8291C134.815 57.0852 134.54 57.3413 134.305 57.5974C134.278 57.6193 134.257 57.6464 134.241 57.6772C134.225 57.7079 134.216 57.7416 134.214 57.776C134.214 57.8501 134.285 57.9041 134.349 57.9411C134.532 58.0493 134.739 58.1121 134.951 58.1244C135.164 58.1367 135.376 58.0981 135.571 58.0119C135.383 58.1972 135.235 58.3994 135.05 58.5814C134.986 58.6454 134.916 58.7263 134.936 58.8139C134.949 58.8463 134.968 58.8759 134.992 58.9008C135.016 58.9256 135.045 58.9454 135.077 58.9588C135.298 59.0759 135.54 59.1475 135.789 59.1695C136.039 59.1915 136.289 59.1634 136.528 59.0869C136.601 59.8282 136.863 60.5865 137.575 60.8223L141.114 58.086L139.536 55.0195L136.789 54.1029Z" fill="#FF7D6F"/>
<path d="M136.739 54.4263C136.739 54.4263 138.314 55.9023 138.952 55.9427C138.952 55.9427 138.146 58.7768 138.868 59.8181L140.425 58.615L141.097 58.086C141.097 58.086 140.687 55.1374 140.227 54.6925C139.767 54.2477 135.638 52.6032 135.564 52.6504C135.564 52.6504 135.537 52.6841 135.52 52.7279C135.426 53.0245 135.305 53.995 136.739 54.4263Z" fill="#FFA07F"/>
<path d="M134.194 52.209L139.22 56.091L138.844 56.9672L133.66 52.7583L134.194 52.209Z" fill="#343C4B"/>
<path d="M139.458 59.3664C139.458 59.3664 138.468 56.0606 138.307 55.9562C138.146 55.8517 137.468 54.5577 137.135 54.4498C136.803 54.342 136.172 54.5273 136.128 54.8374C136.084 55.1474 136.652 56.1853 136.652 56.1853C136.652 56.1853 137.29 58.8104 137.347 59.0867C137.404 59.3631 137.572 60.8323 137.572 60.8323L139.458 59.3664Z" fill="#FFA07F"/>
<path d="M137.582 60.8223C137.723 61.1871 137.966 61.5038 138.28 61.7355C138.837 62.1736 139.667 62.7465 139.667 62.7465L141.681 61.0818L142.165 60.6808L141.493 59.8215L141.117 58.0894L140.446 58.6184L138.888 59.8215L137.582 60.8223Z" fill="#FFA07F"/>
<path d="M135.537 52.7279C136.709 53.3716 139.744 55.0396 139.862 55.0868C139.979 55.134 140.241 57.1525 140.426 58.6117C140.53 59.4272 140.607 60.0674 140.607 60.0674L141.664 61.0784L142.148 60.6774L141.476 59.8181L141.1 58.086C141.1 58.086 140.691 55.1374 140.231 54.6925C139.771 54.2477 135.641 52.6032 135.567 52.6504C135.567 52.6538 135.567 52.6841 135.537 52.7279Z" fill="#FFBF90"/>
<path d="M154.728 129.648H158.875C158.875 129.648 160.664 111.899 160.345 110.251C160.191 109.436 159.899 108.35 159.593 107.299L153.214 107.596C153.825 113.57 154.728 129.648 154.728 129.648Z" fill="#FFA07F"/>
<path d="M173.446 127.626C173.446 127.626 172.654 112.799 172.553 111.484C172.452 110.11 171.448 107.636 170.539 105.658L164.629 107.238C165.902 111.137 169.232 128.108 169.232 128.108L173.446 127.626Z" fill="#FFA07F"/>
<path d="M146.14 134.666C146.154 134.519 146.206 134.378 146.29 134.257C146.374 134.136 146.488 134.039 146.62 133.975C147.553 133.56 150.985 132.266 151.908 131.525C152.63 130.952 153.268 129.702 153.516 129.166L159.895 129.503C160.258 131.168 160.49 134.369 160.537 135.04L146.14 134.666Z" fill="#456997"/>
<path d="M146.096 136.118L160.483 136.495L160.527 135.043L146.14 134.666L146.096 136.118Z" fill="white"/>
<path d="M153.11 131.966L153.137 132.017C153.204 132.145 153.244 132.354 153.073 132.415C152.984 132.443 152.887 132.443 152.798 132.415C152.487 132.336 152.191 132.207 151.922 132.034C151.608 131.874 151.335 131.643 151.126 131.36C150.931 131.05 151.216 130.77 151.559 130.851C152.2 131.009 152.755 131.409 153.11 131.966Z" fill="white"/>
<path d="M152.019 132.715C152.029 132.731 152.038 132.748 152.046 132.765C152.113 132.897 152.153 133.102 151.985 133.163C151.894 133.191 151.797 133.191 151.707 133.163C151.396 133.083 151.1 132.955 150.83 132.782C150.516 132.623 150.243 132.392 150.034 132.108C149.843 131.798 150.128 131.522 150.468 131.599C151.108 131.758 151.663 132.158 152.019 132.715Z" fill="white"/>
<path d="M150.676 133.193L150.703 133.244C150.77 133.372 150.81 133.581 150.639 133.641C150.549 133.67 150.453 133.67 150.364 133.641C150.053 133.562 149.757 133.434 149.487 133.26C149.174 133.101 148.901 132.87 148.692 132.586C148.497 132.276 148.786 131.997 149.125 132.078C149.765 132.236 150.321 132.635 150.676 133.193Z" fill="white"/>
<path d="M167.188 136.421C167.188 137.004 171.657 138.167 172.509 138.106C173.362 138.046 176.481 135.781 176.481 135.781L176.166 134.605C175.618 132.61 174.487 128.65 173.846 127.218L168.809 127.892C168.544 128.731 167.665 133.011 167.409 134.632C167.285 135.495 167.188 136.216 167.188 136.421Z" fill="#456997"/>
<path d="M176.481 135.767C176.481 135.767 173.359 138.022 172.509 138.096C171.66 138.17 167.188 137.004 167.188 136.411C167.188 136.209 167.285 135.484 167.419 134.615C168.873 135.201 171.989 136.357 173.016 135.98C173.715 135.72 175.031 135.11 176.166 134.581C176.36 135.306 176.481 135.767 176.481 135.767Z" fill="white"/>
<path d="M172.499 131.35L172.55 131.373C172.681 131.434 172.828 131.569 172.734 131.73C172.68 131.808 172.604 131.868 172.516 131.902C172.223 132.031 171.911 132.11 171.593 132.138C171.25 132.206 170.897 132.189 170.562 132.091C170.226 131.963 170.29 131.565 170.609 131.417C171.206 131.148 171.885 131.124 172.499 131.35Z" fill="white"/>
<path d="M172.499 132.61L172.55 132.634C172.681 132.694 172.828 132.826 172.734 132.991C172.68 133.068 172.604 133.128 172.516 133.163C172.223 133.291 171.911 133.371 171.593 133.399C171.25 133.466 170.897 133.45 170.562 133.351C170.226 133.223 170.29 132.826 170.609 132.677C171.207 132.41 171.884 132.386 172.499 132.61Z" fill="white"/>
<path d="M172.62 133.763L172.671 133.786C172.802 133.847 172.949 133.982 172.855 134.143C172.801 134.221 172.725 134.281 172.637 134.315C172.344 134.444 172.032 134.523 171.714 134.551C171.372 134.62 171.018 134.605 170.683 134.507C170.347 134.376 170.408 133.978 170.727 133.833C171.325 133.563 172.004 133.538 172.62 133.763Z" fill="white"/>
<path d="M174.987 121.321L151.062 122.753C151.062 122.753 150.961 121.769 150.807 120.219C150.34 115.65 149.434 106.126 149.333 102.244C149.172 96.7717 150.004 80.4887 150.004 80.4887L166.422 80.3134L168.413 80.2932L169.085 82.4533L169.726 93.5367C169.726 93.5367 173.601 106.005 173.48 107.302C173.359 108.6 174.987 121.321 174.987 121.321Z" fill="#414C5B"/>
<path d="M174.987 121.321L151.062 122.753C151.062 122.753 150.961 121.769 150.807 120.219L171.828 118.48C171.828 118.48 171.492 110.544 170.445 107.302C169.397 104.061 166.6 93.9276 166.6 93.9276L166.399 80.3134L168.39 80.2932L169.061 82.4533L169.703 93.5367C169.703 93.5367 173.577 106.005 173.456 107.302C173.335 108.6 174.987 121.321 174.987 121.321Z" fill="#343C4B"/>
<path d="M181.769 49.2706C181.769 49.2706 181.235 48.0035 180.557 47.953C179.879 47.9024 180.846 51.1678 180.846 51.1678L181.769 49.2706Z" fill="#FFA07F"/>
<path d="M182.404 56.8998L185.191 54.1871L181.981 51.6294L181.041 54.5072L180.211 55.4339L182.404 56.8998Z" fill="#FFA07F"/>
<path d="M188.659 48.0203C188.42 46.6724 185.372 44.6033 184.945 44.6505C184.519 44.6976 179.725 51.0026 179.671 51.6968C179.617 52.391 182.535 54.9857 183.341 54.9824C183.754 54.8948 188.87 49.22 188.659 48.0203Z" fill="#456997"/>
<path d="M185.191 54.1872C185.191 54.1872 186.127 53.766 185.755 53.0684C185.382 52.3708 184.579 51.6227 184.294 51.8182C184.009 52.0136 184.294 54.1771 184.294 54.1771L185.191 54.1872Z" fill="#FFA07F"/>
<path d="M185.842 53.5368C185.842 53.5368 186.963 52.8898 186.594 52.1889C186.225 51.4879 185.419 50.7432 185.133 50.9387C184.848 51.1341 185.133 53.2976 185.133 53.2976L185.842 53.5368Z" fill="#FFA07F"/>
<path d="M186.601 52.4786C186.601 52.4786 187.722 51.8316 187.349 51.1307C186.977 50.4298 186.174 49.6884 185.889 49.8838C185.603 50.0793 185.889 52.2427 185.889 52.2427L186.601 52.4786Z" fill="#FFA07F"/>
<path d="M187.353 51.1306C187.353 51.1306 188.518 50.0455 188.397 49.5333C188.276 49.0211 187.443 48.3639 187.225 48.5223C187.007 48.6807 187.427 50.4128 187.427 50.4128L187.091 50.8913L187.353 51.1306Z" fill="#FFA07F"/>
<path d="M180.45 50.194C180.339 50.44 182.558 52.3372 182.938 52.3843C183.317 52.4315 186.52 48.7483 187.118 48.0642L187.205 47.9597C187.205 47.9597 184.348 45.3313 184.153 45.3818C183.98 45.5339 183.826 45.7058 183.693 45.894C182.719 47.087 180.534 50.0019 180.45 50.194Z" fill="#DFDEEE"/>
<path d="M183.7 45.8873L186.671 48.4652L187.118 48.0642L187.205 47.9597C187.205 47.9597 184.348 45.3313 184.153 45.3818C183.983 45.5322 183.831 45.7018 183.7 45.8873Z" fill="#C1BED7"/>
<path d="M180.45 50.1937C180.339 50.4397 182.558 52.3369 182.938 52.3841C183.129 52.4111 184.22 51.2721 185.254 50.1466L182.447 47.4844C182.374 47.5754 182.3 47.6731 182.226 47.7708L181.89 48.2089L181.766 48.3706L181.43 48.8121L181.306 48.9806L180.97 49.422C180.93 49.4827 180.886 49.5366 180.846 49.5905L180.53 50.0387C180.498 50.0875 180.471 50.1394 180.45 50.1937Z" fill="#C1BED7"/>
<path d="M186.792 46.5409L185.315 45.3716L185.117 45.6041L186.597 46.7364L186.792 46.5409Z" fill="#698BB1"/>
<path d="M183.589 49.8115L184.289 50.467L184.662 50.0656L183.963 49.4101L183.589 49.8115Z" fill="#DFDEEE"/>
<path d="M182.717 48.9842L183.417 49.6396L183.79 49.2382L183.091 48.5827L182.717 48.9842Z" fill="#DFDEEE"/>
<path d="M181.9 48.2089L182.548 48.8121L182.907 48.4347L182.236 47.7607L181.9 48.2089Z" fill="#DFDEEE"/>
<path d="M183.081 50.3628L183.781 51.0183L184.154 50.6169L183.455 49.9614L183.081 50.3628Z" fill="#DFDEEE"/>
<path d="M182.203 49.5386L182.902 50.1941L183.275 49.7926L182.576 49.1372L182.203 49.5386Z" fill="#DFDEEE"/>
<path d="M181.437 48.8155L182.028 49.3681L182.4 48.9671L181.769 48.374L181.437 48.8155Z" fill="#DFDEEE"/>
<path d="M182.565 50.9116L183.264 51.5671L183.637 51.1657L182.938 50.5102L182.565 50.9116Z" fill="#DFDEEE"/>
<path d="M181.688 50.0899L182.387 50.7454L182.761 50.3439L182.062 49.6884L181.688 50.0899Z" fill="#DFDEEE"/>
<path d="M180.987 49.4256L181.518 49.9209L181.89 49.5199L181.313 48.9841L180.987 49.4256Z" fill="#DFDEEE"/>
<path d="M182.051 51.4651L182.75 52.1206L183.124 51.7191L182.425 51.0637L182.051 51.4651Z" fill="#FCC700"/>
<path d="M181.175 50.6436L181.874 51.2991L182.248 50.8976L181.548 50.2421L181.175 50.6436Z" fill="#DFDEEE"/>
<path d="M180.557 50.0422L181.014 50.4701L181.386 50.0691L180.873 49.594L180.557 50.0422Z" fill="#FD7658"/>
<path d="M182.803 53.1525L182.098 52.5291L181.716 52.984L182.404 53.5906L182.803 53.1525Z" fill="#FD7658"/>
<path d="M181.836 52.3134L181.128 51.6934L180.745 52.1483L181.433 52.7515L181.836 52.3134Z" fill="#FCC700"/>
<path d="M180.99 51.5283L180.282 50.9082L179.899 51.3631L180.587 51.9663L180.99 51.5283Z" fill="#0CC3BE"/>
<path d="M188.306 47.9529C188.306 47.9529 187.44 47.99 187.212 48.1989C186.983 48.4078 183.576 52.4213 183.519 52.5325C183.462 52.6437 183.374 54.5106 183.247 54.5544C183.119 54.5982 182.991 52.364 182.991 52.364C182.991 52.364 186.849 47.8585 187.202 47.8215C187.554 47.7844 188.561 47.808 188.306 47.9529Z" fill="#254F79"/>
<path d="M183.861 48.4955L183.743 48.6236L183.629 48.5225L183.75 48.3911C183.681 48.3095 183.636 48.2104 183.619 48.1046L183.79 48.0372C183.803 48.1451 183.849 48.2463 183.921 48.327C183.968 48.3675 184.012 48.3776 184.039 48.3473C184.133 48.2462 183.767 48.0103 183.958 47.8115C184.002 47.7662 184.06 47.7393 184.123 47.7362C184.185 47.733 184.246 47.7539 184.294 47.7946L184.408 47.6699L184.519 47.7744L184.408 47.8957C184.466 47.9647 184.508 48.0451 184.532 48.1316L184.365 48.199C184.337 48.1105 184.292 48.0289 184.23 47.9597C184.193 47.926 184.156 47.9193 184.133 47.9597C184.042 48.0575 184.405 48.2967 184.21 48.4989C184.163 48.5438 184.1 48.5685 184.035 48.5678C183.97 48.5672 183.907 48.5413 183.861 48.4955Z" fill="#343C4B"/>
<path d="M184.764 48.5493C184.791 48.5156 184.784 48.4752 184.741 48.4348C184.674 48.3848 184.592 48.3587 184.509 48.3606L184.556 48.1921C184.68 48.1986 184.798 48.246 184.892 48.3269C185.013 48.4381 185.043 48.5797 184.956 48.6639C184.872 48.7312 184.767 48.7637 184.66 48.7549H184.428L184.68 48.9908L184.566 49.1121L184.116 48.6976L184.21 48.5965L184.627 48.5729C184.674 48.5781 184.721 48.5699 184.764 48.5493Z" fill="#343C4B"/>
<path d="M185.194 49.0245C185.225 49.0447 185.252 49.0712 185.272 49.1023C185.293 49.1334 185.306 49.1684 185.313 49.2052C185.319 49.2419 185.318 49.2795 185.309 49.3157C185.3 49.3519 185.284 49.3859 185.261 49.4154C185.234 49.4457 185.201 49.4699 185.164 49.4865C185.127 49.5031 185.087 49.5116 185.046 49.5116C185.006 49.5116 184.965 49.5031 184.928 49.4865C184.891 49.4699 184.858 49.4457 184.831 49.4154C184.748 49.3371 184.69 49.2365 184.663 49.1256L184.835 49.0616C184.834 49.1016 184.841 49.1413 184.856 49.1784C184.871 49.2154 184.894 49.2491 184.922 49.2772C184.982 49.3345 185.039 49.3379 185.083 49.2772C185.127 49.2166 185.113 49.1761 185.056 49.1222L184.888 48.9739L185.197 48.637L185.593 49.0009L185.479 49.129L185.224 48.8931L185.14 48.9841L185.194 49.0245Z" fill="#343C4B"/>
<path d="M186.792 47.899L185.355 46.6218L185.184 46.8038L186.614 48.0944L186.792 47.899Z" fill="#DFDEEE"/>
<path d="M147.701 62.1735C147.258 60.9064 146.496 58.6857 144.817 58.8273C143.138 58.9688 141.913 61.0345 141.308 62.369C140.261 64.6773 140.167 67.2519 140.08 69.7422C140.063 70.16 140.711 70.1398 140.724 69.7422C140.791 67.8989 140.852 66.0353 141.335 64.2426C141.789 62.5577 143.014 59.5888 145.012 59.6765C145.955 59.7203 145.938 59.9898 146.355 60.7481C146.599 61.1874 146.808 61.6447 146.983 62.1162C147.263 62.8677 147.472 63.6439 147.607 64.4347C147.886 66.1902 147.966 67.9719 147.845 69.7455C147.825 70.1634 148.473 70.1432 148.493 69.7287C148.614 67.1979 148.54 64.5897 147.701 62.1735Z" fill="#343C4B"/>
<path d="M169.044 82.4702C166.735 80.7516 150.803 82.6286 150.803 82.6286C150.803 82.6286 150.491 81.8973 149.981 80.5056C149.927 80.3394 149.902 80.1649 149.907 79.99C149.907 78.049 151.874 73.3076 151.874 73.3076C151.718 70.9324 151.417 68.569 150.971 66.2309C150.756 64.9234 149.377 57.8367 150.3 55.9799C151.036 54.6477 151.85 53.3604 152.737 52.1248C153.674 50.7769 154.497 49.6648 154.497 49.6648L158.056 47.717L161.974 47.8619L164.415 49.1122L167.158 50.5208C167.158 50.5208 167.258 51.963 167.393 54.2545C167.591 57.6244 167.863 62.8645 167.984 68.0507C168.027 69.8333 168.051 71.6092 168.051 73.3042C168.051 73.3042 169.394 76.7381 169.649 77.9647C169.904 79.1913 169.044 82.4702 169.044 82.4702Z" fill="#0CC3BE"/>
<path d="M162.722 48.2393C162.722 48.2393 159.127 48.9672 158.589 48.738C158.052 48.5089 157.32 48.1314 157.32 48.1314C157.441 47.9967 158.27 46.7363 158.254 46.3084C158.194 45.5088 158.082 44.7141 157.918 43.9293L161.275 42.9587C161.275 42.9587 161.366 43.909 161.504 44.92C161.641 45.9309 162.521 48.0742 162.722 48.2393Z" fill="#FFA07F"/>
<path d="M157.78 47.4238L154.843 49.4457C154.843 49.4457 155.581 52.4247 156.666 52.0371C157.75 51.6496 158.955 50.2343 158.955 50.2343C158.955 50.2343 160.11 52.8628 161.332 52.7178C162.555 52.5729 164.398 49.1087 164.398 49.1087L162.427 47.6968C162.427 47.6968 158.539 49.9815 157.78 47.4238Z" fill="white"/>
<path d="M161.49 44.9166C160.554 45.5501 159.405 46.2949 159.036 46.3993C158.773 46.4709 158.493 46.4383 158.254 46.3084C158.194 45.5099 158.082 44.7162 157.918 43.9326L161.275 42.9587C161.275 42.9587 161.353 43.9124 161.49 44.9166Z" fill="#FF7D6F"/>
<path d="M163.535 33.7995C162.722 32.7359 161.567 31.9872 160.267 31.6802C158.967 31.3731 157.601 31.5266 156.4 32.1146C155.905 32.3316 155.479 32.6814 155.168 33.1255C154.309 34.6689 152.902 40.428 153.963 43.2856C155.024 46.1432 156.934 45.8534 157.619 45.6883C158.304 45.5232 161.53 44.3606 162.319 43.3631C163.108 42.3656 164.935 37.0952 164.67 35.6832C164.559 35.2216 164.106 34.5206 163.535 33.7995Z" fill="#FFBF90"/>
<path d="M163.77 33.3919C162.957 32.3278 161.803 31.5787 160.502 31.2716C159.202 30.9645 157.836 31.1183 156.635 31.707C156.14 31.9231 155.715 32.2731 155.406 32.7179C154.544 34.2613 153.137 40.0204 154.198 42.878C155.259 45.7356 157.173 45.4458 157.854 45.2807C158.536 45.1156 161.769 43.953 162.555 42.9521C163.34 41.9513 165.173 36.6876 164.905 35.2756C164.794 34.8106 164.337 34.113 163.77 33.3919Z" fill="#FFA07F"/>
<path d="M165.751 40.0102C165.704 40.1282 165.653 40.2495 165.6 40.3708C165.199 40.0806 164.708 39.9439 164.215 39.9853C163.723 40.0267 163.261 40.2435 162.914 40.5966C162.759 39.9907 162.737 39.3586 162.848 38.7433C162.96 38.128 163.202 37.544 163.558 37.0313C162.434 36.3841 161.561 35.3747 161.081 34.1669C160.029 35.0232 158.691 35.4449 157.34 35.3464C157.78 34.7524 158.064 34.0572 158.166 33.3245C156.662 34.561 154.854 35.3697 152.932 35.6665C152.464 35.7401 151.992 35.7817 151.519 35.7912C151.709 35.0651 151.966 34.3579 152.284 33.6783C153.308 31.5148 155.044 29.5705 157.455 29.2705C158.646 29.1453 159.851 29.2854 160.983 29.6809C162.114 30.0764 163.145 30.7176 164.002 31.5587C165.049 32.6639 165.767 34.0409 166.076 35.5342C166.385 37.0275 166.273 38.5778 165.751 40.0102Z" fill="#343C4B"/>
<path d="M174.93 57.7289C174.93 57.7592 174.93 57.7862 174.907 57.8199C174.395 59.3842 173.719 60.8899 172.892 62.3119C172.829 61.8118 172.676 61.3275 172.439 60.8831C173.198 59.1294 173.469 57.2021 173.224 55.306C172.828 55.8519 172.432 56.3944 172.043 56.937C172.12 54.8881 171.234 52.91 170.028 51.2622C168.823 49.6143 167.285 48.2293 165.845 46.7904C165.247 46.1872 164.633 45.4728 164.542 44.6607C164.524 44.5344 164.524 44.4061 164.542 44.2799C164.653 43.1442 165.841 42.3456 165.976 41.2099C166.011 40.8026 165.942 40.393 165.774 40.0204C165.586 39.5452 165.301 39.0836 165.103 38.6219C164.71 37.7794 164.643 36.5629 165.459 36.1282C164.447 35.8868 163.527 35.3559 162.81 34.5998C162.093 33.8437 161.61 32.8949 161.42 31.8687L158.609 32.9606C158.781 32.2866 158.945 31.643 159.12 30.9791C157.548 32.2926 155.659 33.1687 153.644 33.52C153.192 33.6002 152.736 33.652 152.277 33.675C152.771 32.5967 153.461 31.6206 154.312 30.7971C155.169 29.9668 156.268 29.4311 157.448 29.2672C158.345 29.1602 159.255 29.2138 160.134 29.4256L160.416 29.4997C160.651 29.5638 160.879 29.6379 161.087 29.7188C161.587 29.8194 162.072 29.9836 162.531 30.2074C162.625 30.2512 162.716 30.3018 162.81 30.3523C163.471 30.7104 164.077 31.1646 164.606 31.7002C165.452 32.5454 166.077 33.5872 166.426 34.7331C166.442 34.7805 166.456 34.8289 166.466 34.878C166.569 35.2381 166.645 35.6053 166.694 35.9766C166.827 37.0539 166.874 38.1403 166.832 39.2251C166.832 40.381 166.795 41.584 166.322 42.632C166.175 42.9609 165.987 43.2691 165.761 43.5486C165.589 43.7608 165.4 43.9591 165.197 44.1417C165.63 44.8065 166.127 45.4272 166.681 45.9951C166.846 46.1533 167.019 46.3018 167.201 46.4399C168.091 47.1139 169.128 47.5284 170.126 48.0035C172.2 49.0145 174.222 50.6994 174.97 52.9403C175.437 54.5043 175.423 56.173 174.93 57.7289Z" fill="#414C5B"/>
<path d="M160.12 29.4255C158.399 30.5383 156.348 31.0226 154.312 30.797C155.17 29.9667 156.268 29.431 157.448 29.2671C158.341 29.1617 159.246 29.2153 160.12 29.4255Z" fill="#495969"/>
<path d="M161.084 29.7188C161.584 29.8194 162.069 29.9836 162.528 30.2074C161.624 30.752 160.594 31.0505 159.54 31.0735L160.396 29.4998C160.637 29.5638 160.866 29.6379 161.084 29.7188Z" fill="#495969"/>
<path d="M166.456 34.8915C165.441 34.7177 164.492 34.2717 163.709 33.6008C162.84 32.7887 162.397 31.4306 162.8 30.3523C163.461 30.7104 164.066 31.1646 164.596 31.7002C165.442 32.5454 166.067 33.5872 166.416 34.7331C166.433 34.7849 166.446 34.8378 166.456 34.8915Z" fill="#495969"/>
<path d="M166.698 35.99C166.831 37.0673 166.877 38.1537 166.835 39.2385C166.835 40.3944 166.798 41.5974 166.325 42.6454C166.179 42.9743 165.99 43.2825 165.764 43.562C165.719 43.2756 165.708 42.985 165.731 42.696C165.805 41.8299 166.177 41.0111 166.298 40.1484C166.419 39.2857 166.275 38.3152 166.338 37.3952C166.364 36.9075 166.486 36.4298 166.698 35.99Z" fill="#495969"/>
<path d="M174.93 57.7289C175.031 55.7777 174.813 53.8064 174.259 53.1088C173.95 53.3784 173.641 53.648 173.329 53.9142C173.275 52.3506 172.298 50.9622 171.156 49.8906C170.015 48.819 168.682 47.9698 167.581 46.8578C167.453 46.7297 167.329 46.5915 167.211 46.4534C168.101 47.1273 169.139 47.5418 170.136 48.017C172.211 49.0279 174.232 50.7128 174.981 52.9538C175.441 54.5146 175.423 56.1782 174.93 57.7289Z" fill="#495969"/>
<path d="M157.344 40.3808C157.488 40.3505 157.636 40.3505 157.78 40.3808C157.555 40.6733 157.225 40.8657 156.86 40.9166C156.833 40.9216 156.804 40.9216 156.776 40.9166C156.744 40.9047 156.715 40.885 156.693 40.8593C156.537 40.7062 156.413 40.5242 156.327 40.3235C156.307 40.2834 156.296 40.2399 156.293 40.1954C156.293 40.0505 156.384 40.1011 156.457 40.155C156.542 40.2161 156.635 40.266 156.733 40.3032C156.927 40.3789 157.137 40.4055 157.344 40.3808Z" fill="#FF7D6F"/>
<path d="M156.85 40.8224C156.786 40.728 156.706 40.6404 156.639 40.5461C156.554 40.4297 156.481 40.3056 156.42 40.1754C156.944 39.9766 157.055 39.5014 157.162 38.969C157.213 38.7258 157.205 38.4738 157.139 38.2344C157.106 38.1087 157.057 37.9876 156.995 37.8738C156.962 37.8167 156.926 37.7616 156.887 37.7087C156.851 37.6587 156.805 37.6164 156.753 37.584C156.773 37.6211 156.783 37.6649 156.8 37.7019C156.848 37.8006 156.89 37.9019 156.927 38.0052C156.962 38.115 156.985 38.2279 156.998 38.3422C157.031 38.5663 157.024 38.7945 156.978 39.0162C156.935 39.23 156.849 39.4329 156.726 39.6126C156.58 39.8247 156.374 39.9879 156.135 40.081C156.135 40.081 156.353 40.5157 156.373 40.5528C156.433 40.6469 156.502 40.7349 156.578 40.8157C156.649 40.9053 156.743 40.9731 156.85 41.0111C156.884 41.0211 156.92 41.0211 156.954 41.0111C156.939 40.9945 156.926 40.9765 156.914 40.9572L156.897 40.9302C156.884 40.8729 156.867 40.8494 156.85 40.8224Z" fill="#FC5B68"/>
<path d="M162.763 40.4921C162.934 40.418 163.847 39.343 164.408 40.0574C164.969 40.7718 165.079 41.9074 164.472 42.5073C163.924 43.0566 163.176 43.6395 162.313 43.3699L162.763 40.4921Z" fill="#FFA07F"/>
<path d="M164.344 40.9168C164.366 41.07 164.345 41.2263 164.284 41.3683C164.048 41.985 163.431 42.4265 162.836 42.8376C163.023 42.5484 163.115 42.2078 163.098 41.8637C163.098 41.7491 163.078 41.6312 163.098 41.5267C163.098 41.0415 164.189 40.0103 164.344 40.9168Z" fill="#FF7D6F"/>
<path d="M162.544 42.9993L162.578 42.9824C162.598 42.9824 162.632 42.9555 162.672 42.9285C162.782 42.8604 162.882 42.7763 162.967 42.6792C163.088 42.5386 163.177 42.3729 163.226 42.1939C163.286 41.9716 163.276 41.7359 163.196 41.5199C163.188 41.4897 163.176 41.4603 163.162 41.4323V41.4121V41.3919L163.182 41.3582L163.226 41.2908C163.286 41.2032 163.35 41.1189 163.414 41.0414C163.478 40.9639 163.542 40.8965 163.609 40.8325C163.667 40.7726 163.73 40.7174 163.797 40.6674C163.851 40.6256 163.916 40.5999 163.985 40.5932C164.039 40.5899 164.093 40.6028 164.139 40.6303C164.168 40.6462 164.19 40.6711 164.203 40.7011C164.204 40.7111 164.204 40.7213 164.203 40.7314C164.205 40.7202 164.205 40.7089 164.203 40.6977C164.195 40.6634 164.176 40.6326 164.149 40.6101C164.101 40.5676 164.039 40.5427 163.975 40.5393C163.889 40.5354 163.804 40.5552 163.73 40.5966C163.648 40.6416 163.571 40.6934 163.498 40.7516C163.418 40.8143 163.342 40.8818 163.27 40.9538C163.191 41.0325 163.118 41.117 163.051 41.2065L163.001 41.2773L162.978 41.3144L162.944 41.3649L162.924 41.402V41.4391L162.947 41.493L162.981 41.5671C163.048 41.7572 163.066 41.9611 163.035 42.1602C162.981 42.4451 162.837 42.7051 162.625 42.9016L162.544 42.969V42.9993Z" fill="#CF4A57"/>
<path d="M154.517 35.9967C154.517 35.9967 155.386 35.3935 155.903 35.471C156.421 35.5485 156.555 36.0371 156.343 36.1214C156.132 36.2056 154.517 35.9967 154.517 35.9967Z" fill="#343C4B"/>
<path d="M161.843 37.1997C161.843 37.1997 160.695 36.0775 159.895 35.8787C159.096 35.6799 158.767 36.1416 159.059 36.3471C159.352 36.5527 161.843 37.1997 161.843 37.1997Z" fill="#343C4B"/>
<path d="M159.526 40.7954C159.546 41.0447 160.097 41.2065 160.755 41.1559C161.413 41.1054 161.933 40.856 161.913 40.6066C161.893 40.3573 161.343 40.1955 160.685 40.2461C160.026 40.2966 159.506 40.546 159.526 40.7954Z" fill="#FF7D6F"/>
<path d="M153.214 39.1847C153.123 39.3498 153.459 39.707 153.959 39.9766C154.46 40.2462 154.946 40.3338 155.034 40.1653C155.121 39.9968 154.789 39.643 154.285 39.37C153.781 39.097 153.301 39.0162 153.214 39.1847Z" fill="#FF7D6F"/>
<path d="M161.289 37.894C161.119 38.0757 160.893 38.1944 160.648 38.231C160.619 38.1686 160.578 38.1131 160.527 38.0682C160.475 38.0234 160.414 37.9904 160.349 37.9715C160.013 37.8974 159.677 38.2546 159.543 38.7769C159.409 39.2993 159.58 39.7879 159.902 39.8587C160.224 39.9294 160.574 39.5756 160.711 39.0566C160.749 38.9059 160.762 38.7498 160.748 38.595C160.984 38.4105 161.17 38.1695 161.289 37.894Z" fill="#343C4B"/>
<path d="M156.014 42.0625L159.926 41.8569C159.926 41.8569 159.526 43.8519 157.78 43.8418C155.638 43.8283 156.014 42.0625 156.014 42.0625Z" fill="white"/>
<path d="M154.769 36.9402C154.835 37.1294 154.961 37.2915 155.128 37.4019C155.17 37.3661 155.218 37.3398 155.271 37.3247C155.324 37.3096 155.379 37.306 155.433 37.3142C155.695 37.3648 155.84 37.7523 155.769 38.1735C155.699 38.5948 155.403 38.8981 155.141 38.8475C154.879 38.797 154.735 38.4094 154.806 37.9848C154.832 37.8665 154.876 37.7529 154.937 37.6479C154.821 37.4302 154.763 37.1866 154.769 36.9402Z" fill="#343C4B"/>
<path d="M155.255 38.1297C155.078 38.1479 154.9 38.1102 154.745 38.0219C154.599 37.9173 154.489 37.7703 154.429 37.6007C154.608 37.5824 154.787 37.6201 154.943 37.7085C155.088 37.8128 155.198 37.9601 155.255 38.1297Z" fill="white"/>
<path d="M160.124 38.9991C160.315 39.1117 160.537 39.1623 160.758 39.144C160.977 39.1031 161.178 38.9947 161.332 38.834C161.141 38.7197 160.919 38.669 160.698 38.6891C160.479 38.7301 160.278 38.8384 160.124 38.9991Z" fill="white"/>
<path d="M142.423 59.3834L138.958 62.9015L140.106 64.3337C140.558 65.8659 141.17 67.3457 141.933 68.7482C143.034 70.6319 147.271 70.6286 148.698 70.3826L152.203 73.8636L155.423 51.3666L154.48 49.6479C154.48 49.6479 151.633 51.3666 151.508 51.8586C151.384 52.3506 148.332 61.9681 148.453 62.204C148.574 62.4399 146.254 60.1585 145.398 59.9125C144.542 59.6665 143.115 59.9125 143.115 59.9125L142.423 59.3834Z" fill="#0CC3BE"/>
<path d="M152.254 54.2376C152.351 54.0051 151.975 53.9006 151.881 54.1331C150.357 57.8062 148.742 62.4162 151.626 65.8635C151.568 67.5215 151.592 69.1772 151.7 70.8307C151.717 71.0767 152.106 71.08 152.089 70.8307C151.977 69.1482 151.954 67.4609 152.019 65.7759C152.022 65.7372 152.012 65.6985 151.991 65.666C151.97 65.6336 151.938 65.6094 151.901 65.5973C149.125 62.2511 150.797 57.7523 152.254 54.2376Z" fill="#0797A7"/>
<path d="M143.394 60.7078C143.389 60.6909 143.38 60.6755 143.367 60.6633C143.355 60.651 143.339 60.6422 143.322 60.6378C143.305 60.6334 143.287 60.6334 143.27 60.638C143.253 60.6426 143.238 60.6516 143.226 60.664C143.089 60.8464 142.976 61.0458 142.89 61.257L142.843 61.2301C142.672 61.129 142.507 61.038 142.316 60.9538C142.287 60.939 142.254 60.9357 142.224 60.9447C142.193 60.9537 142.167 60.9742 142.151 61.002C142.135 61.0298 142.13 61.0627 142.138 61.0939C142.145 61.1251 142.165 61.1521 142.192 61.1694C142.349 61.2907 142.511 61.4053 142.678 61.5064L142.756 61.557C142.702 61.6873 142.645 61.8153 142.584 61.9411L142.417 61.8434C142.226 61.7312 142.029 61.6321 141.826 61.5469C141.797 61.532 141.764 61.5288 141.734 61.5378C141.703 61.5468 141.677 61.5673 141.661 61.5951C141.645 61.6229 141.64 61.6558 141.648 61.687C141.655 61.7182 141.674 61.7452 141.701 61.7625L142.252 62.1231L142.41 62.241L142.363 62.3152C142.279 62.4331 142.185 62.541 142.091 62.6522C142.004 62.5887 141.912 62.5324 141.816 62.4837C141.648 62.387 141.491 62.2742 141.345 62.1467C141.198 62.0186 140.983 62.2242 141.127 62.3624C141.281 62.5107 141.447 62.6449 141.624 62.7634C141.699 62.8162 141.778 62.8635 141.859 62.9049C141.688 63.0684 141.508 63.2215 141.319 63.3632C141.259 63.2834 141.182 63.2188 141.094 63.1745L140.644 62.8611C140.513 62.7667 140.399 62.979 140.523 63.0734L140.936 63.3834C140.993 63.4305 141.052 63.4743 141.114 63.5148C140.944 63.63 140.768 63.7358 140.587 63.8316C140.52 63.8653 140.567 63.9832 140.64 63.9563C141.401 63.6979 142.074 63.231 142.584 62.6084C142.809 62.3202 143.014 62.0174 143.199 61.7019C143.371 61.401 143.439 61.0516 143.394 60.7078Z" fill="#0797A7"/>
<path d="M148.997 63.2048C148.906 63.0161 148.792 62.7769 148.554 62.7769C148.316 62.7769 148.181 63.0667 148.081 63.2655C147.892 63.6395 147.711 64.0203 147.527 64.3944C147.439 64.573 147.698 64.7314 147.788 64.5494C147.879 64.3674 148.023 64.1046 148.124 63.8754C148.201 63.7305 148.393 63.2015 148.54 63.2015C148.688 63.2015 148.671 63.316 148.722 63.4272C148.772 63.5384 148.809 63.6362 148.859 63.7406C148.917 63.9216 149.027 64.0812 149.175 64.1989C149.239 64.2427 149.303 64.1989 149.309 64.1214C149.353 63.8215 149.118 63.471 148.997 63.2048Z" fill="#0797A7"/>
<path d="M151.962 69.6176L153.07 84.8729L153.268 87.6699C147.606 88.951 141.727 88.9095 136.084 87.5486L136.155 86.7331L137.649 69.5132L150.203 69.6042L151.962 69.6176Z" fill="#FCC700"/>
<path d="M151.962 69.6175L153.07 84.8727L153.268 87.6697C147.606 88.9508 141.727 88.9093 136.084 87.5484L136.155 86.7329C140.271 87.454 144.79 86.3959 147.493 83.235C149.239 81.2131 150.085 78.5172 150.34 75.8416C150.496 73.7628 150.45 71.6738 150.203 69.604L151.962 69.6175Z" fill="#FDA859"/>
<path d="M147.698 62.177C147.61 61.9209 147.51 61.6311 147.389 61.3245C146.915 60.1113 146.16 58.7128 144.817 58.8274C144.108 58.9267 143.457 59.2754 142.98 59.8114L143.115 59.9159C143.464 59.8616 143.816 59.8267 144.169 59.8114C144.435 59.6995 144.723 59.6477 145.012 59.6598C145.767 59.6935 145.908 59.8754 146.153 60.3337C146.214 60.4483 146.281 60.5763 146.365 60.728C146.608 61.1708 146.816 61.6316 146.989 62.1063C147.266 62.86 147.475 63.637 147.614 64.4281C147.891 66.1849 147.971 67.9675 147.852 69.7423C147.832 70.1568 148.48 70.1366 148.497 69.7221C148.614 67.1981 148.544 64.5898 147.698 62.177Z" fill="#343C4B"/>
<path d="M140.815 42.9958L144.572 44.7583L140.144 51.0329L140.815 42.9958Z" fill="white"/>
<path d="M146.288 48.2327L146.939 50.5646L142.5 50.9825L146.288 48.2327Z" fill="white"/>
<path d="M136.017 44.8998L138.273 44.0405L139.086 48.4415L136.017 44.8998Z" fill="white"/>
<path d="M158.828 53.3683C158.83 53.4535 158.815 53.5384 158.784 53.6175C158.752 53.6967 158.705 53.7686 158.645 53.8287C158.584 53.8888 158.513 53.9359 158.434 53.967C158.354 53.9981 158.27 54.0126 158.185 54.0096C158.1 54.0066 158.017 53.9862 157.94 53.9496C157.863 53.9129 157.795 53.8609 157.739 53.7967C157.683 53.7325 157.641 53.6574 157.615 53.5762C157.589 53.495 157.58 53.4093 157.589 53.3245C157.605 53.1669 157.679 53.0212 157.798 52.9171C157.917 52.8129 158.071 52.758 158.229 52.7636C158.386 52.7691 158.536 52.8348 158.647 52.9471C158.759 53.0594 158.823 53.21 158.828 53.3683Z" fill="white"/>
<path d="M158.734 56.1314C158.73 56.2547 158.689 56.3741 158.618 56.4743C158.546 56.5746 158.446 56.6512 158.331 56.6945C158.216 56.7378 158.091 56.7458 157.971 56.7176C157.851 56.6893 157.743 56.626 157.659 56.5358C157.575 56.4455 157.52 56.3322 157.5 56.2104C157.48 56.0886 157.497 55.9637 157.548 55.8514C157.599 55.7392 157.683 55.6447 157.787 55.58C157.892 55.5152 158.013 55.4831 158.136 55.4877C158.218 55.4903 158.298 55.5091 158.372 55.5429C158.446 55.5767 158.513 55.6249 158.568 55.6847C158.624 55.7446 158.667 55.8148 158.696 55.8915C158.724 55.9681 158.737 56.0497 158.734 56.1314Z" fill="white"/>
<path d="M158.828 58.9182C158.824 59.0416 158.783 59.1609 158.712 59.2612C158.64 59.3614 158.54 59.4381 158.425 59.4814C158.31 59.5247 158.185 59.5327 158.065 59.5044C157.945 59.4762 157.837 59.4129 157.753 59.3226C157.669 59.2323 157.614 59.1191 157.594 58.9973C157.574 58.8755 157.591 58.7505 157.642 58.6383C157.693 58.5261 157.777 58.4316 157.881 58.3669C157.986 58.3021 158.107 58.27 158.23 58.2746C158.394 58.2808 158.549 58.3519 158.661 58.4726C158.773 58.5932 158.833 58.7534 158.828 58.9182Z" fill="white"/>
<path d="M166.809 79.0701C165.598 78.8272 164.375 78.6494 163.146 78.5376C160.478 78.2843 157.792 78.3159 155.131 78.632C154.886 78.6623 154.883 79.0499 155.131 79.0229C157.248 78.7713 159.382 78.698 161.51 78.8039C162.649 78.8645 163.783 78.9724 164.908 79.1408C165.452 79.2217 165.989 79.3127 166.53 79.4172C166.698 79.4475 167.114 79.4576 167.238 79.5857C167.487 79.6126 167.477 79.7002 167.215 79.8418C167.191 79.893 167.157 79.9386 167.114 79.9754C167.071 80.0123 167.021 80.0396 166.967 80.0555C166.913 80.0715 166.857 80.0757 166.801 80.0679C166.745 80.0601 166.692 80.0404 166.644 80.0103C165.637 80.0945 164.502 79.8822 163.471 79.8654C162.44 79.8485 161.353 79.8654 160.295 79.8957C158.16 79.9762 156.03 80.1719 153.916 80.482C153.667 80.5157 153.772 80.8932 154.017 80.8561C156.838 80.4474 159.684 80.2436 162.534 80.2462C163.904 80.2462 165.271 80.3169 166.641 80.3978C167.064 80.4248 167.88 80.5393 167.984 79.9227C168.088 79.306 167.228 79.1577 166.809 79.0701Z" fill="#0797A7"/>
<path d="M167.154 50.5073C167.154 50.5073 168.971 51.5958 169.36 52.2799C169.75 52.9639 170.975 58.0457 170.975 58.0457L173.5 61.4155C173.5 61.4155 175.373 56.5191 176.669 55.7542C177.578 55.2538 178.561 54.9022 179.58 54.7129L180.809 53.8974L183.723 56.0238L183.267 57.7087C183.267 57.7087 182.055 63.9564 181.276 65.3784C180.893 66.0794 176.377 72.199 173.369 72.1922C172.382 72.1922 167.933 66.3186 167.933 66.3186L165.606 54.204L167.154 50.5073Z" fill="#0CC3BE"/>
<path d="M167.598 51.4473C166.991 51.9316 166.557 52.5993 166.359 53.3513C166.351 53.3987 166.361 53.4472 166.387 53.4876C166.413 53.528 166.452 53.5575 166.499 53.5704C166.545 53.5833 166.594 53.5787 166.637 53.5576C166.68 53.5365 166.713 53.5002 166.731 53.4558C166.914 52.7698 167.313 52.162 167.869 51.7237C168.068 51.5686 167.799 51.2923 167.598 51.4473Z" fill="#0797A7"/>
<path d="M166.325 56.1854C166.295 55.9428 165.905 55.9394 165.939 56.1854L167.107 65.4019C167.141 65.6446 167.527 65.6479 167.497 65.4019C167.107 62.3174 166.717 59.2452 166.325 56.1854Z" fill="#0797A7"/>
<path d="M174.608 63.9361L173.903 61.8232C173.89 61.7913 173.868 61.7633 173.841 61.7422C173.814 61.7212 173.782 61.7077 173.747 61.7033C173.713 61.6988 173.679 61.7035 173.647 61.7169C173.615 61.7303 173.588 61.7518 173.567 61.7794C173.135 62.3653 172.795 63.0143 172.56 63.7036C172.479 63.9395 172.852 64.0406 172.932 63.8047C173.115 63.2783 173.362 62.7768 173.668 62.3118L174.242 64.0406C174.312 64.2731 174.685 64.1585 174.608 63.9361Z" fill="#0797A7"/>
<path d="M182.733 57.1493C182.518 56.9538 182.293 56.7685 182.061 56.5899L182.672 56.0237C182.854 55.8519 182.578 55.5755 182.397 55.7474L181.766 56.3304C181.758 56.3397 181.751 56.3499 181.746 56.3607C181.611 56.2596 181.477 56.1552 181.336 56.0608C181.365 56.0669 181.394 56.0657 181.423 56.0575C181.451 56.0493 181.476 56.0342 181.497 56.0136L181.984 55.5755C182.172 55.4104 181.897 55.1341 181.712 55.3026L181.229 55.7373C181.196 55.7632 181.175 55.8006 181.168 55.8419C181.162 55.8831 181.172 55.9252 181.195 55.9597C181.014 55.8384 180.826 55.7204 180.638 55.6227L181.309 55.0633C181.504 54.9016 181.225 54.6286 181.034 54.787L180.265 55.4239C180.161 55.3666 180.06 55.3026 179.953 55.2487C179.731 55.1375 179.533 55.4711 179.758 55.5857C180.73 56.082 181.633 56.7039 182.444 57.4357C182.642 57.5907 182.907 57.3177 182.733 57.1493Z" fill="#0797A7"/>
<path d="M166.369 45.1222C165.809 45.3524 165.232 45.5372 164.643 45.6749C165.188 45.2748 165.632 44.7534 165.942 44.1517C165.963 44.1145 165.971 44.0715 165.966 44.0293C165.96 43.987 165.94 43.9478 165.91 43.9176C165.88 43.8874 165.841 43.868 165.799 43.8622C165.757 43.8564 165.714 43.8646 165.677 43.8855C164.95 44.3155 164.167 44.6421 163.35 44.856C163.306 44.8741 163.27 44.9079 163.249 44.951C163.228 44.9941 163.223 45.0434 163.236 45.0896C163.249 45.1359 163.278 45.1757 163.319 45.2016C163.359 45.2275 163.407 45.2376 163.454 45.2301C164.063 45.0657 164.654 44.8399 165.217 44.5561C164.756 45.1638 164.13 45.6249 163.414 45.8838C163.226 45.9512 163.233 46.2949 163.468 46.2646H163.518C164.532 46.1375 165.524 45.8758 166.469 45.4862C166.701 45.4019 166.6 45.0279 166.369 45.1222Z" fill="white"/>
<path d="M143.085 13.9951H121.63C120.705 13.9951 119.955 14.748 119.955 15.6767V30.386C119.955 31.3147 120.705 32.0676 121.63 32.0676H143.085C144.01 32.0676 144.76 31.3147 144.76 30.386V15.6767C144.76 14.748 144.01 13.9951 143.085 13.9951Z" fill="white"/>
<path d="M125.532 23.5958V24.7921H124.488V23.5857C123.77 23.4904 123.091 23.2016 122.523 22.7499L123.077 21.6312C123.634 22.1099 124.328 22.4001 125.058 22.4601C125.478 22.4601 125.73 22.3018 125.73 22.0119C125.73 21.0819 122.852 21.6446 122.852 19.7036C122.852 18.8342 123.477 18.231 124.474 18.0692V16.9167H125.512V18.0591C126.118 18.1229 126.702 18.3234 127.221 18.6455L126.703 19.7912C126.165 19.4684 125.562 19.2683 124.937 19.2049C124.602 19.2049 124.37 19.3296 124.37 19.5823C124.37 20.4888 127.247 19.9732 127.247 21.9412C127.247 22.8982 126.502 23.461 125.532 23.5958Z" fill="#0CC3BE"/>
<path d="M142.185 16.9167H128.967V18.1804H142.185V16.9167Z" fill="#C1BED7"/>
<path d="M142.185 19.1306H128.967V20.3943H142.185V19.1306Z" fill="#C1BED7"/>
<path d="M142.185 21.3413H128.967V22.605H142.185V21.3413Z" fill="#C1BED7"/>
<path d="M135.887 23.5552H128.967V24.8189H135.887V23.5552Z" fill="#C1BED7"/>
<path d="M124.823 28.0002C124.823 28.2275 124.756 28.4496 124.631 28.6386C124.505 28.8276 124.326 28.9749 124.117 29.0618C123.908 29.1488 123.677 29.1716 123.455 29.1272C123.233 29.0829 123.029 28.9734 122.869 28.8127C122.709 28.652 122.6 28.4473 122.556 28.2244C122.512 28.0015 122.534 27.7704 122.621 27.5604C122.707 27.3505 122.854 27.171 123.043 27.0447C123.231 26.9185 123.452 26.8511 123.679 26.8511C123.982 26.8511 124.273 26.9721 124.488 27.1876C124.703 27.4031 124.823 27.6954 124.823 28.0002Z" fill="#FD7658"/>
<path d="M128.698 28.0002C128.698 28.2276 128.631 28.4499 128.505 28.639C128.379 28.828 128.2 28.9753 127.99 29.0622C127.781 29.149 127.551 29.1716 127.329 29.127C127.106 29.0824 126.902 28.9726 126.742 28.8115C126.582 28.6505 126.474 28.4454 126.43 28.2223C126.386 27.9992 126.409 27.768 126.496 27.5581C126.583 27.3482 126.731 27.169 126.919 27.0431C127.108 26.9172 127.33 26.8504 127.556 26.8511C127.707 26.8511 127.855 26.8808 127.994 26.9386C128.133 26.9964 128.259 27.0811 128.365 27.1879C128.471 27.2946 128.555 27.4213 128.612 27.5607C128.669 27.7001 128.698 27.8495 128.698 28.0002Z" fill="#FD7658"/>
<path d="M132.583 28.0002C132.586 28.2282 132.522 28.452 132.398 28.6431C132.274 28.8343 132.097 28.9842 131.888 29.0738C131.679 29.1633 131.448 29.1885 131.225 29.1461C131.002 29.1037 130.796 28.9956 130.634 28.8356C130.473 28.6756 130.362 28.4708 130.316 28.2475C130.271 28.0241 130.292 27.7922 130.378 27.5813C130.465 27.3703 130.611 27.1898 130.8 27.0628C130.989 26.9358 131.211 26.8679 131.438 26.8679C131.739 26.867 132.028 26.9855 132.242 27.1975C132.457 27.4096 132.579 27.6981 132.583 28.0002Z" fill="#FD7658"/>
<path d="M144.76 27.9968L147.12 35.9126L138.458 31.9901L144.76 27.9968Z" fill="white"/>
<path d="M91.2188 8.60669C88.4691 8.60669 88.4657 12.8898 91.2188 12.8898C93.972 12.8898 93.9686 8.60669 91.2188 8.60669Z" fill="white"/>
<path d="M123.46 38.2107C120.714 38.2107 120.707 42.4938 123.46 42.4938C126.213 42.4938 126.21 38.2107 123.46 38.2107Z" fill="white"/>
<path d="M71.3595 38.0151C68.6097 38.0151 68.6064 42.2982 71.3595 42.2982C74.1126 42.2982 74.126 38.0151 71.3595 38.0151Z" fill="white"/>
<path d="M82.6133 34.022C81.6061 34.022 81.6061 35.5788 82.6133 35.5788C83.6206 35.5788 83.6139 34.022 82.6133 34.022Z" fill="white"/>
<path d="M112.612 13.075C111.605 13.075 111.605 14.6318 112.612 14.6318C113.62 14.6318 113.613 13.075 112.612 13.075Z" fill="white"/>
<path d="M134.224 37.9175C133.217 37.9175 133.217 39.4743 134.224 39.4743C135.232 39.4743 135.232 37.9175 134.224 37.9175Z" fill="white"/>
<path d="M150.142 20.7786C149.135 20.7786 149.135 22.3354 150.142 22.3354C151.149 22.3354 151.142 20.7786 150.142 20.7786Z" fill="white"/>
<path style="mix-blend-mode:multiply" d="M113.744 56.7481L103.383 76.8964C102.971 77.6997 102.259 78.3061 101.402 78.5822C100.545 78.8584 99.6138 78.7817 98.8132 78.369L81.059 69.1693C80.2601 68.7539 79.6582 68.0371 79.3856 67.1765C79.113 66.3159 79.192 65.3818 79.6052 64.5796L93.1391 38.2612C93.3434 37.8644 93.6236 37.5118 93.9637 37.2237C94.3037 36.9357 94.697 36.7176 95.121 36.5821C95.5451 36.4466 95.9915 36.3963 96.4349 36.434C96.8784 36.4718 97.31 36.5968 97.7053 36.802L109.302 42.8104L113.744 56.7481Z" fill="url(#paint3_linear_12_951)"/>
<path d="M115.953 56.0035L105.592 76.1517C105.181 76.9551 104.468 77.5615 103.611 77.8376C102.754 78.1138 101.823 78.0371 101.023 77.6244L83.2685 68.4247C82.4696 68.0093 81.8677 67.2925 81.5951 66.4319C81.3225 65.5712 81.4015 64.6372 81.8147 63.835L95.3486 37.5165C95.5529 37.1197 95.8331 36.7672 96.1731 36.4791C96.5132 36.191 96.9065 35.973 97.3305 35.8375C97.7545 35.702 98.201 35.6517 98.6444 35.6894C99.0878 35.7271 99.5195 35.8522 99.9147 36.0574L111.511 42.0658L115.953 56.0035Z" fill="white"/>
<path d="M115.953 56.0035L106.787 51.2554L111.511 42.0625L115.953 56.0035Z" fill="#DFDEEE"/>
<path d="M103.503 49.9147L95.0537 45.5376L92.4159 50.6672L100.865 55.0442L103.503 49.9147Z" fill="#456997"/>
<path d="M109.202 61.693L91.4683 52.5061L90.5536 54.2848L108.287 63.4717L109.202 61.693Z" fill="#DFDEEE"/>
<path d="M107.47 65.0646L89.7358 55.8777L88.8211 57.6564L106.555 66.8433L107.47 65.0646Z" fill="#DFDEEE"/>
<path d="M105.735 68.4374L88.001 59.2505L87.0863 61.0292L104.82 70.2161L105.735 68.4374Z" fill="#DFDEEE"/>
<path d="M103.998 71.8085L86.2637 62.6216L85.349 64.4003L103.083 73.5872L103.998 71.8085Z" fill="#DFDEEE"/>
</g>
<defs>
<linearGradient id="paint0_linear_12_951" x1="103.977" y1="50.4601" x2="103.977" y2="159.137" gradientUnits="userSpaceOnUse">
<stop stop-color="#DFDEEE"/>
<stop offset="1" stop-color="#C1BED7"/>
</linearGradient>
<linearGradient id="paint1_linear_12_951" x1="50.7513" y1="50.4567" x2="50.7513" y2="159.137" gradientUnits="userSpaceOnUse">
<stop stop-color="#DFDEEE"/>
<stop offset="1" stop-color="#C1BED7"/>
</linearGradient>
<linearGradient id="paint2_linear_12_951" x1="93.3744" y1="50.4568" x2="93.3744" y2="159.137" gradientUnits="userSpaceOnUse">
<stop stop-color="#DFDEEE"/>
<stop offset="1" stop-color="#C1BED7"/>
</linearGradient>
<linearGradient id="paint3_linear_12_951" x1="96.4664" y1="53.0784" x2="96.4664" y2="77.3884" gradientUnits="userSpaceOnUse">
<stop stop-color="#E1E0F0" stop-opacity="0"/>
<stop offset="1" stop-color="#C3C0D9"/>
</linearGradient>
<clipPath id="clip0_12_951">
<rect width="206" height="140" fill="white"/>
</clipPath>
</defs>
</svg>
