<svg width="129" height="86" viewBox="0 0 129 86" fill="none" xmlns="http://www.w3.org/2000/svg">
<g clip-path="url(#clip0_655_11553)">
<path d="M65.0595 82.1501C54.4252 82.1394 44.2295 78.0112 36.7094 70.6711C29.1894 63.3311 24.9592 53.3787 24.9471 42.9977C24.9471 42.7963 24.9746 42.6038 24.9792 42.4023H21.0399C21.0399 42.6038 21.0078 42.7963 21.0078 42.9977C21.0046 52.2603 24.0671 61.2761 29.7391 68.7016C35.4111 76.1272 43.389 81.5651 52.484 84.2051C61.5791 86.8452 71.3045 86.5461 80.2113 83.3524C89.1181 80.1587 96.7295 74.2413 101.911 66.482H97.0596C93.3378 71.3394 88.5086 75.2841 82.9543 78.0036C77.4 80.7232 71.2733 82.1428 65.0595 82.1501Z" fill="url(#paint0_linear_655_11553)"/>
<path d="M65.0596 3.84559C75.6931 3.85743 85.8877 7.98621 93.4067 15.3261C100.926 22.6661 105.155 32.6177 105.167 42.9979C105.167 43.2665 105.131 43.5307 105.126 43.7993H109.065C109.065 43.5307 109.107 43.2665 109.107 42.9979C109.098 33.6337 105.957 24.5283 100.16 17.067C94.3638 9.60571 86.2293 4.1968 76.9943 1.66308C67.7593 -0.870646 57.9293 -0.390498 48.9995 3.03048C40.0698 6.45146 32.529 12.626 27.5244 20.6149H32.2066C35.8933 15.4426 40.806 11.2166 46.5262 8.29686C52.2463 5.37708 58.6046 3.84998 65.0596 3.84559Z" fill="#0E1F3D"/>
<path d="M17.3483 34.7159C15.5033 35.4761 13.5176 35.857 11.5151 35.835C6.51344 35.835 4.01109 33.3923 4.00803 28.5068C4.00803 24.0004 6.51038 21.7471 11.5151 21.7471C13.5191 21.7286 15.5053 22.1158 17.3483 22.8842V19.4686C15.3862 18.777 13.3119 18.4388 11.2262 18.4703C3.74206 18.4703 0 21.8158 0 28.5068C0 35.5769 3.74206 39.1104 11.2262 39.1074C13.3116 39.1403 15.3859 38.8036 17.3483 38.1136V34.7159Z" fill="url(#paint1_linear_655_11553)"/>
<path d="M20.627 38.969H24.4928V28.8385C24.9739 28.2977 25.5665 27.8623 26.2319 27.5607C26.8974 27.259 27.6205 27.098 28.3541 27.0881V24.0396C26.8591 24.0396 25.4406 24.6752 24.0984 25.9466L23.6169 24.0396H20.627V38.969Z" fill="url(#paint2_linear_655_11553)"/>
<path d="M36.9849 24.0396C32.1942 24.0396 29.7988 26.4733 29.7988 31.3409C29.7988 36.4353 32.5733 38.9825 38.1221 38.9825C39.7761 39.0093 41.4284 38.8668 43.0519 38.5572V35.5668C41.5228 35.8577 39.969 36.0076 38.4111 36.0145C35.2438 36.0145 33.6601 34.961 33.6601 32.854H43.8636C43.9497 32.2413 43.9926 31.6236 43.992 31.0052C43.9768 26.3584 41.641 24.0366 36.9849 24.0396ZM40.195 30.2173H33.6785C33.8527 28.0715 34.961 27.0001 37.0032 27.0031C39.1433 27.0031 40.2133 28.0372 40.2133 30.1054L40.195 30.2173Z" fill="url(#paint3_linear_655_11553)"/>
<path d="M60.4275 38.0737V18.6318H56.5662V24.7513C55.5757 24.2962 54.4967 24.0534 53.402 24.0396C48.5624 24.0396 46.1426 26.4271 46.1426 31.2021C46.1517 36.3801 48.625 38.969 53.5625 38.969C55.8808 38.9602 58.1882 38.6592 60.4275 38.0737ZM49.9626 31.1126C49.9626 28.4863 51.1626 27.1732 53.5625 27.1732C54.6191 27.1341 55.664 27.4004 56.5662 27.9387V35.3878C55.6414 35.6681 54.6776 35.8071 53.7092 35.7996C51.2115 35.7966 49.9626 34.2343 49.9626 31.1126Z" fill="url(#paint4_linear_655_11553)"/>
<path d="M67.9391 24.0439H64.0732V38.9868H67.9391V24.0439Z" fill="url(#paint5_linear_655_11553)"/>
<path d="M67.9391 18.6362H64.0732V21.6266H67.9391V18.6362Z" fill="url(#paint6_linear_655_11553)"/>
<path d="M75.2173 38.9689H78.6567V35.983H77.0837C75.8608 35.983 75.2417 35.2847 75.2264 33.888V27.0298H78.6567V24.0394H74.8091L74.2221 21.6221H71.3789V34.94C71.3789 37.6259 72.6584 38.9689 75.2173 38.9689Z" fill="url(#paint7_linear_655_11553)"/>
<path d="M86.9586 38.9556C85.0212 38.9259 83.0922 38.6955 81.2023 38.2681L81.9206 35.3664C83.5889 35.6803 85.2813 35.8494 86.9788 35.8719C89.5079 35.8719 90.1149 35.5888 90.3678 35.3158C90.4408 35.2345 90.4942 35.1375 90.524 35.0324C90.5538 34.9273 90.5592 34.8167 90.5398 34.7092V34.6283C90.5398 34.0217 89.5888 33.8195 86.7259 33.5161C82.8715 33.1522 81 31.8479 81 29.4719C81 26.5601 83.2155 25.084 87.5858 25.084C89.32 25.1099 91.0437 25.358 92.7148 25.822L91.9864 28.7339C90.5897 28.4012 89.1626 28.2115 87.7274 28.1677C85.4816 28.1677 84.3384 28.3194 84.3384 29.1787C84.3384 30.0381 85.4816 30.1898 87.3733 30.3212H87.5049C90.1857 30.5841 93.8681 30.9582 93.8681 34.3654C93.8479 37.5098 91.5919 38.9556 86.9586 38.9556Z" fill="url(#paint8_linear_655_11553)"/>
<path d="M47.2668 53.1773C47.2668 48.6679 49.7692 46.4147 54.7739 46.4177C56.7777 46.4013 58.7634 46.7884 60.6071 47.5547V44.1391C58.6447 43.4491 56.5704 43.1124 54.485 43.1453C47.0008 43.1453 43.2588 46.4893 43.2588 53.1773C43.2588 60.2474 47.0008 63.7824 54.485 63.7824C56.5707 63.8139 58.645 63.4756 60.6071 62.7841V59.3685C58.7641 60.1369 56.7779 60.5241 54.7739 60.5055C49.7722 60.5055 47.2699 58.0628 47.2668 53.1773Z" fill="#0E1F3D"/>
<path d="M67.7509 43.2886H63.8896V63.6392H67.7509V43.2886Z" fill="#0E1F3D"/>
<path d="M77.4734 48.6919C75.5956 48.7177 73.7274 48.9566 71.9061 49.4037V52.3985C73.7274 51.9514 75.5956 51.7126 77.4734 51.6867C79.4514 51.6867 80.4389 52.3552 80.4358 53.6923V54.8204C79.4063 54.6297 78.3607 54.5338 77.3129 54.5339C72.8829 54.5339 70.668 56.0261 70.668 59.0105C70.668 62.1113 72.539 63.6631 76.2811 63.6661C77.8554 63.6728 79.3932 63.2037 80.6835 62.3231L82.0592 63.6661H84.3017V53.6162C84.2986 50.3333 82.0225 48.6919 77.4734 48.6919ZM80.4358 59.767C79.4057 60.5232 78.1523 60.9331 76.8635 60.9354C75.3089 60.9354 74.5338 60.2684 74.5338 58.9433C74.5338 57.7078 75.4602 57.09 77.3129 57.09C78.361 57.0835 79.4073 57.1795 80.4358 57.3765V59.767Z" fill="#0E1F3D"/>
<path d="M90.9333 48.6919H87.9434V63.6393H91.8092V53.4908C92.2903 52.9501 92.8829 52.5147 93.5483 52.213C94.2138 51.9114 94.9369 51.7504 95.6705 51.7405V48.6919C94.1755 48.6919 92.757 49.3276 91.4149 50.5989L90.9333 48.6919Z" fill="#0E1F3D"/>
<path d="M101.724 43.2886H97.8623V46.2789H101.724V43.2886Z" fill="url(#paint9_linear_655_11553)"/>
<path d="M101.724 48.6963H97.8623V63.6392H101.724V48.6963Z" fill="#0E1F3D"/>
<path d="M109.011 58.5582V51.6821H112.441V48.6918H108.589L108.006 46.2744H105.149V59.6102C105.149 62.2962 106.432 63.6391 108.997 63.6391H112.441V60.6488H110.863C109.631 60.6488 109.014 59.9519 109.011 58.5582Z" fill="#0E1F3D"/>
<path d="M124.978 48.6921L121.204 59.436L117.338 48.6921H113.238L119.104 63.7246C118.368 65.336 117.034 66.6156 115.371 67.3059L117.237 69.8575C119.741 68.6841 121.679 66.6071 122.644 64.0648L129 48.6787L124.978 48.6921Z" fill="#0E1F3D"/>
</g>
<defs>
<linearGradient id="paint0_linear_655_11553" x1="61.4596" y1="33.6058" x2="61.4596" y2="113.724" gradientUnits="userSpaceOnUse">
<stop stop-color="#1988F1"/>
<stop offset="0.91" stop-color="#09EC92"/>
</linearGradient>
<linearGradient id="paint1_linear_655_11553" x1="8.67184" y1="3.87655" x2="8.67184" y2="73.6354" gradientUnits="userSpaceOnUse">
<stop stop-color="#1988F1"/>
<stop offset="0.91" stop-color="#09EC92"/>
</linearGradient>
<linearGradient id="paint2_linear_655_11553" x1="24.4928" y1="3.87693" x2="24.4928" y2="73.6358" gradientUnits="userSpaceOnUse">
<stop stop-color="#1988F1"/>
<stop offset="0.91" stop-color="#09EC92"/>
</linearGradient>
<linearGradient id="paint3_linear_655_11553" x1="36.8931" y1="3.87694" x2="36.8931" y2="73.6358" gradientUnits="userSpaceOnUse">
<stop stop-color="#1988F1"/>
<stop offset="0.91" stop-color="#09EC92"/>
</linearGradient>
<linearGradient id="paint4_linear_655_11553" x1="53.2873" y1="3.87696" x2="53.2873" y2="73.6358" gradientUnits="userSpaceOnUse">
<stop stop-color="#1988F1"/>
<stop offset="0.91" stop-color="#09EC92"/>
</linearGradient>
<linearGradient id="paint5_linear_655_11553" x1="66.0085" y1="3.87685" x2="66.0085" y2="73.6402" gradientUnits="userSpaceOnUse">
<stop stop-color="#1988F1"/>
<stop offset="0.91" stop-color="#09EC92"/>
</linearGradient>
<linearGradient id="paint6_linear_655_11553" x1="66.0085" y1="3.87687" x2="66.0085" y2="73.6402" gradientUnits="userSpaceOnUse">
<stop stop-color="#1988F1"/>
<stop offset="0.91" stop-color="#09EC92"/>
</linearGradient>
<linearGradient id="paint7_linear_655_11553" x1="75.0109" y1="3.87682" x2="75.0109" y2="73.6357" gradientUnits="userSpaceOnUse">
<stop stop-color="#1988F1"/>
<stop offset="0.91" stop-color="#09EC92"/>
</linearGradient>
<linearGradient id="paint8_linear_655_11553" x1="87.4138" y1="2.51732" x2="87.4138" y2="85.009" gradientUnits="userSpaceOnUse">
<stop stop-color="#1988F1"/>
<stop offset="0.91" stop-color="#09EC92"/>
</linearGradient>
<linearGradient id="paint9_linear_655_11553" x1="99.793" y1="4.1586" x2="99.793" y2="73.3669" gradientUnits="userSpaceOnUse">
<stop stop-color="#1988F1"/>
<stop offset="0.91" stop-color="#09EC92"/>
</linearGradient>
<clipPath id="clip0_655_11553">
<rect width="129" height="86" fill="white"/>
</clipPath>
</defs>
</svg>
