<svg width="44" height="14" viewBox="0 0 44 14" fill="none" xmlns="http://www.w3.org/2000/svg">
<path d="M15.547 13.582L17.7709 0.531326H21.3281L19.1025 13.582H15.547ZM31.9543 0.81266C31.2497 0.54826 30.1453 0.264526 28.7663 0.264526C25.2512 0.264526 22.7754 2.03459 22.7542 4.57146C22.7344 6.44673 24.5219 7.49293 25.8711 8.11713C27.2559 8.75699 27.7213 9.16486 27.7146 9.73599C27.7057 10.6109 26.6089 11.0103 25.5863 11.0103C24.1627 11.0103 23.4063 10.8125 22.238 10.3255L21.7795 10.1181L21.2803 13.0395C22.1112 13.404 23.6475 13.7195 25.2429 13.7359C28.9822 13.7359 31.4097 11.986 31.4373 9.27686C31.4505 7.79219 30.5029 6.66253 28.4505 5.73099C27.2072 5.12726 26.4457 4.72439 26.4538 4.11306C26.4538 3.57059 27.0983 2.99053 28.4911 2.99053C29.6542 2.97246 30.497 3.22613 31.1535 3.49053L31.4723 3.64113L31.9543 0.81266ZM41.1083 0.531126H38.3597C37.5082 0.531126 36.8709 0.763526 36.497 1.61339L31.214 13.5734H34.9494C34.9494 13.5734 35.56 11.9653 35.6981 11.6122C36.1063 11.6122 39.7351 11.6178 40.2539 11.6178C40.3603 12.0747 40.6867 13.5734 40.6867 13.5734H43.9875L41.1083 0.530726V0.531126ZM36.7472 8.95846C37.0415 8.20653 38.1645 5.31019 38.1645 5.31019C38.1436 5.34493 38.4566 4.55459 38.6361 4.06459L38.8765 5.18979C38.8765 5.18979 39.5577 8.30506 39.7001 8.95826H36.7472V8.95846ZM12.5272 0.531126L9.0446 9.43113L8.6736 7.62253C8.0252 5.53759 6.00527 3.27873 3.74707 2.14786L6.93154 13.5612L10.6952 13.557L16.2955 0.530993L12.5272 0.530927" fill="#0E4595"/>
<path d="M5.79423 0.53064H0.0581622L0.0126953 0.802173C4.4753 1.88244 7.42803 4.49304 8.65403 7.63017L7.40676 1.63284C7.1915 0.806439 6.56696 0.559772 5.79436 0.530972" fill="#F2AE14"/>
</svg>
